<svg xmlns:xlink="http://www.w3.org/1999/xlink" xmlns="http://www.w3.org/2000/svg" viewBox="0 0 18 18" fit="" height="500" width="500" preserveAspectRatio="xMidYMid meet" focusable="false"><path d="M10.21 9A1.21 1.21 0 119 7.79 1.21 1.21 0 0110.21 9zm6.1 0a1.14 1.14 0 01-1.16 1.14 1.12 1.12 0 01-1.08-.87h-.58a5.23 5.23 0 000-.56h.58a1.14 1.14 0 011.1-.87A1.16 1.16 0 0116.31 9zm-.56 0a.58.58 0 00-.58-.58.58.58 0 100 1.16.58.58 0 00.58-.58zm.56 4.88A1.14 1.14 0 0115.15 15a1.12 1.12 0 01-1.08-.87h-1.24l-1.55-1a5.61 5.61 0 01-2.14 1h-.26a5.61 5.61 0 01-2.14-1l-1.59 1.04H3.94a1.12 1.12 0 01-1.07.83 1.16 1.16 0 01-1.17-1.09 1.14 1.14 0 011.13-1.17 1.11 1.11 0 011.08.86H5l1.3-.87a5.61 5.61 0 01-1.79-3.45h-.57a1.12 1.12 0 01-1.07.87 1.15 1.15 0 010-2.3 1.12 1.12 0 011.09.87h.57V5.89l1.61-.75L5 4.4H3.94a1.12 1.12 0 01-1.07.87 1.15 1.15 0 010-2.3V3a1.13 1.13 0 011.1.85h1.18l1.57 1L9 3.79l2.25 1.06 1.6-1h1.22a1.14 1.14 0 011.1-.85 1.16 1.16 0 011.14 1.12 1.14 1.14 0 01-1.16 1.14 1.12 1.12 0 01-1.08-.87H13l-1.15.73 1.61.76v2.88a5.23 5.23 0 010 .56 5.71 5.71 0 01-1.74 3.43l1.28.85h1.07a1.14 1.14 0 011.1-.86 1.15 1.15 0 011.14 1.14zm-1.8-9.69a.59.59 0 10.66-.66H15a.59.59 0 00-.49.66zM3.49 4a.59.59 0 00-.66-.51.58.58 0 00-.51.51.59.59 0 00.51.66H3A.59.59 0 003.49 4zm-.08 5a.58.58 0 00-.58-.58.58.58 0 100 1.16.58.58 0 00.58-.58zm.08 4.81a.59.59 0 00-.66-.51.58.58 0 00-.51.51.59.59 0 00.51.66H3a.59.59 0 00.49-.66zM11.34 9A2.34 2.34 0 109 11.34 2.34 2.34 0 0011.34 9zm4.34 5a.59.59 0 00-.51-.66.38.38 0 00-.15 0 .59.59 0 00-.51.66.59.59 0 001.17 0z" fill-opacity="0.54" fill="#000000"></path></svg>