<svg xmlns:xlink="http://www.w3.org/1999/xlink" xmlns="http://www.w3.org/2000/svg" width="500" height="500" viewBox="0 0 18 18" fit="" preserveAspectRatio="xMidYMid meet" focusable="false"><path d="M17 9.008l-3.363-3.363-1.883 1.883 1.48 1.48-1.48 1.48 1.883 1.882L17 9.008zM8.992 1l3.363 3.363-1.883 1.883-1.48-1.48-1.48 1.48L5.63 4.363 8.992 1zm.016 16l-3.363-3.363 1.883-1.883 1.48 1.48 1.48-1.48 1.882 1.883L9.008 17zM1 8.992l3.363 3.363 1.883-1.883-1.48-1.48 1.48-1.48L4.363 5.63 1 8.992zM9.008 7.32l1.688 1.688-1.688 1.688-1.69-1.688 1.69-1.69z" fill-rule="evenodd" fill="#3367D6"></path></svg>