<svg xmlns:xlink="http://www.w3.org/1999/xlink" xmlns="http://www.w3.org/2000/svg" fill-rule="evenodd" height="500" viewBox="0 0 18 18" width="500" fit="" preserveAspectRatio="xMidYMid meet" focusable="false"><path d="M2 6.5h7V8H2V6.5zm0-3h9V5H2V3.5zm0 6h6V11H2V9.5z" fill-rule="nonzero" fill-opacity="0.54" fill="#000000"></path><path d="M16.056 11.392a3.01 3.01 0 0 0 .03-.392 3.01 3.01 0 0 0-.03-.392l.868-.66a.2.2 0 0 0 .05-.256l-.823-1.384a.21.21 0 0 0-.25-.088l-1.02.4a3.025 3.025 0 0 0-.69-.392l-.15-1.06A.2.2 0 0 0 13.83 7h-1.65a.2.2 0 0 0-.203.168l-.156 1.06a3.2 3.2 0 0 0-.69.392l-1.02-.4a.203.203 0 0 0-.25.088l-.83 1.384a.194.194 0 0 0 .05.256l.87.66c-.01.128-.03.26-.03.392s.02.264.03.392l-.86.66a.198.198 0 0 0-.05.256l.826 1.384c.05.088.16.12.26.088l1.023-.4a3 3 0 0 0 .694.392l.16 1.06a.2.2 0 0 0 .2.168h1.646a.2.2 0 0 0 .2-.168l.156-1.06c.25-.1.48-.236.693-.392l1.022.4c.094.036.2 0 .25-.088l.824-1.384a.2.2 0 0 0-.05-.256l-.87-.66zM13 12.6c-.882 0-1.6-.718-1.6-1.6 0-.882.718-1.6 1.6-1.6.882 0 1.6.718 1.6 1.6 0 .882-.718 1.6-1.6 1.6z" fill-opacity="0.54" fill="#000000"></path></svg>