<svg xmlns:xlink="http://www.w3.org/1999/xlink" xmlns="http://www.w3.org/2000/svg" fill="currentColor" fill-rule="evenodd" height="500" viewBox="0 0 24 24" width="500" fit="" preserveAspectRatio="xMidYMid meet" focusable="false"><g transform="translate(3 2)" fill-opacity="0.99" fill="#000000"><circle cx="15.5" cy="6.375" opacity=".7" r="1.75" fill-opacity="0.99"></circle><circle cx="2.5" cy="6.375" opacity=".7" r="1.75" fill-opacity="0.99"></circle><circle cx="9" cy="17.875" opacity=".7" r="1.75" fill-opacity="0.99"></circle><circle cx="9" cy="10.198" r="2.673" fill-opacity="0.99"></circle><path d="M4.662 13.617l1.612-.904-.767-1.32-1.727.968c.427.3.74.75.882 1.26z" opacity=".5" fill-opacity="0.99"></path><circle cx="2.5" cy="14.209" r="2.25" fill-opacity="0.99"></circle><path d="M14.258 12.334l-1.62-.95-.767 1.32 1.49.87c.15-.512.47-.95.91-1.24z" opacity=".5" fill-opacity="0.99"></path><circle cx="15.5" cy="14.209" r="2.25" fill-opacity="0.99"></circle><path d="M9 4.875a2.23 2.23 0 0 1-.6-.09v1.73h1.2v-1.73a2.23 2.23 0 0 1-.6.09z" opacity=".5" fill-opacity="0.99"></path><circle cx="9" cy="2.625" r="2.25" fill-opacity="0.99"></circle></g></svg>