<svg xmlns:xlink="http://www.w3.org/1999/xlink" xmlns="http://www.w3.org/2000/svg" width="500" height="500" viewBox="0 0 24 24" fit="" preserveAspectRatio="xMidYMid meet" focusable="false"><path d="M5.588 10.842v4.482l3.153-2.127A3.5 3.5 0 0 0 9.7 14.6l-3.254 2.195L11.2 19.72v-4.33a3.505 3.505 0 0 0 1.697-.014v4.34l2.516-1.546.784 1.33-4.15 2.438-8.156-4.79v-6.306h1.7zm9.71 2.373l2.83 1.908a1.992 1.992 0 1 1-.91 1.435l-2.883-1.945c.427-.376.76-.855.964-1.398zm3.897 2.793a.797.797 0 1 0 0 1.594.797.797 0 0 0 0-1.594zm-7.172-6.015a1.997 1.997 0 1 1 0 3.995 1.997 1.997 0 0 1 0-3.995zm.024-7.93l8.156 4.788v6.34h-1.698V8.66l-3.19 2.15a3.5 3.5 0 0 0-.944-1.41l3.27-2.203-4.74-2.914v4.322a3.502 3.502 0 0 0-1.7-.012V4.28L8.52 5.93 7.723 4.6l4.324-2.537zm-7.29 3.14a1.992 1.992 0 0 1 1.98 2.237l2.926 1.973a3.5 3.5 0 0 0-.937 1.416L5.83 8.87A1.992 1.992 0 1 1 4.76 5.2zm0 1.195a.797.797 0 1 0 0 1.594.797.797 0 0 0 0-1.594z" fill="#000000" fill-rule="evenodd" fill-opacity="0.99"></path></svg>