<svg xmlns:xlink="http://www.w3.org/1999/xlink" xmlns="http://www.w3.org/2000/svg" fill="currentColor" fill-rule="evenodd" height="500" viewBox="0 0 24 24" width="500" fit="" preserveAspectRatio="xMidYMid meet" focusable="false"><circle cx="19" cy="12" r="1.25" fill-opacity="0.99" fill="#000000"></circle><circle cx="5" cy="12" r="1.25" fill-opacity="0.99" fill="#000000"></circle><circle cx="12" cy="10" r="1.25" fill-opacity="0.99" fill="#000000"></circle><circle cx="12" cy="14" r="1.25" fill-opacity="0.99" fill="#000000"></circle><path d="M12.115 3.236L8.358 1l-1.91 1.04 3.782 2.25 1.885-1.054zM13.97 4.34l3.842-2.15-1.83-1.09h-.052l-3.815 2.136z" opacity=".6" fill-opacity="0.99" fill="#000000"></path><path d="M13.97 4.34l-1.855-1.104L12 3.3V8h1V6l5 2.77V10h2V7.717z" opacity=".8" fill-opacity="0.99" fill="#000000"></path><path d="M10.23 4.29L4 7.517V10h1.96V8.62L11 6v2h1V3.3z" fill-opacity="0.99" fill="#000000"></path><path d="M13.768 19.71l3.783 2.25L15.7 23h-.05l-3.758-2.236z" opacity=".6" fill-opacity="0.99" fill="#000000"></path><path d="M18 14v1.372L13 18v-2h-1v4.698l1.76-.985.003-.008L20 16.478V14z" opacity=".8" fill-opacity="0.99" fill="#000000"></path><path d="M11 16l.034 2.04-5.073-2.814V14H4v2.28l6.028 3.376 1.856 1.108.116-.066V16z" fill-opacity="0.99" fill="#000000"></path><path d="M11.884 20.764L8.07 22.9h-.052l-1.83-1.09 3.84-2.15 1.856 1.104z" opacity=".6" fill-opacity="0.99" fill="#000000"></path></svg>