<svg xmlns:xlink="http://www.w3.org/1999/xlink" xmlns="http://www.w3.org/2000/svg" fill="currentColor" height="500" viewBox="0 0 24 24" width="500" fit="" preserveAspectRatio="xMidYMid meet" focusable="false"><g transform="translate(2.063 2.813)" fill-opacity="0.99" fill="#000000"><ellipse cx="1.65" cy="1.65" rx="1.65" ry="1.65" fill-opacity="0.99"></ellipse><ellipse cx="1.65" cy="9.13" rx="1.65" ry="1.65" fill-opacity="0.99"></ellipse><ellipse cx="1.65" cy="16.61" rx="1.65" ry="1.65" fill-opacity="0.99"></ellipse><circle cx="17.694" cy="9.131" r="2.063" fill-opacity="0.99"></circle><path d="M4.89 10.12h3.487c.138-.238.287-.47.447-.692l.21-.302a8.29 8.29 0 0 1-.637-1.004H4.89c.075.26.122.525.138.793v.422c-.015.266-.062.53-.14.783zm6.548-4.026l-.23-.41-.277-.463-.43-.87C9.24 1.84 7.95.69 5.35.69h-.46c.093.326.14.664.138 1.004.002.34-.045.678-.14 1.004h.458c1.61 0 2.316.516 3.29 2.29l.238.435.24.48c1.44 2.913 2.483 4.017 4.898 4.258a4.32 4.32 0 0 1-.12-1c.002-.34.05-.68.14-1h.06c-1.173-.11-1.85-.623-2.654-2.05zM9.61 11.486l-.24.45-.377.765-.238.46-.23.41c-.913 1.62-1.628 2.09-3.18 2.09H4.89c.077.26.124.53.138.8v.37a3.39 3.39 0 0 1-.14.796h.717c2.395-.07 3.687-1.234 4.968-3.653l.537-1.076.21-.39.178-.332a6.93 6.93 0 0 1 .477-.72 5.652 5.652 0 0 1-1.69-1 7.76 7.76 0 0 0-.675 1.05z" fill-opacity="0.99"></path></g></svg>