<svg xmlns:xlink="http://www.w3.org/1999/xlink" xmlns="http://www.w3.org/2000/svg" fill="currentColor" fill-rule="evenodd" height="500" viewBox="0 0 24 24" width="500" fit="" preserveAspectRatio="xMidYMid meet" focusable="false"><path d="M10.78 10.77a1.09 1.09 0 1 1-1.08 1.09c0-.602.488-1.09 1.09-1.09h-.01zm.01-.95a2 2 0 1 0 0 4 2 2 0 0 0 0-4zm-7.08.95a1.09 1.09 0 1 1 0 2.18 1.09 1.09 0 0 1 0-2.18zm0-.95a2 2 0 1 0 0 4 2 2 0 0 0 0-4zm3.6 7.3a1.09 1.09 0 1 1 0 2.18 1.09 1.09 0 0 1 0-2.18zm0-.95a2 2 0 1 0 0 4 2 2 0 0 0 0-4zm0-11.64a1.09 1.09 0 1 1 .02 2.18 1.09 1.09 0 0 1-.02-2.18zm0-.95a2 2 0 1 0 0 4 2 2 0 0 0 0-4z" fill-opacity="0.8" fill="#000000"></path><path d="M13 16.07h2.78c.16 0 .29.22.28.48v3.37c0 .27-.12.48-.28.48H13v3.53h-2.01V0H13v3.44h4.69c.23.036.39.25.36.48v3.36a.43.43 0 0 1-.36.48H13v1.99h9.86c.37 0 .67.25.67.48v3.37c0 .27-.3.48-.67.48H13v1.99z" fill-opacity="0.99" fill="#000000"></path></svg>