<svg xmlns:xlink="http://www.w3.org/1999/xlink" xmlns="http://www.w3.org/2000/svg" fill="currentColor" fill-rule="evenodd" height="500" viewBox="0 0 24 24" width="500" fit="" preserveAspectRatio="xMidYMid meet" focusable="false"><path d="M5.538 8.308h4.616V3.692H3.692a2.446 2.446 0 0 0-2.77 2.77v13.846a2.825 2.825 0 0 0 .693 2.077l3.923-3.923V8.308zM20.566.923h-6.72v4.615h4.616l3.95-3.95a2.492 2.492 0 0 0-1.846-.665z" fill-opacity="0.99" fill="#000000"></path><path d="M23.077 10.154v-6.72a2.49 2.49 0 0 0-.665-1.846l-3.95 3.95v4.616h4.615zm-17.54 8.308l-3.922 3.923c.57.5 1.32.75 2.077.692h14.77a2.852 2.852 0 0 0 2.076-.692l-3.923-3.923H5.538z" opacity=".8" fill-opacity="0.99" fill="#000000"></path><path d="M21.23 13.846h-4.615v4.616l3.923 3.923c.5-.57.75-1.32.693-2.077v-6.462z" opacity=".6" fill-opacity="0.99" fill="#000000"></path></svg>