<svg xmlns:xlink="http://www.w3.org/1999/xlink" xmlns="http://www.w3.org/2000/svg" viewBox="0 0 24 24" fit="" height="500" width="500" preserveAspectRatio="xMidYMid meet" focusable="false"><path fill="#000000" d="M4.98 10.96H12v1H4.98zm7.02 0h7.02v1H12zM5 13v9h7v-9zm2.76 7.78H6.23v-6.56h1.51zm3.09 0H9.32v-6.56h1.51zM12 13v9h7v-9zm2.68 7.78h-1.51v-6.56h1.51zm3.09 0h-1.51v-6.56h1.51zm.71-12.63l-3-1.52A3.71 3.71 0 0 1 12.06 9H12v1h7V9a1 1 0 0 0-.52-.85zM11.94 9a3.71 3.71 0 0 1-3.43-2.37l-3 1.52A1 1 0 0 0 5 9v1h7V9z" fill-opacity="0.99"></path><path fill="#000000" d="M12 2v.91a2.25 2.25 0 0 1 2.25 2.25v.07A2.25 2.25 0 0 1 12 7.47v.92A3.2 3.2 0 0 0 12 2zm0 5.47a2.25 2.25 0 0 1-2.28-2.24v-.07A2.25 2.25 0 0 1 12 2.91V2a3.2 3.2 0 0 0 0 6.39v-.92z" fill-opacity="0.99"></path><path fill="#000000" d="M11.54 3.71h.91v2.96h-.91z" fill-opacity="0.99"></path></svg>