<svg xmlns="http://www.w3.org/2000/svg" width="500" height="500" viewBox="0 0 24 24" xmlns:xlink="http://www.w3.org/1999/xlink" fit="" preserveAspectRatio="xMidYMid meet" focusable="false"><defs><path d="M2 .83v.675H0V.83a2.995 2.995 0 0 0 2 0z" id="logos-24-alpha-healthcare-api-a"></path><path id="logos-24-alpha-healthcare-api-b" d="M.394 2.456h1.212V.458L.394.456z"></path><path d="M2 .83v.675H0V.83a2.995 2.995 0 0 0 2 0z" id="logos-24-alpha-healthcare-api-a"></path><path id="logos-24-alpha-healthcare-api-b" d="M.394 2.456h1.212V.458L.394.456z"></path></defs><g fill="none" fill-rule="evenodd"><g transform="translate(3 1)" fill="none"><path d="M7 15h5.05c.52 0 .95-.442.95-1s-.43-1-.95-1H10v-2h2.05c1.635 0 2.95 1.35 2.95 3s-1.315 3-2.95 3H7v1.5L3 16l4-2.5V15z" fill="#000000" fill-rule="nonzero" opacity=".8" fill-opacity="0.99"></path><path d="M14 9H2.95C2.43 9 2 9.442 2 10s.43 1 .95 1H7v2H2.95C1.315 13 0 11.65 0 10s1.315-3 2.95-3H14V5.5L18 8l-4 2.5V9z" fill="#000000" fill-rule="nonzero" opacity=".8" fill-opacity="0.99"></path><circle fill="#000000" fill-rule="nonzero" opacity=".6" transform="rotate(-90 9 3)" cx="9" cy="3" r="3" fill-opacity="0.99"></circle><path fill="#000000" fill-rule="nonzero" opacity=".6" d="M10 9.5H8V9h2z" fill-opacity="0.99"></path><path d="M9 6a3 3 0 0 1-3-3h6a3 3 0 0 1-3 3z" fill="#000000" fill-rule="nonzero" fill-opacity="0.99"></path><g transform="translate(8 5.5)" fill="none"><mask id="logos-24-alpha-healthcare-api-c" fill="#FFFFFF"><use xlink:href="#logos-24-alpha-healthcare-api-a" fill="#FFFFFF"></use></mask><use fill="#000000" transform="rotate(-90 .72 1.177)" xlink:href="#logos-24-alpha-healthcare-api-b" mask="url('/alloydb/clusters?_ga=2.114827205.397855459.1666710557-378415075.1659841894&amp;project=aicignaw-alien#logos-24-alpha-healthcare-api-c')" fill-opacity="0.99"></use></g><path fill="#000000" fill-rule="nonzero" opacity=".6" d="M10 17.5H8V17h2z" fill-opacity="0.99"></path><path fill="#000000" fill-rule="nonzero" d="M8 9.5h2V15H8z" fill-opacity="0.99"></path><path fill="#000000" d="M9 22l1-.765V17.5H8.002L8 21.235z" fill-opacity="0.99"></path></g><path d="M12 7.5a3 3 0 0 1-3-3h6a3 3 0 0 1-3 3z" fill="#000000" fill-rule="nonzero" opacity=".6" fill-opacity="0.99"></path></g></svg>