<svg xmlns:xlink="http://www.w3.org/1999/xlink" xmlns="http://www.w3.org/2000/svg" fill="currentColor" height="500" viewBox="0 0 24 24" width="500" fit="" preserveAspectRatio="xMidYMid meet" focusable="false"><path d="M12.458 17.892v-5.475h-1.05V17.9a2.058 2.058 0 1 0 1.05 0v-.008zm-.525 2.99a1.008 1.008 0 1 1 1.01-1.007 1.008 1.008 0 0 1-1.01 1.017v-.01zm5.792-5.55v-2.907h-1.05v2.908a2.058 2.058 0 1 0 1.05 0zm-.525 2.993a1.008 1.008 0 1 1 0-2.017 1.008 1.008 0 0 1 0 2.017zm-9.983-2.992v-2.916h-1.05v2.916a2.058 2.058 0 1 0 2.583 1.984 2 2 0 0 0-1.533-1.984zm-.525 2.96a1.008 1.008 0 1 1 1.008-1.01 1.008 1.008 0 0 1-1.008 1.042v-.033z" fill-opacity="0.99" fill="#000000"></path><path d="M17.967 4.792c-.414 0-.825.067-1.217.2a5.2 5.2 0 0 0-9.433.066 3.808 3.808 0 1 0-1.392 7.36h.242V9.6a1.133 1.133 0 1 1 1.05 0v2.817h9.458V9.6a1.133 1.133 0 1 1 1.05 0v2.808h.25a3.812 3.812 0 0 0 0-7.625l-.008.01zm-5.51 3.216v4.41h-1.05v-4.41a1.133 1.133 0 1 1 1.05 0z" opacity=".8" fill-opacity="0.99" fill="#000000"></path></svg>