<svg xmlns:xlink="http://www.w3.org/1999/xlink" xmlns="http://www.w3.org/2000/svg" fill="currentColor" fill-rule="evenodd" height="500" viewBox="0 0 24 24" width="500" fit="" preserveAspectRatio="xMidYMid meet" focusable="false"><g transform="translate(2 2)" fill-opacity="0.99" fill="#000000"><circle cx="10.025" cy="10.025" r="1.525" fill-opacity="0.99"></circle><path d="M11.855 5.334H6.207c.12.204.193.438.193.69 0 .235-.064.45-.167.644h5.622L12.558 6l-.703-.666z" opacity=".6" fill-opacity="0.99"></path><circle cx="5.025" cy="6.025" r="1.375" fill-opacity="0.99"></circle><circle cx="15.004" cy="6.001" r="1.524" fill-opacity="0.99"></circle><circle cx="5.004" cy="14.004" r="1.524" fill-opacity="0.99"></circle><path d="M13.65 14.025c0-.255.074-.49.195-.695H8.19l-.703.666.702.668h5.62a1.36 1.36 0 0 1-.17-.64z" opacity=".6" fill-opacity="0.99"></path><circle cx="15.025" cy="14.025" r="1.375" fill-opacity="0.99"></circle><path d="M14.63 1.335H3.207c.12.202.193.437.193.69 0 .233-.064.45-.166.642H14.63L15.333 2l-.703-.665z" opacity=".6" fill-opacity="0.99"></path><circle cx="2.025" cy="2.025" r="1.375" fill-opacity="0.99"></circle><circle cx="18" cy="2" r="1.524" fill-opacity="0.99"></circle><circle cx="2" cy="18.004" r="1.524" fill-opacity="0.99"></circle><path d="M16.65 18.025c0-.254.074-.49.194-.694H5.37l-.703.67.702.67h11.44a1.358 1.358 0 0 1-.17-.64z" opacity=".6" fill-opacity="0.99"></path><circle cx="18.025" cy="18.025" r="1.375" fill-opacity="0.99"></circle></g></svg>