<svg xmlns:xlink="http://www.w3.org/1999/xlink" xmlns="http://www.w3.org/2000/svg" width="500" height="500" viewBox="0 0 24 24" fill="currentColor" fit="" preserveAspectRatio="xMidYMid meet" focusable="false"><path opacity=".6" d="M12.194 2a1.744 1.744 0 0 0-1.45 2.725l.743-.744a.95.95 0 0 1-.037-.23.743.743 0 1 1 .744.75.938.938 0 0 1-.232-.03l-.743.73a1.75 1.75 0 1 0 .97-3.2z" fill-opacity="0.99" fill="#000000"></path><path opacity=".8" d="M11.5 7.094a2.757 2.757 0 0 0-.52-1.638l-1 .97c.116.203.177.433.176.668A1.37 1.37 0 0 1 9.73 8.1l.532 1.294a2.744 2.744 0 0 0 1.238-2.3z" fill-opacity="0.99" fill="#000000"></path><path opacity=".8" d="M8.787 8.488a1.394 1.394 0 1 1 .738-2.557l.962-.95a2.687 2.687 0 0 0-1.725-.62 2.737 2.737 0 1 0 .558 5.41l-.54-1.28z" fill-opacity="0.99" fill="#000000"></path><path d="M12.23 9.6c-.604 0-1.206.088-1.786.263l.762 1.875a4.193 4.193 0 1 1-.938.362l-.76-1.875A6.2 6.2 0 1 0 12.23 9.6z" fill-opacity="0.99" fill="#000000"></path></svg>