<svg xmlns:xlink="http://www.w3.org/1999/xlink" xmlns="http://www.w3.org/2000/svg" fill="currentColor" fill-rule="evenodd" height="500" viewBox="0 0 24 24" width="500" fit="" preserveAspectRatio="xMidYMid meet" focusable="false"><path d="M19 15.443l-2.538-1.425v.578l-.36.212 2.33 1.307.568-.305zm-11.462-.847V14L5 15.423v.386l.552.29 2.333-1.31zm4.445-7.683l.442.242V4.783l-.417-.223-.467.25v2.347z" opacity=".5" fill-opacity="0.99" fill="#000000"></path><path d="M12.008 2L3 7v10l9.008 5L21 17V7l-8.992-5zm0 17.56l-6.456-3.454L5 15.81v-7.5l6.54-3.5.468-.25.417.223L19 8.31v7.5l-.57.305-6.422 3.445z" fill-opacity="0.99" fill="#000000"></path><path d="M12.425 7.155l-.442-.242-.442.244-3.39 1.88 3.88 2.127 3.84-2.126z" fill-opacity="0.99" fill="#000000"></path><path d="M7.538 10.005v4.59l.347.2 3.382 1.948v-4.59z" opacity=".8" fill-opacity="0.99" fill="#000000"></path><path d="M12.804 12.15v4.593l3.298-1.935.36-.212v-4.59z" opacity=".6" fill-opacity="0.99" fill="#000000"></path></svg>