<svg xmlns:xlink="http://www.w3.org/1999/xlink" xmlns="http://www.w3.org/2000/svg" data-name="Layer 1" viewBox="0 0 18 18" fit="" height="500" width="500" preserveAspectRatio="xMidYMid meet" focusable="false"><path d="M5.84 12.75H3l.74 1.14h2.55a8.38 8.38 0 0 1-.45-1.14zM4.94 11H2.86v1.14h2.33A9 9 0 0 1 4.94 11zM5 7.43H2.42v1.15h2.36A8.11 8.11 0 0 1 5 7.43zm.83-1.78H3.3v1.14h2.13a8.65 8.65 0 0 1 .4-1.14zm1.72-1.78H5.08L4.49 5h2.44a6.38 6.38 0 0 1 .62-1.13zM4.68 9.5v-.28H2.42v1.14h2.31a8.47 8.47 0 0 1-.05-.86zm9.59-7.76a2 2 0 0 0-2.65.8C10.89 3.47 12 6 12 6s2.56-.48 3.11-1.65a2 2 0 0 0-.84-2.61zm-1 2.53a.86.86 0 1 1 .86-.86.86.86 0 0 1-.83.86z" fill-opacity="0.54" fill="#000000"></path><path d="M9 16.51A7 7 0 1 1 14 4.6l-.52.51a6.27 6.27 0 1 0 .73.91l.61-.4A7 7 0 0 1 9 16.51z" fill-opacity="0.54" fill="#000000"></path></svg>