<svg xmlns:xlink="http://www.w3.org/1999/xlink" xmlns="http://www.w3.org/2000/svg" width="500" height="500" viewBox="0 0 18 18" fit="" preserveAspectRatio="xMidYMid meet" focusable="false"><path d="M13.967 16.464c.558 0 1.022-.46 1.022-1.025V4.25a2.007 2.007 0 0 0-2.01-2H5a1.998 1.998 0 0 0-2 2.002V15.44c0 .566.458 1.024 1.022 1.024H4.8l.46-1.492h7.51l.42 1.492h.777zM9.75 11.25h3.735v1.5H4.602v-1.5H8.25V9.655A3 3 0 0 1 9 3.75a3 3 0 0 1 .75 5.905v1.595zm-.75-3a1.5 1.5 0 1 0 0-3 1.5 1.5 0 0 0 0 3z" fill-rule="evenodd" fill-opacity="0.54" fill="#000000"></path></svg>