<svg xmlns:xlink="http://www.w3.org/1999/xlink" xmlns="http://www.w3.org/2000/svg" width="500" height="500" viewBox="0 0 18 18" fit="" preserveAspectRatio="xMidYMid meet" focusable="false"><path d="M9.24 0L2 3.27v4.91c0 4.54 3.09 8.79 7.24 9.82 4.15-1.03 7.24-5.28 7.24-9.82V3.27L9.24 0zm4.02 6.55c0-2.26-1.8-4.1-4.02-4.1-2.22 0-4.02 1.84-4.02 4.1 0 1.33.63 2.52 1.61 3.27v4.91l2.41-2.29 2.42 2.29V9.82c.97-.75 1.6-1.94 1.6-3.27zm-2.01 0c0-1.14-.9-2.05-2.01-2.05-1.11 0-2.01.91-2.01 2.05 0 1.13.9 2.04 2.01 2.04 1.11 0 2.01-.91 2.01-2.04z" fill-rule="evenodd" fill-opacity="0.54" fill="#000000"></path></svg>