<svg xmlns:xlink="http://www.w3.org/1999/xlink" xmlns="http://www.w3.org/2000/svg" width="500" height="500" viewBox="0 0 18 18" fit="" preserveAspectRatio="xMidYMid meet" focusable="false"><path d="M12.602 1.496a6.267 6.267 0 0 0-8.09 1.2 6.048 6.048 0 0 0-1.535 4.12 6.265 6.265 0 0 0 2.742 5.196l-.2.32-.65.18c-1.02 1.78-1.39 2.28-2.37 3.98l1.68.977c.974-1.72 1.35-2.22 2.364-3.99l-.186-.7.165-.29c3 1.41 6.585.25 8.186-2.66a6.296 6.296 0 0 0-2.12-8.34zm-2.22 9.53a4.35 4.35 0 0 1-5.323-3.06 4.348 4.348 0 0 1 3.05-5.33 4.345 4.345 0 0 1 5.33 3.04 4.356 4.356 0 0 1-3.07 5.332zm0 0" fill-opacity="0.54" fill="#000000"></path><path d="M6.707 9.12V8.064a.963.963 0 0 1 .39-.7 2.81 2.81 0 0 1 .97-.496 3.303 3.303 0 0 1 2.777.324 1.8 1.8 0 0 1 .273.22c.246.215.375.535.348.86v.875zm2.39-2.98c-.68 0-1.23-.55-1.23-1.234 0-.68.55-1.23 1.23-1.23.684 0 1.235.55 1.235 1.23 0 .68-.555 1.23-1.234 1.235zm0 0" fill-opacity="0.54" fill="#000000"></path></svg>