<svg xmlns:xlink="http://www.w3.org/1999/xlink" xmlns="http://www.w3.org/2000/svg" height="500" viewBox="0 0 18 18" width="500" fit="" preserveAspectRatio="xMidYMid meet" focusable="false"><path d="M8.3 1a7.3 7.3 0 0 1 6.515 4H15v.396A7.27 7.27 0 0 1 15.598 8H16v.79l1 .474v2.58c0 2.384-1.552 4.615-3.636 5.156-1.023-.265-1.917-.937-2.563-1.834a7.22 7.22 0 0 1-2.5.44A7.298 7.298 0 0 1 2.01 12H2a7.305 7.305 0 0 1-.967-3H1V8c.165-3.893 3.37-7 7.3-7zm1.43 11H6.423c.117.433.255.835.412 1.197.25.58.538 1.03.832 1.317.24.234.455.338.646.34h.02l.072-.006c.17-.026.36-.13.57-.334.27-.265.535-.667.77-1.183v1.04h.31a4.45 4.45 0 0 1-.216.31l-.01.2h.76a5.75 5.75 0 0 1-.87-2.8V12zm-4.14 0H2.885a6.557 6.557 0 0 0 3.88 2.675c-.485-.633-.89-1.56-1.173-2.674zM14 11h-1v1h-1v1h1v1h1v-1h1v-1h-1v-1zM9.727 9.264L10.285 9H5.983c.03.7.104 1.372.217 2h3.527V9.264zM5.173 9H1.78a6.51 6.51 0 0 0 .54 2h3.06c-.107-.627-.178-1.3-.207-2zm.146-3H2.16a6.525 6.525 0 0 0-.41 2h3.41a16.19 16.19 0 0 1 .157-2zm5.18 0H6.13a15.7 15.7 0 0 0-.164 2h4.697v-.097A15.518 15.518 0 0 0 10.507 6zm3.91 0h-3.13c.09.633.14 1.304.152 2h.96l.963-.455.97.455h.506a6.522 6.522 0 0 0-.41-2zM6.76 1.93l-.07.02A6.56 6.56 0 0 0 2.633 5h2.86c.287-1.29.73-2.36 1.27-3.07zm1.55-.177c-.19 0-.406.103-.65.34-.292.288-.58.737-.83 1.317A9.374 9.374 0 0 0 6.323 5h3.99a9.376 9.376 0 0 0-.51-1.59c-.25-.58-.54-1.03-.83-1.317-.24-.233-.452-.337-.643-.34h-.02zm1.528.185l.045.06c.52.706.94 1.75 1.214 3.002h2.842a6.56 6.56 0 0 0-4.1-3.062z" fill="#000000" fill-opacity="0.54"></path></svg>