<svg xmlns:xlink="http://www.w3.org/1999/xlink" xmlns="http://www.w3.org/2000/svg" fill-rule="evenodd" height="500" viewBox="0 0 18 18" width="500" fit="" preserveAspectRatio="xMidYMid meet" focusable="false"><path d="M9 2l6 2.545v3.82c0 3.534-2.557 6.83-6 7.635-3.443-.805-6-4.1-6-7.636v-3.82L9 2zM5 8.994h4V4L5 5.67v3.324h4V14c-2.007-.306-4-3-4-5.006zm8 0C13 11 11.007 13.694 9 14V8.994h4V5.67L9 4v4.994h4z" fill-opacity="0.54" fill="#000000"></path><path d="M9 10.5h1.686V12H9z" fill-opacity="0.54" fill="#000000"></path><path d="M8.25 9h1.5v4h-1.5z" fill-opacity="0.54" fill="#000000"></path><path d="M9 10a2.5 2.5 0 1 1 0-5 2.5 2.5 0 0 1 0 5zm0-1.5a1 1 0 1 0 0-2 1 1 0 0 0 0 2z" fill-opacity="0.54" fill="#000000"></path></svg>