<svg xmlns:xlink="http://www.w3.org/1999/xlink" xmlns="http://www.w3.org/2000/svg" width="500" height="500" viewBox="0 0 18 18" fit="" preserveAspectRatio="xMidYMid meet" focusable="false"><path d="M16.5 4.5v8.915h-2.972a.142.142 0 0 1-.14-.14v-.85a.14.14 0 0 1 .14-.142h1.84v-6.65h-1.84a.142.142 0 0 1-.14-.142v-.84a.14.14 0 0 1 .14-.14H16.5zm-11.768 0a.14.14 0 0 1 .14.142v.85a.142.142 0 0 1-.14.14h-2.1v6.65H4.72c.077 0 .14.064.14.143v.85a.142.142 0 0 1-.14.14H1.5V4.5h3.232zm8.338 2.9v1.093l.046.018 1.013-.35.2.62-1.02.35-.03.08.7.95-.53.39-.69-.94h-.06l-.69.946-.53-.39.69-.945-.02-.076-1.02-.35.21-.614 1 .36.05-.018V7.4h.643zm-7.673 0v1.082l.046.018 1.012-.354.21.61-1.022.344-.027.073.702.936-.53.38-.683-.94H5.04l-.683.93-.53-.38.694-.94-.01-.08-1.02-.35.21-.61 1.01.35.06-.02V7.4h.64zm3.82 0v1.082l.046.018 1.013-.354.21.61-1.022.344-.027.073.702.936-.53.38-.69-.94h-.06l-.69.93-.53-.38.69-.94-.02-.08-1.01-.33.21-.61 1 .35.05-.02V7.4h.65z" fill="#202124"></path></svg>