<svg xmlns:xlink="http://www.w3.org/1999/xlink" xmlns="http://www.w3.org/2000/svg" width="500" height="500" viewBox="0 0 18 18" fit="" preserveAspectRatio="xMidYMid meet" focusable="false"><path d="M14 9.333L16 8l1-.667-1-.666L9 2 2 6.667l-1 .666L2 8l2 1.333-2 1.334-1 .666L2 12l2 1.333 5 3.334 5-3.334L16 12l1-.667-1-.666-2-1.334zm-1-.666l-3.333-2.22V3.78L15 7.333l-2 1.334zM3 7.333L8.333 3.78v2.667L5 8.667 3 7.333zm6 8l-6-4L5 10l4 2.667L13 10l2 1.333-6 4z" fill-opacity="0.54" fill="#000000"></path></svg>