<svg xmlns:xlink="http://www.w3.org/1999/xlink" xmlns="http://www.w3.org/2000/svg" width="500" height="500" viewBox="0 0 18 18" fit="" preserveAspectRatio="xMidYMid meet" focusable="false"><path d="M9 15.255c.5 0 .905.39.905.873 0 .48-.405.872-.905.872s-.905-.39-.905-.872.405-.873.905-.873zm1.116-11.49c.133 0 .256.095.267.22l.212 1.382c.345.126.657.304.947.513l1.382-.523c.133-.042.278 0 .345.115l1.11 1.81a.26.26 0 0 1-.07.336l-1.18.87c.03.167.04.334.04.512s-.03.345-.05.513l1.19.87c.1.083.13.22.06.334l-1.12 1.81a.302.302 0 0 1-.35.116l-1.39-.523c-.28.21-.6.377-.935.513l-.21 1.382c-.02.125-.147.22-.28.22H7.88a.273.273 0 0 1-.276-.22l-.215-1.382a3.88 3.88 0 0 1-.95-.513l-1.39.523c-.14.042-.28 0-.35-.115l-1.11-1.81a.26.26 0 0 1 .06-.336l1.18-.87a3.847 3.847 0 0 1 0-1.025l-1.18-.87a.25.25 0 0 1-.067-.334L4.7 5.473a.302.302 0 0 1 .345-.116l1.38.523c.29-.21.613-.377.947-.513l.22-1.382c.02-.125.142-.22.276-.22zm-8.15 7.997a.923.923 0 0 1 1.23.34.856.856 0 0 1-.352 1.186.923.923 0 0 1-1.23-.34.856.856 0 0 1 .352-1.186zm12.838.34a.923.923 0 0 1 1.23-.34.856.856 0 0 1 .352 1.186.923.923 0 0 1-1.23.34.856.856 0 0 1-.352-1.186zM9 7.43c-.923 0-1.67.7-1.67 1.57 0 .87.747 1.57 1.67 1.57.926 0 1.673-.7 1.673-1.57 0-.87-.747-1.57-1.672-1.57zm6.156-2.718a.923.923 0 0 1 1.23.34.856.856 0 0 1-.352 1.186.923.923 0 0 1-1.23-.34.856.856 0 0 1 .352-1.186zm-13.542.34a.923.923 0 0 1 1.23-.34.856.856 0 0 1 .352 1.186.923.923 0 0 1-1.23.34.856.856 0 0 1-.352-1.186zM9 1c.5 0 .905.39.905.872S9.5 2.745 9 2.745s-.905-.39-.905-.873C8.095 1.392 8.5 1 9 1z" fill-opacity="0.54" fill="#000000"></path></svg>