<svg xmlns:xlink="http://www.w3.org/1999/xlink" xmlns="http://www.w3.org/2000/svg" width="500" height="500" viewBox="0 0 18 18" fit="" preserveAspectRatio="xMidYMid meet" focusable="false"><path d="M15.933 7.895c.077.483.102.97.074 1.457-.16 2.797-2.023 5.274-4.762 6.217a7.146 7.146 0 0 1-2.425.39l-.163.95a.08.08 0 0 1-.035.07.085.085 0 0 1-.08.01l-1.31-1.24-.02-.01.003-.01-.717-.68a.084.084 0 0 1-.027-.08.08.08 0 0 1 .06-.07l2.51-1.15a.093.093 0 0 1 .13-.005.09.09 0 0 1 .02.12l-.15.913a5.962 5.962 0 0 0 1.86-.33c2.285-.79 3.838-2.85 3.97-5.18a5.41 5.41 0 0 0-.03-.97l-.04-.24 1.16-.196zm-13.04 3.788a1.78 1.78 0 0 1 2.47.255 1.7 1.7 0 0 1-.26 2.424 1.78 1.78 0 0 1-2.47-.255 1.7 1.7 0 0 1 .26-2.424zm7.53-3.667c.56.77.376 1.858-.41 2.428-.785.57-1.875.41-2.435-.36s-.376-1.858.41-2.43c.784-.57 1.875-.408 2.434.362zm-2.098.104a1.16 1.16 0 0 0-.273 1.618 1.16 1.16 0 0 0 1.624.24 1.16 1.16 0 0 0 .272-1.617 1.16 1.16 0 0 0-1.623-.24zm1.222-7.113l2.042 1.93c.02.02.03.05.02.077a.08.08 0 0 1-.05.063L9.06 4.22a.093.093 0 0 1-.123.005.092.092 0 0 1-.022-.12l.137-.815a5.96 5.96 0 0 0-1.925.327c-2.65.913-4.277 3.535-3.93 6.223l.024.158-1.15.19C1.55 6.9 3.51 3.65 6.76 2.53a7.16 7.16 0 0 1 2.494-.39l.18-1.053a.08.08 0 0 1 .034-.072.085.085 0 0 1 .082-.008zm3.31 2.968a1.782 1.782 0 0 1 2.48.17 1.7 1.7 0 0 1-.174 2.432 1.782 1.782 0 0 1-2.48-.17 1.7 1.7 0 0 1 .174-2.432z" fill-opacity="0.54" fill="#000000"></path></svg>