<svg xmlns:xlink="http://www.w3.org/1999/xlink" width="500" height="500" viewBox="0 0 18 18" xmlns="http://www.w3.org/2000/svg" fit="" preserveAspectRatio="xMidYMid meet" focusable="false"><path fill-rule="evenodd" clip-rule="evenodd" d="M13 5C14.1046 5 15 5.89543 15 7V15C15 16.1046 14.1046 17 13 17H5C3.89543 17 3 16.1046 3 15V7C3 5.89543 3.89543 5 5 5H13ZM10.1667 14H7.83333V15.5H10.1667V14ZM9 6L8.82373 6.00443C7.24892 6.08402 6 7.22987 6 9C6 10.5371 8 11.8242 8 13H10C10 11.8242 12 10.5371 12 9C12 7.16431 10.6569 6 9 6ZM13 3C13.5128 3 13.9355 3.38604 13.9933 3.88338L14 4H4C4 3.44772 4.44772 3 5 3H13ZM12 1C12.5128 1 12.9355 1.38604 12.9933 1.88338L13 2H5C5 1.44772 5.44772 1 6 1H12Z" fill-opacity="0.54" fill="#000000"></path></svg>