<svg xmlns:xlink="http://www.w3.org/1999/xlink" width="500" height="500" viewBox="0 0 18 18" xmlns="http://www.w3.org/2000/svg" fit="" preserveAspectRatio="xMidYMid meet" focusable="false"><path fill-rule="evenodd" clip-rule="evenodd" d="M10.7561 14.5103V14.9493C10.7561 15.6767 10.1664 16.2664 9.43902 16.2664H8.56098C7.83358 16.2664 7.2439 15.6767 7.2439 14.9493V14.5103H10.7561ZM2.63604 2L3.56735 2.93131C2.17701 4.32165 1.31707 6.24238 1.31707 8.36396C1.31707 10.4855 2.17701 12.4063 3.56735 13.7966L2.63604 14.7279C1.00736 13.0992 0 10.8492 0 8.36396C0 5.87868 1.00736 3.62868 2.63604 2ZM18 8.36396C18 10.8488 16.993 13.0984 15.3648 14.7271L14.4335 13.7957C15.8233 12.4055 16.6829 10.4851 16.6829 8.36396C16.6829 6.24238 15.823 4.32165 14.4326 2.93131L15.364 2C16.9926 3.62868 18 5.87868 18 8.36396ZM9 4.85177C10.9397 4.85177 12.5122 6.39966 12.5122 8.36396C12.5122 10.0759 10.7561 11.3346 10.7561 12.2406V13.6323H7.2439V12.2406C7.2439 11.3346 5.4878 10.0759 5.4878 8.36396C5.4878 6.39966 7.06027 4.85177 9 4.85177ZM4.49866 3.86262L5.43041 4.79349C4.51651 5.70718 3.95122 6.96956 3.95122 8.36396C3.95122 9.75837 4.51651 11.0207 5.43041 11.9344L4.49866 12.8653C3.34667 11.7133 2.63415 10.1218 2.63415 8.36396C2.63415 6.60608 3.34667 5.01462 4.49866 3.86262ZM15.3659 8.36396C15.3659 10.1214 14.6537 11.7125 13.5022 12.8644L12.5705 11.9335C13.4839 11.0199 14.0488 9.75792 14.0488 8.36396C14.0488 6.97 13.4839 5.70799 12.5705 4.79437L13.5013 3.86262C14.6533 5.01462 15.3659 6.60608 15.3659 8.36396Z" fill-opacity="0.54" fill="#000000"></path></svg>