<svg xmlns:xlink="http://www.w3.org/1999/xlink" xmlns="http://www.w3.org/2000/svg" width="500" height="500" viewBox="0 0 18 18" fit="" preserveAspectRatio="xMidYMid meet" focusable="false"><path d="M10.03 2.415l4 2.401A2 2 0 0115 6.531v4.938a2 2 0 01-.97 1.715l-4 2.4a2 2 0 01-2.06 0l-4-2.4A2 2 0 013 11.469V6.531a2 2 0 01.97-1.715l4-2.4a2 2 0 012.06 0zm2.943 7.225a.638.638 0 00-.007.005l-3.89 2.281-3.908-2.282a.64.64 0 00-.879.236c-.16.28-.09.63.152.829l.086.06 4.54 2.663.14-.083 1.144-.671 3.255-1.909a.656.656 0 00.238-.89.638.638 0 00-.87-.239zm0-3.185a.638.638 0 00-.007.004L9.076 8.74 5.167 6.458a.64.64 0 00-.879.236c-.16.28-.09.63.152.83l.086.06 4.54 2.663.14-.083 1.144-.672 3.255-1.908a.656.656 0 00.238-.89.638.638 0 00-.87-.24z" fill-rule="evenodd" fill-opacity="0.54" fill="#000000"></path></svg>