<svg xmlns:xlink="http://www.w3.org/1999/xlink" xmlns="http://www.w3.org/2000/svg" width="500" height="500" viewBox="0 0 18 18" fit="" preserveAspectRatio="xMidYMid meet" focusable="false"><path d="M10.054 4.054C9.697 3.707 8.984 3 7.99 3H5.02C4.06 3 3 4.054 3 5.018v2.986c0 .945.71 1.722 1.06 2.056 1.06 1.01 5.38 5.38 5.38 5.38a1.5 1.5 0 0 0 2.12 0l3.88-3.88a1.5 1.5 0 0 0 0-2.12s-4.304-4.333-5.386-5.386zM6.5 8a1.5 1.5 0 1 1 0-3 1.5 1.5 0 0 1 0 3z" fill-rule="evenodd" fill-opacity="0.54" fill="#000000"></path></svg>