<svg xmlns:xlink="http://www.w3.org/1999/xlink" xmlns="http://www.w3.org/2000/svg" width="500" height="500" viewBox="0 0 18 18" fit="" preserveAspectRatio="xMidYMid meet" focusable="false"><path d="M6.84 14.86c0 .626.486 1.14 1.08 1.14h2.16c.594 0 1.08-.514 1.08-1.14V13H6.84v1.86zM4.5 6.63c0 1.04.333 2 .896 2.772.485.667.904.746.904 1.672 0 .51.403.926.9.926h3.6c.497 0 .9-.415.9-.926 0-.926.422-1.02.88-1.638a4.7 4.7 0 0 0 .92-2.806C13.5 4.073 11.485 2 9 2S4.5 4.073 4.5 6.63z" fill-rule="evenodd" fill-opacity="0.54" fill="#000000"></path></svg>