<svg xmlns:xlink="http://www.w3.org/1999/xlink" width="500" height="500" viewBox="0 0 18 18" xmlns="http://www.w3.org/2000/svg" fit="" preserveAspectRatio="xMidYMid meet" focusable="false"><path d="M8 13H9H10C10 11.8242 12 10.5371 12 9C12 7.16431 10.6569 6 9 6C7.34315 6 6 7.16431 6 9C6 10.5371 8 11.8242 8 13Z" fill-opacity="0.54" fill="#000000"></path><path d="M9 1.84586V0L12.1111 2.63694L9 5.27388V3.42802C5.99312 3.42802 3.55556 5.90727 3.55556 8.96559C3.55556 10.4947 4.16495 11.8791 5.1502 12.8812L4.05025 14C2.7835 12.7116 2 10.9316 2 8.96559C2 5.03347 5.13401 1.84586 9 1.84586ZM13.9497 3.93118C15.2165 5.2196 16 6.99953 16 8.96559C16 10.9316 15.2165 12.7116 13.9497 14L12.8498 12.8812C13.8351 11.8791 14.4444 10.4947 14.4444 8.96559C14.4444 7.43643 13.8351 6.05204 12.8498 5.04994L13.9497 3.93118Z" fill-opacity="0.54" fill="#000000"></path><rect x="8" y="14" width="2" height="1.5" fill-opacity="0.54" fill="#000000"></rect></svg>