<svg xmlns:xlink="http://www.w3.org/1999/xlink" xmlns="http://www.w3.org/2000/svg" fill="currentColor" fill-rule="evenodd" height="500" viewBox="0 0 24 24" width="500" fit="" preserveAspectRatio="xMidYMid meet" focusable="false"><path d="M3.76 20.48h16.72a.76.76 0 0 1 0 1.52H3.76v-1.52zM19.72 3v7.6a.76.76 0 0 0 1.52 0V4.52c0-.84-.68-1.52-1.52-1.52z" fill-opacity="0.99" fill="#000000"></path><path d="M19.72 3h-4.56a.76.76 0 1 0 0 1.52h4.56V3z" opacity=".596" fill-opacity="0.99" fill="#000000"></path><path d="M21.24 9.84h-6.08a.76.76 0 0 0 0 1.52h6.08V9.84zM3 9.84h6.08a.76.76 0 0 1 0 1.52H3V9.84z" fill-opacity="0.99" fill="#000000"></path><path d="M4.52 3v7.6a.76.76 0 0 1-1.52 0V4.52C3 3.68 3.68 3 4.52 3z" fill-opacity="0.99" fill="#000000"></path><path d="M4.52 3h4.56a.76.76 0 0 1 0 1.52H4.52V3z" opacity=".596" fill-opacity="0.99" fill="#000000"></path><path d="M19.53 12.88v8.265a.855.855 0 1 0 1.71 0V14.59a1.71 1.71 0 0 0-1.71-1.71z" fill-opacity="0.99" fill="#000000"></path><path d="M19.53 12.88h-4.3a.83.83 0 0 0 0 1.658h4.3V12.88z" opacity=".601" fill-opacity="0.99" fill="#000000"></path><path d="M4.71 12.88v8.265a.855.855 0 1 1-1.71 0V14.59c0-.944.766-1.71 1.71-1.71z" fill-opacity="0.99" fill="#000000"></path><path d="M4.71 12.88h4.3a.83.83 0 1 1 0 1.658h-4.3V12.88z" opacity=".596" fill-opacity="0.99" fill="#000000"></path><path d="M16.36 8.016h-3.344v3.344h-1.672V8.016H8V6.344h3.344V3h1.672v3.344h3.344zm-1.026 10.61a1.14 1.14 0 1 1 1.613-1.612 1.14 1.14 0 0 1-1.613 1.612m-4 0a1.14 1.14 0 1 1 1.613-1.612 1.14 1.14 0 0 1-1.613 1.612" fill-opacity="0.99" fill="#000000"></path><path d="M11.334 13.214a1.14 1.14 0 1 1 1.612 1.613 1.14 1.14 0 0 1-1.612-1.613z" opacity=".805" fill-opacity="0.99" fill="#000000"></path><path d="M7.334 18.626a1.14 1.14 0 1 1 1.613-1.612 1.14 1.14 0 0 1-1.613 1.612" fill-opacity="0.99" fill="#000000"></path></svg>