<svg xmlns:xlink="http://www.w3.org/1999/xlink" xmlns="http://www.w3.org/2000/svg" data-name="MAPS SECTION" viewBox="0 0 24 24" fit="" height="500" width="500" preserveAspectRatio="xMidYMid meet" focusable="false"><path d="M14.46.58A8.1 8.1 0 0 0 5.78 3.1l3.84 3.23z" fill="#1A73E8"></path><path d="M5.78 3.1a8.07 8.07 0 0 0-1.9 5.21 9 9 0 0 0 .81 3.87l4.93-5.85z" fill="#EA4335"></path><path d="M12 5.21a3.11 3.11 0 0 1 3.11 3.09 3.08 3.08 0 0 1-.74 2l4.83-5.73a8.15 8.15 0 0 0-4.74-4L9.62 6.33A3.09 3.09 0 0 1 12 5.21z" fill="#4285F4"></path><path d="M12 11.42a3.11 3.11 0 0 1-2.38-5.11l-4.93 5.87a28.3 28.3 0 0 0 3.68 5.27l6-7.13a3.09 3.09 0 0 1-2.37 1.1z" fill="#FBBC04"></path><path d="M14.26 19.4c2.71-4.24 5.86-6.16 5.86-11a8.14 8.14 0 0 0-.92-3.74L8.37 17.45c.46.6.92 1.25 1.37 1.95 1.66 2.6 1.2 4.07 2.26 4.07s.6-1.47 2.26-4.07z" fill="#34A853"></path></svg>