<svg xmlns:xlink="http://www.w3.org/1999/xlink" xmlns="http://www.w3.org/2000/svg" viewBox="0 0 18 18" fit="" height="500" width="500" preserveAspectRatio="xMidYMid meet" focusable="false"><path d="M16 9.124h-2a.66.66 0 00-.01-.14A5.044 5.044 0 009 4.024v-2.04a7.064 7.064 0 016.99 7 .66.66 0 01.01.14z" fill-opacity="0.54" fill="#000000"></path><path fill-rule="evenodd" d="M9.345 12.343V9.17L12 7.57v3.263l-2.655 1.51zm-.67 0V9.17L6 7.57v3.263l2.675 1.51zM6.442 7.105l2.555 1.491 2.602-1.417-2.601-1.522-2.556 1.448z" fill-opacity="0.54" fill="#000000"></path><path d="M16 9.124a.66.66 0 00-.01-.14h-2a.651.651 0 01.01.139 5.078 5.078 0 01-4.044 5l.935 1.866A7.124 7.124 0 0016 9.125zM9 4.026V1.987a7.138 7.138 0 00-3.559 13.242l-.488.911 3.579-.421L6.9 12.512l-.494.924A5.089 5.089 0 019 4.026z" fill-opacity="0.54" fill="#000000"></path></svg>