<svg xmlns:xlink="http://www.w3.org/1999/xlink" xmlns="http://www.w3.org/2000/svg" viewBox="0 0 18 18" fit="" height="500" width="500" preserveAspectRatio="xMidYMid meet" focusable="false"><path d="M4.32 6.5v2.91A6.13 6.13 0 009 15.24V4.32zM9 15.24l.49-.14a6.12 6.12 0 004.19-5.69V6.5L9 4.32zm4.35-12.11h-.22l.62-.73-.43-.36-1.25 1.5 1.46 1.24.37-.43-.75-.64h.2a2 2 0 012 2 2 2 0 01-.22.89l.41.42.06-.1a2.54 2.54 0 00-2.23-3.75zM4.25 13.3l-.46.33.57.8a1.25 1.25 0 01-.19 0A2 2 0 012.74 12a1.82 1.82 0 01.43-.81l-.3-.51-.08.08a2.58 2.58 0 00-.6 1.1A2.54 2.54 0 004 14.94h.21l-.78.55.33.46 1.58-1.12z" fill-opacity="0.54" fill="#000000"></path></svg>