<svg xmlns:xlink="http://www.w3.org/1999/xlink" xmlns="http://www.w3.org/2000/svg" width="500" height="500" viewBox="0 0 18 18" fit="" preserveAspectRatio="xMidYMid meet" focusable="false"><path d="M9.354 2.25l6.577 11.343.57.98-8.69.002a3.304 3.304 0 0 1-3 1.925 3.296 3.296 0 0 1-3.31-3.288 3.296 3.296 0 0 1 3.41-3.287L9.36 2.25zM4.75 11.43l-.5.498 1.058 1.054H2.923v.708h2.39L4.25 14.746l.5.498 1.917-1.906L4.75 11.43zm4.604.456l-1.332.59a3.286 3.286 0 0 1 .073.996h4.84l-3.58-1.586zm0-3.287l-2.256 2.24c.19.18.357.38.5.61l1.756-.78 3.76 1.66-3.76-3.74zm0-4.15l-3.31 5.71.12.05 3.19-3.18 3.55 3.54-3.55-6.13z" fill-opacity="0.54" fill="#000000"></path></svg>