<svg xmlns:xlink="http://www.w3.org/1999/xlink" xmlns="http://www.w3.org/2000/svg" fill-rule="evenodd" height="500" viewBox="0 0 24 24" width="500" fit="" preserveAspectRatio="xMidYMid meet" focusable="false"><g transform="translate(2 2)" fill-opacity="0.99" fill="#000000"><path fill="none" stroke="#000000" stroke-opacity="0.8" d="M16 14.96l-2.41.07a1 1 0 01-.89-.488L10 10M4 5.09l2.41-.072a1 1 0 01.89.488l2.7 4.542" fill-opacity="0.99"></path><path fill="none" stroke="#000000" stroke-opacity="0.8" d="M4 15h2.434a1 1 0 00.857-.486L10 10l2.71-4.514A1 1 0 0113.565 5H16M2.5 10h16" fill-opacity="0.99"></path><circle cx="16" cy="15" r="2" fill="#000000" fill-rule="nonzero" fill-opacity="0.99"></circle><circle cx="18" cy="10" r="2" fill="#000000" fill-rule="nonzero" fill-opacity="0.99"></circle><circle cx="4" cy="15" r="2" fill="#000000" fill-rule="nonzero" fill-opacity="0.99"></circle><circle cx="2" cy="10" r="2" fill="#000000" fill-rule="nonzero" fill-opacity="0.99"></circle><circle cx="4" cy="5" r="2" fill="#000000" fill-rule="nonzero" fill-opacity="0.99"></circle><circle cx="16" cy="5" r="2" fill="#000000" fill-rule="nonzero" fill-opacity="0.99"></circle><circle cx="10" cy="18" r="2" fill="#000000" fill-rule="nonzero" fill-opacity="0.99"></circle><circle cx="10" cy="2" r="2" fill="#000000" fill-rule="nonzero" fill-opacity="0.99"></circle><path fill="#000000" d="M8.054 6h3.892a1 1 0 01.848.47l1.875 3a1 1 0 010 1.06l-1.88 3a1 1 0 01-.85.47H8.05a1 1 0 01-.85-.47l-1.873-3a1 1 0 010-1.06l1.876-3a1 1 0 01.85-.47z" fill-opacity="0.99"></path></g></svg>