<svg xmlns:xlink="http://www.w3.org/1999/xlink" xmlns="http://www.w3.org/2000/svg" width="500" height="500" viewBox="0 0 18 18" fit="" preserveAspectRatio="xMidYMid meet" focusable="false"><path d="M16.997 7.27L17 4a1 1 0 0 0-1-1H2c-.552 0-1 .456-1 1.002v3.266a2 2 0 0 1 0 3.464v3.266A1 1 0 0 0 2 15h13.992c.553 0 1-.456 1-1.002l.003-3.268a2 2 0 0 1 .002-3.46zM6 9a2 2 0 1 0 0-4 2 2 0 0 0 0 4zm0-1a1 1 0 1 0 0-2 1 1 0 0 0 0 2zm6 5a2 2 0 1 0 0-4 2 2 0 0 0 0 4zm0-1a1 1 0 1 0 0-2 1 1 0 0 0 0 2zm-1.225-7l.866.5-4.37 7.578-.86-.5L10.78 5z" fill-rule="evenodd" fill-opacity="0.54" fill="#000000"></path></svg>