<svg xmlns:xlink="http://www.w3.org/1999/xlink" xmlns="http://www.w3.org/2000/svg" width="500" height="500" viewBox="0 0 18 18" fit="" preserveAspectRatio="xMidYMid meet" focusable="false"><path d="M13.998 16A1.01 1.01 0 0 0 15 14.993V4.007C15 3 13.998 2 12.998 2H5.002C4.002 2 3 3 3 4.007v10.986C3 15.55 3.45 16 4.002 16H5.5l.5-1h6l.5 1h1.498zM5 4h8v9H5V4zm1 5.5a.5.5 0 0 1 .49-.5h5.02a.5.5 0 0 1 0 1H6.49A.5.5 0 0 1 6 9.5zM8 5h2v2H8V5zm-2 6.5a.5.5 0 0 1 .49-.5h5.02a.5.5 0 0 1 0 1H6.49a.5.5 0 0 1-.49-.5z" fill-rule="evenodd" fill-opacity="0.54" fill="#000000"></path></svg>