<svg xmlns:xlink="http://www.w3.org/1999/xlink" xmlns="http://www.w3.org/2000/svg" width="500" height="500" viewBox="0 0 18 18" fit="" preserveAspectRatio="xMidYMid meet" focusable="false"><path d="M7.642 1.5c.135 0 .248.094.278.22l.007.066V3.25h1.537V1.785c0-.135.094-.248.22-.278L9.75 1.5h.466c.135 0 .248.094.277.22l.008.066V3.25h1.54V1.785a.29.29 0 0 1 .22-.278l.07-.008h.47c.14 0 .25.09.28.22l.01.06v1.47h1.37a.32.32 0 0 1 .31.24l.01.07v1.37h1.46a.29.29 0 0 1 .28.22l.01.06v.46a.29.29 0 0 1-.22.28h-1.52V7.5h1.455a.29.29 0 0 1 .28.22l.01.066v.467a.287.287 0 0 1-.22.276l-.066.01h-1.46v1.54h1.455a.29.29 0 0 1 .276.22l.01.07v.47a.287.287 0 0 1-.22.28l-.066.01h-1.46v1.36a.32.32 0 0 1-.246.31l-.072.01h-1.37v1.46a.29.29 0 0 1-.22.28l-.067.01h-.47a.287.287 0 0 1-.28-.22l-.01-.07V12.8H10.5v1.466c0 .135-.093.25-.22.28l-.064.006H9.75a.287.287 0 0 1-.278-.23l-.008-.064V12.8h-.76l.002.036c0 1.953-1.51 3.55-3.412 3.65l-.19.005c-1.99 0-3.604-1.63-3.604-3.65s1.613-3.66 3.603-3.66h.104v-.64H3.75a.286.286 0 0 1-.276-.22l-.008-.06V7.8c0-.135.094-.25.22-.278l.065-.01h1.46V5.97H3.75a.287.287 0 0 1-.276-.22l-.008-.065v-.468c0-.135.094-.248.22-.278l.065-.01h1.46V3.57a.32.32 0 0 1 .25-.31l.08-.01H6.9V1.787c0-.135.094-.248.22-.278l.066-.01h.466zm-2.595 9.368l-.546.553 1.16 1.18h-2.6v.79h2.6L4.5 14.56l.548.552 2.09-2.12-2.09-2.12zm8.638-6.548H6.28v5.074a3.64 3.64 0 0 1 2.257 2.344h5.147V4.32zm-2.207 1.892a.32.32 0 0 1 .31.246l.01.073v3a.32.32 0 0 1-.247.31l-.07.01H8.49a.32.32 0 0 1-.31-.24l-.01-.07v-3a.32.32 0 0 1 .245-.31l.073-.01h2.99z" fill-rule="evenodd" fill-opacity="0.54" fill="#000000"></path></svg>