<svg xmlns:xlink="http://www.w3.org/1999/xlink" xmlns="http://www.w3.org/2000/svg" width="500" height="500" viewBox="0 0 18 18" fit="" preserveAspectRatio="xMidYMid meet" focusable="false"><path d="M12.975 2.075h-7.95C4.05 2.075 3 3.05 3 4.1v11.1c0 .6.45 1.05 1.05 1.05h1.5l.45-1.5h6l.45 1.5h1.5c.525 0 1.05-.45 1.05-1.05V4.1c0-1.05-1.05-2.025-2.025-2.025zM9 5c.825 0 1.5.675 1.5 1.5S9.825 8 9 8s-1.5-.675-1.5-1.5S8.175 5 9 5zm3.75 6.75h-7.5V11c0-1.2 2.475-1.875 3.75-1.875s3.75.6 3.75 1.875v.75z" fill-opacity="0.54" fill="#000000"></path></svg>