<svg xmlns:xlink="http://www.w3.org/1999/xlink" xmlns="http://www.w3.org/2000/svg" viewBox="0 0 24 24" fit="" height="500" width="500" preserveAspectRatio="xMidYMid meet" focusable="false"><path fill="#000000" opacity=".6" d="M21.74 12.89l-4.12 4.13-1.06-1.07 2.32-2.31h-7.62v-1.5h7.62l-2.32-2.32 1.06-1.06 4.12 4.13z" fill-opacity="0.99"></path><path d="M11.77 4.76v1.5A4.69 4.69 0 007.4 10l-.13.51-.52.05a3.19 3.19 0 00-3 3 2.83 2.83 0 000 .41L2.52 15a4.1 4.1 0 01-.28-1.48 4.61 4.61 0 013.85-4.38 6.12 6.12 0 015.68-4.38z" fill="#000000" fill-opacity="0.99"></path><path fill="#000000" opacity=".6" d="M14.01 17.45H6.38l2.32 2.32-1.06 1.06-4.13-4.13 4.13-4.13 1.06 1.07-2.32 2.31h7.63v1.5z" fill-opacity="0.99"></path><path d="M16.63 7.49l-1.1 1a4.45 4.45 0 00-3.76-2.27V4.76a5.88 5.88 0 014.86 2.73z" fill="#000000" opacity=".8" fill-opacity="0.99"></path></svg>