<svg xmlns:xlink="http://www.w3.org/1999/xlink" xmlns="http://www.w3.org/2000/svg" fill="currentColor" fill-rule="evenodd" height="500" viewBox="0 0 24 24" width="500" fit="" preserveAspectRatio="xMidYMid meet" focusable="false"><path d="M7 3h2v2H7zM3 7h2v2H3z" opacity=".8" fill-opacity="0.99" fill="#000000"></path><path d="M19 7h2v2h-2z" opacity=".6" fill-opacity="0.99" fill="#000000"></path><path d="M3 11h2v2H3z" opacity=".8" fill-opacity="0.99" fill="#000000"></path><path d="M19 11h2v2h-2z" opacity=".6" fill-opacity="0.99" fill="#000000"></path><path d="M3 15h2v2H3z" opacity=".8" fill-opacity="0.99" fill="#000000"></path><path d="M19 15h2v2h-2zM7 19h2v2H7z" opacity=".6" fill-opacity="0.99" fill="#000000"></path><path d="M11 3h2v2h-2z" opacity=".8" fill-opacity="0.99" fill="#000000"></path><path d="M11 19h2v2h-2z" opacity=".6" fill-opacity="0.99" fill="#000000"></path><path d="M15 3h2v2h-2z" opacity=".8" fill-opacity="0.99" fill="#000000"></path><path d="M15 19h2v2h-2z" opacity=".6" fill-opacity="0.99" fill="#000000"></path><path d="M5 19h14V5H5v14zm12-2H7V7h10v10z" fill-opacity="0.99" fill="#000000"></path><path d="M15 9H9v6l3-3z" fill-opacity="0.99" fill="#000000"></path><path d="M12 12l-3 3h6z" opacity=".8" fill-opacity="0.99" fill="#000000"></path><path d="M15 15V9l-3 3z" opacity=".6" fill-opacity="0.99" fill="#000000"></path></svg>