<svg xmlns:xlink="http://www.w3.org/1999/xlink" xmlns="http://www.w3.org/2000/svg" width="500" height="500" viewBox="0 0 24 24" fit="" preserveAspectRatio="xMidYMid meet" focusable="false"><path fill="#691CC2" d="M0 0h24v24H0z"></path><path d="M1.5 12.84c0-1.613 1.078-2.73 2.617-2.73 1.043 0 1.883.519 2.219 1.328a.503.503 0 01.055.234c0 .18-.145.305-.325.305-.14 0-.261-.082-.32-.247-.262-.652-.863-1.027-1.621-1.027-1.156 0-1.957.875-1.957 2.137s.793 2.129 1.957 2.129c.758 0 1.328-.367 1.629-1.133.059-.149.164-.246.312-.246.18 0 .325.144.325.324a.598.598 0 01-.04.215c-.32.879-1.16 1.434-2.226 1.434-1.547 0-2.617-1.118-2.617-2.731zm8.738 2.281c0 .223-.12.367-.34.367-.214 0-.32-.144-.32-.367V8.797c0-.23.121-.367.336-.367.219 0 .324.136.324.367v1.441h1.14c.2 0 .321.114.321.293 0 .18-.12.293-.32.293h-1.14zm5.098-4.523c0 .18-.133.316-.32.316a.532.532 0 01-.25-.078 1.139 1.139 0 00-.532-.11c-.703 0-1.16.614-1.16 1.387v3.008c0 .23-.113.367-.324.367-.21 0-.336-.136-.336-.367V10.56c0-.23.117-.368.336-.368.219 0 .324.137.324.368v.136c.285-.375.735-.578 1.227-.578.39 0 .66.082.855.203.114.075.172.164.172.285zm.676-.047c0-.23.12-.367.34-.367.214 0 .32.136.32.367v4.562c0 .223-.121.367-.336.367-.219 0-.324-.144-.324-.367zm-8.461 0c0-.23.12-.367.34-.367.218 0 .32.136.32.367v4.562c0 .223-.117.367-.336.367-.219 0-.324-.144-.324-.367zm.847-1.598c0 .29-.23.52-.515.52a.518.518 0 11.516-.52zm11.715 4.293l-1.797 2.106a.35.35 0 01-.265.136.31.31 0 01-.313-.308c0-.075.024-.149.09-.23l1.883-2.134-1.816-2.078c-.075-.082-.114-.148-.114-.246 0-.164.137-.308.324-.308.106 0 .172.039.254.136l1.754 2.055 1.758-2.055c.082-.09.149-.136.254-.136a.31.31 0 01.324.308c0 .09-.039.164-.113.246l-1.816 2.078 1.882 2.133c.075.082.09.164.09.23a.311.311 0 01-.316.31.306.306 0 01-.262-.137zm.52-4.293a.517.517 0 11-1.035 0c0-.285.23-.515.515-.515.29 0 .52.23.52.515zm0 0" fill="#FFFFFF"></path></svg>