<svg xmlns:xlink="http://www.w3.org/1999/xlink" xmlns="http://www.w3.org/2000/svg" height="500" viewBox="0 0 24 24" width="500" fit="" preserveAspectRatio="xMidYMid meet" focusable="false"><g transform="translate(1 1)" fill-opacity="0.99" fill="#000000"><circle cx="11" cy="11" fill="#026EC4" r="11" fill-opacity="0.99"></circle><path d="M12.83 16.215H9.636c-.283 0-.533-.174-.533-.428 0-.253.25-.427.533-.427h3.192c.283 0 .533.174.533.427 0 .254-.25.428-.53.428zm-2.413-10.91c.663 0 1.27.23 1.776.653a2.432 2.432 0 0 1 2.91 1.77 2.543 2.543 0 0 1 1.348 2.255c0 1.41-1.13 2.557-2.53 2.557H8.09c-1.4 0-2.534-1.146-2.534-2.557a2.54 2.54 0 0 1 2.07-2.505 2.9 2.9 0 0 1 2.794-2.174zm3.47 6.13h.03c.797 0 1.432-.643 1.432-1.45 0-.627-.37-1.164-.93-1.368a.552.552 0 0 1-.36-.456A1.325 1.325 0 0 0 12.75 7c-.18 0-.38.032-.5.078a.55.55 0 0 1-.597-.13 1.65 1.65 0 0 0-1.236-.537 1.8 1.8 0 0 0-1.784 1.62.552.552 0 0 1-.55.51A1.43 1.43 0 0 0 6.65 9.99c0 .81.64 1.45 1.44 1.45l5.1.066.7-.065zm.06.632l-.03.002h.015l.014-.01zm.7-4.047a.08.08 0 0 1 .05.052.262.262 0 0 0-.004-.034 2.03 2.03 0 0 0-.045-.018zm.05.052h-.002zM12.02 6.485a.085.085 0 0 1 .09.022 2.745 2.745 0 0 0-.038-.04 1.305 1.305 0 0 0-.05.018zM8 7.97a.083.083 0 0 1 .084-.073c-.025 0-.05 0-.075.002a2.452 2.452 0 0 0-.01.07zm-.124 6.112c0-.253.25-.427.533-.427h5.64c.28 0 .53.174.53.427 0 .254-.25.428-.54.428H8.4c-.282 0-.53-.174-.53-.428z" fill="#FFFFFF" opacity=".6" fill-opacity="0.99"></path></g></svg>