<svg xmlns:xlink="http://www.w3.org/1999/xlink" xmlns="http://www.w3.org/2000/svg" height="500" viewBox="0 0 24 24" width="500" fit="" preserveAspectRatio="xMidYMid meet" focusable="false"><path d="M22.585 17.523V13.45l-.45-.254-10.168 5.78-9.659-5.483v-2.367l9.66 5.432 10.617-5.977V6.564l-.516-.29-10.102 5.744L2.773 6.79l9.194-5.185 7.473 4.22.567-.313V5.04L11.967.5 1.35 6.484v.603l10.617 5.977 9.66-5.44v2.39l-9.66 5.49L1.8 9.724l-.45.246v4.082l10.617 5.97 9.66-5.433v2.375l-9.66 5.49-10.174-5.78-.443.246v.603L11.967 23.5l10.618-5.977z" fill="#FF3621" stroke="#FF3621" stroke-linecap="round" stroke-linejoin="round" stroke-width="0.2px"></path></svg>