<svg xmlns:xlink="http://www.w3.org/1999/xlink" xmlns="http://www.w3.org/2000/svg" fill-rule="evenodd" height="500" viewBox="0 0 24 24" width="500" fit="" preserveAspectRatio="xMidYMid meet" focusable="false"><path d="M23.727 12.523a4.62 4.62 0 0 0-3.056-4.357c.09-.415.13-.83.13-1.262A6.64 6.64 0 0 0 14.16.27a6.62 6.62 0 0 0-5.37 2.754 3.51 3.51 0 0 0-2.155-.738 3.526 3.526 0 0 0-3.3 4.748 4.68 4.68 0 0 0-3.08 4.374 4.624 4.624 0 0 0 3.07 4.37c-.08.41-.122.833-.122 1.26 0 3.65 2.97 6.618 6.62 6.618a6.59 6.59 0 0 0 5.37-2.763 3.488 3.488 0 0 0 2.157.752 3.524 3.524 0 0 0 3.3-4.748 4.68 4.68 0 0 0 3.08-4.373" fill="#FFFFFF"></path><path d="M9.482 10.343l5.136 2.34 5.183-4.54a5.8 5.8 0 0 0-5.68-6.933 5.79 5.79 0 0 0-4.78 2.52L8.48 8.2l1.002 2.143z" fill="#FFD00A"></path><path d="M4.164 15.782a5.817 5.817 0 0 0 5.697 6.966 5.8 5.8 0 0 0 4.81-2.545l.86-4.457-1.14-2.18-5.16-2.352-5.05 4.568z" fill="#20B9AF"></path><path d="M4.132 6.893l3.52.83.77-4.002a2.777 2.777 0 0 0-4.46 2.21c.002.34.058.67.17.97" fill="#EE5096"></path><path d="M3.827 7.73a3.92 3.92 0 0 0-2.667 3.69c0 1.614 1 3.057 2.498 3.627l4.938-4.464-.906-1.936-3.863-.913z" fill="#12A5DF"></path><path d="M15.565 20.204a2.76 2.76 0 0 0 1.677.573 2.776 2.776 0 0 0 2.773-2.773 2.78 2.78 0 0 0-.168-.966l-3.517-.823-.765 3.99z" fill="#90C640"></path><path d="M16.28 15.293l3.872.906a3.918 3.918 0 0 0 2.668-3.69 3.876 3.876 0 0 0-2.504-3.62l-5.064 4.43 1.028 1.96z" fill="#05799F"></path></svg>