<svg xmlns="http://www.w3.org/2000/svg" width="500" height="500" viewBox="0 0 24 24" xmlns:xlink="http://www.w3.org/1999/xlink" fit="" preserveAspectRatio="xMidYMid meet" focusable="false"><defs><path id="logos-24-alpha-confluent-cloud-confluent-a" d="M.253.064h.715V2.09H.253z"></path><path id="logos-24-alpha-confluent-cloud-confluent-c" d="M.076.256h3.467v9.732H.076z"></path><path id="logos-24-alpha-confluent-cloud-confluent-e" d="M.02.514h.677v.697H.02z"></path><path id="logos-24-alpha-confluent-cloud-confluent-g" d="M.246.514h.45v.697h-.45z"></path><path id="logos-24-alpha-confluent-cloud-confluent-a" d="M.253.064h.715V2.09H.253z"></path><path id="logos-24-alpha-confluent-cloud-confluent-c" d="M.076.256h3.467v9.732H.076z"></path><path id="logos-24-alpha-confluent-cloud-confluent-e" d="M.02.514h.677v.697H.02z"></path><path id="logos-24-alpha-confluent-cloud-confluent-g" d="M.246.514h.45v.697h-.45z"></path></defs><g fill="none" fill-rule="evenodd"><path d="M3.27 17.553c-.297 0-.538.206-.538.46 0 .252.24.458.538.458.297 0 .537-.2.537-.45s-.24-.46-.537-.46m0 1.11c-.398 0-.722-.29-.722-.64 0-.35.324-.64.722-.64.398 0 .72.29.72.65 0 .36-.323.65-.72.65m-1.548-.01c-.398 0-.722-.29-.722-.64 0-.35.324-.64.722-.64.2 0 .393.08.536.22a.09.09 0 0 1 .007.13.09.09 0 0 1-.13.01H2.13a.584.584 0 0 0-.41-.16c-.3 0-.54.21-.54.46s.24.46.54.46a.58.58 0 0 0 .4-.16.092.092 0 0 1 .13 0 .09.09 0 0 1 0 .13h-.01a.76.76 0 0 1-.54.21m2.72.02a.092.092 0 0 1-.09-.09v-1.16l.07-.01c.02-.01.64-.15.96.06.21.14.21.34.2.99v.11a.09.09 0 0 1-.09.09.09.09 0 0 1-.1-.09l.01-.11c.01-.63.008-.75-.12-.83-.184-.12-.56-.09-.75-.05v1c0 .05-.04.09-.09.09" fill="#FF671D"></path><g transform="translate(5.88 16.592)" fill="none"><mask id="logos-24-alpha-confluent-cloud-confluent-b" fill="#FFFFFF"><use xlink:href="#logos-24-alpha-confluent-cloud-confluent-a" fill="#FFFFFF"></use></mask><path d="M.965.132A.092.092 0 0 0 .853.067c-.025.007-.6.17-.6.592v1.33a.09.09 0 0 0 .085.09.09.09 0 0 0 .094-.1v-.84c0-.07.017-.11.048-.14A.29.29 0 0 1 .657.97H.67C.72.97.763.93.764.88a.09.09 0 0 0-.09-.09H.666a.484.484 0 0 0-.234.038v-.17C.432.38.892.248.9.245A.09.09 0 0 0 .964.132" fill="#FF671D" mask="url('/alloydb/clusters?_ga=2.114827205.397855459.1666710557-378415075.1659841894&amp;project=aicignaw-alien#logos-24-alpha-confluent-cloud-confluent-b')"></path></g><path d="M7.375 18.682a.092.092 0 0 1-.092-.092v-1.627c0-.05.04-.092.092-.092.05 0 .092.05.092.1v1.63c0 .05-.04.1-.092.1m1.345-.04c-.168 0-.35-.02-.482-.11-.226-.14-.224-.32-.216-1.06a.092.092 0 0 1 .184 0v.01c-.008.72-.004.82.132.91.184.12.54.08.73.04v-.95a.092.092 0 0 1 .184 0v1.09l-.07.02a2.11 2.11 0 0 1-.462.06m2.933.04a.093.093 0 0 1-.092-.09v-1.16l.08-.01c.03 0 .65-.15.97.06.22.14.22.34.21.99v.11a.09.09 0 1 1-.18 0v-.11c.01-.63.01-.75-.12-.84-.18-.12-.55-.08-.75-.05v1.01a.09.09 0 0 1-.09.09m-1.09-.03c-.25 0-.51-.05-.68-.19a.53.53 0 0 1-.18-.43.61.61 0 0 1 .24-.51c.22-.16.54-.17.76-.1.39.12.44.48.41.66l-.01.08h-.91a.093.093 0 0 1-.09-.1.092.092 0 0 1 .09-.08h.74a.37.37 0 0 0-.28-.37c-.17-.05-.43-.05-.59.08-.11.08-.16.21-.16.37 0 .12.04.22.12.29.23.2.77.14.99.11a.092.092 0 0 1 .03.18 2.95 2.95 0 0 1-.45.04m3.36-.18c-.39 0-.44-.11-.44-.23v-.5c0-.07.02-.12.05-.15a.19.19 0 0 1 .15-.05h.01c.05 0 .09-.04.09-.09a.092.092 0 0 0-.09-.09.39.39 0 0 0-.2.04v-.21a.092.092 0 0 0-.18 0v1.04c0 .42.47.42.63.42a.092.092 0 0 0 0-.18z" fill="#FF671D"></path><path d="M22.064 17.555c-.152 0-.374.04-.474.263-.08.18-.03.446.177.557.248.133.65.088.814.062v-.5c0-.306-.35-.367-.39-.372a.728.728 0 0 0-.12-.01zm.174 1.094a1.22 1.22 0 0 1-.557-.12.623.623 0 0 1-.25-.8.602.602 0 0 1 .39-.34.957.957 0 0 1 .41-.03.76.76 0 0 1 .37.16v-.58a.093.093 0 0 1 .1-.09c.05 0 .09.04.09.08v1.62l-.07.01a2.3 2.3 0 0 1-.45.04z" fill="#FF671B"></path><path d="M16.153 18.655c-.398 0-.722-.29-.722-.644 0-.35.33-.64.73-.64.2 0 .4.08.54.22a.092.092 0 0 1 .01.13.09.09 0 0 1-.13.01.582.582 0 0 0-.4-.16c-.3 0-.54.21-.54.46s.24.46.54.46a.58.58 0 0 0 .41-.16.092.092 0 1 1 .13.13v.01a.762.762 0 0 1-.53.22m1.16.02a.093.093 0 0 1-.09-.09v-1.63a.093.093 0 0 1 .1-.08c.05.01.09.04.09.09v1.62c0 .05-.04.1-.09.1m1.25-1.13c-.29 0-.53.21-.53.46s.24.46.53.46c.29 0 .53-.2.53-.45s-.24-.46-.54-.46m0 1.1c-.4 0-.72-.29-.72-.65 0-.36.32-.65.72-.65.4 0 .72.29.72.65 0 .36-.32.65-.72.65m1.84-.01c-.17 0-.35-.02-.48-.11-.23-.14-.22-.32-.22-1.06v-.01a.09.09 0 0 1 .1-.09.09.09 0 0 1 .1.1c-.01.72 0 .82.14.91.18.12.54.08.73.04v-.95a.092.092 0 0 1 .18 0v1.09l-.07.02a2.11 2.11 0 0 1-.46.06" fill="#FF671D"></path><path d="M5.68 12.036a1.738 1.738 0 0 1-1.733 1.733 1.74 1.74 0 0 1-1.734-1.74 1.74 1.74 0 0 1 1.734-1.73 1.74 1.74 0 0 1 1.733 1.73" fill="#4597CB"></path><path d="M9.642 12.83a1.738 1.738 0 0 1-1.733 1.73 1.74 1.74 0 0 1-1.74-1.73V10.6a1.74 1.74 0 0 1 1.74-1.734A1.74 1.74 0 0 1 9.64 10.6v2.23z" fill="#36B0C9"></path><g transform="translate(10.06 5.44)" fill="none"><mask id="logos-24-alpha-confluent-cloud-confluent-d" fill="#FFFFFF"><use xlink:href="#logos-24-alpha-confluent-cloud-confluent-c" fill="#FFFFFF"></use></mask><path d="M3.543 8.254A1.74 1.74 0 0 1 1.81 9.988 1.74 1.74 0 0 1 .077 8.254V1.99A1.74 1.74 0 0 1 1.81.255 1.74 1.74 0 0 1 3.544 1.99v6.264z" fill="#FF671D" mask="url('/alloydb/clusters?_ga=2.114827205.397855459.1666710557-378415075.1659841894&amp;project=aicignaw-alien#logos-24-alpha-confluent-cloud-confluent-d')"></path></g><path d="M17.566 12.83a1.738 1.738 0 0 1-1.734 1.73 1.74 1.74 0 0 1-1.733-1.73V7.875a1.74 1.74 0 0 1 1.73-1.733 1.74 1.74 0 0 1 1.73 1.733v4.953z" fill="#36B0C9"></path><path d="M21.528 12.036a1.738 1.738 0 0 1-1.734 1.733 1.74 1.74 0 0 1-1.733-1.74 1.74 1.74 0 0 1 1.74-1.73 1.74 1.74 0 0 1 1.74 1.73" fill="#4597CB"></path><g transform="translate(22.606 15.895)" fill="none"><mask id="logos-24-alpha-confluent-cloud-confluent-f" fill="#FFFFFF"><use xlink:href="#logos-24-alpha-confluent-cloud-confluent-e" fill="#FFFFFF"></use></mask><path fill="#FF671F" mask="url('/alloydb/clusters?_ga=2.114827205.397855459.1666710557-378415075.1659841894&amp;project=aicignaw-alien#logos-24-alpha-confluent-cloud-confluent-f')" d="M.452.77H.378v.2h-.02v-.2H.286V.757H.45z"></path></g><g transform="translate(22.606 15.895)" fill="none"><mask id="logos-24-alpha-confluent-cloud-confluent-h" fill="#FFFFFF"><use xlink:href="#logos-24-alpha-confluent-cloud-confluent-g" fill="#FFFFFF"></use></mask><path fill="#FF671F" mask="url('/alloydb/clusters?_ga=2.114827205.397855459.1666710557-378415075.1659841894&amp;project=aicignaw-alien#logos-24-alpha-confluent-cloud-confluent-h')" d="M.514.754l.08.19.08-.19h.023V.97H.68V.78L.6.967H.588L.508.78.51.876V.97H.49V.756z"></path></g></g></svg>