<svg xmlns:xlink="http://www.w3.org/1999/xlink" xmlns="http://www.w3.org/2000/svg" width="500" height="500" viewBox="0 0 24 24" fit="" preserveAspectRatio="xMidYMid meet" focusable="false"><defs><linearGradient x1="43.301%" y1="-.629%" x2="43.301%" y2="44.67%" id="logos-24-alpha-mongodb-cloud-mongodb-atlas-a"><stop stop-color="#13AA52" stop-opacity="0" offset="0%"></stop><stop stop-color="#116149" stop-opacity=".2" offset="100%"></stop></linearGradient></defs><g fill="none"><path d="M16.773 9.757c-1.16-5.114-3.898-6.795-4.192-7.438-.32-.46-.64-1.26-.64-1.26a.51.51 0 0 0-.02-.06c-.03.45-.05.62-.48 1.08-.66.52-4.06 3.37-4.34 9.18-.26 5.42 3.92 8.65 4.48 9.06l.07.04c.16-.37.33-1.43.44-2.88.03 1.17.19 2.42.77 2.69l.04-.03a7.22 7.22 0 0 0 .72-.59c1.42-1.3 4.09-4.53 3.18-9.82z" fill="#13AA52"></path><path d="M12.068 17.495c-.114 1.45-.278 2.505-.44 2.876 0 0 .178 1.28.302 2.63h.442a26 26 0 0 1 .467-2.81c-.58-.26-.75-1.52-.78-2.68z" fill="#ABABAB"></path><path d="M16.773 9.757c-1.16-5.114-3.898-6.795-4.192-7.438-.32-.46-.64-1.26-.64-1.26.28 1.07.23 9.62.26 10.64.06 1.93.02 3.86-.12 5.79.03 1.17.2 2.42.78 2.69l.04-.03a6.89 6.89 0 0 0 .72-.59l.03-.03c1.39-1.28 4.06-4.51 3.15-9.79z" fill="#13AA52"></path><path d="M9.773 8.757C8.613 3.643 5.875 1.962 5.58 1.32 5.258.865 4.933.06 4.933.06c.273 1.072.227 9.624.258 10.646.06 1.93.02 3.863-.12 5.79.03 1.168.2 2.423.78 2.69l.04-.025a6.89 6.89 0 0 0 .72-.58l.03-.02c1.39-1.28 4.06-4.5 3.16-9.79z" fill="url(&quot;https://console.cloud.google.com/alloydb/clusters?_ga=2.114827205.397855459.1666710557-378415075.1659841894&amp;project=aicignaw-alien#logos-24-alpha-mongodb-cloud-mongodb-atlas-a&quot;)" transform="translate(7 1)"></path></g></svg>