<svg xmlns:xlink="http://www.w3.org/1999/xlink" xmlns="http://www.w3.org/2000/svg" height="500" width="500" viewBox="0 0 24 24" fit="" preserveAspectRatio="xMidYMid meet" focusable="false"><path d="M15.9 1.35C11.48 1.35 8.48 4 8.48 9v3.6a3.1 3.1 0 011.42-.3 4 4 0 011.43.3V9c0-3.3 1.79-4.95 4.57-4.95s4.58 1.65 4.58 5v7.88h2.92V9c-.07-5.1-3.07-7.65-7.5-7.65z" fill="#000000"></path><path d="M9.75 13.12a2.81 2.81 0 00-1.5.53l-2.7-1.87a2.25 2.25 0 00.07-.68 2.49 2.49 0 00-2.47-2.47 2.48 2.48 0 100 4.95 2.81 2.81 0 001.5-.53L7.35 15a1.93 1.93 0 00-.08.67 2 2 0 00.08.68l-2.7 1.87a2.59 2.59 0 00-1.5-.52 2.48 2.48 0 000 4.95 2.5 2.5 0 002.47-2.48 2.19 2.19 0 00-.07-.67l2.7-1.88a2.6 2.6 0 001.5.53 2.5 2.5 0 002.47-2.48 2.57 2.57 0 00-2.47-2.55z" fill="#018BFF"></path></svg>