<svg xmlns:xlink="http://www.w3.org/1999/xlink" xmlns="http://www.w3.org/2000/svg" height="500" viewBox="0 0 24 24" width="500" fit="" preserveAspectRatio="xMidYMid meet" focusable="false"><path d="M22.138 17.09c-1.174.616-7.256 3.13-8.55 3.807-1.296.678-2.015.672-3.038.18-1.023-.49-7.495-3.118-8.66-3.678-.584-.28-.89-.52-.89-.74v-2.24s8.426-1.85 9.786-2.34c1.36-.49 1.833-.51 2.99-.08 1.158.42 8.08 1.68 9.224 2.1v2.2c0 .22-.264.46-.862.77" fill="#912626"></path><path d="M22.138 14.87c-1.174.614-7.256 3.127-8.55 3.805-1.296.68-2.015.672-3.038.18-1.023-.49-7.495-3.118-8.66-3.678-1.166-.56-1.19-.945-.046-1.396 1.146-.45 7.582-2.98 8.943-3.47 1.36-.49 1.832-.51 2.99-.08 1.157.43 7.202 2.85 8.346 3.27 1.145.42 1.19.77.015 1.39" fill="#C6302B"></path><path d="M22.138 13.475c-1.174.615-7.256 3.128-8.55 3.806-1.296.68-2.015.68-3.038.19-1.023-.49-7.495-3.12-8.66-3.68-.584-.28-.89-.51-.89-.74v-2.24s8.426-1.84 9.786-2.33c1.36-.49 1.833-.5 2.99-.08 1.158.43 8.08 1.68 9.224 2.1v2.2c0 .22-.264.47-.862.78" fill="#912626"></path><path d="M22.138 11.253c-1.174.615-7.256 3.128-8.55 3.807-1.296.678-2.015.67-3.038.18-1.023-.49-7.495-3.12-8.66-3.68-1.166-.56-1.19-.944-.046-1.395 1.146-.45 7.582-2.99 8.943-3.48 1.36-.49 1.832-.507 2.99-.08 1.157.425 7.202 2.843 8.346 3.264 1.145.42 1.19.76.015 1.38" fill="#C6302B"></path><path d="M22.138 9.725c-1.174.614-7.256 3.128-8.55 3.806-1.296.68-2.015.68-3.038.19-1.023-.49-7.495-3.12-8.66-3.68C1.306 9.76 1 9.52 1 9.3V7.06s8.426-1.845 9.786-2.335c1.36-.49 1.833-.508 2.99-.082 1.158.426 8.08 1.68 9.224 2.102V8.95c0 .22-.264.462-.862.775" fill="#912626"></path><path d="M22.138 7.503c-1.174.615-7.256 3.128-8.55 3.806-1.296.67-2.015.67-3.038.18C9.527 11 3.055 8.37 1.89 7.81.723 7.25.7 6.867 1.843 6.416c1.146-.45 7.582-2.988 8.943-3.48 1.36-.49 1.832-.507 2.99-.08 1.157.425 7.202 2.844 8.346 3.265 1.145.42 1.19.77.015 1.39" fill="#C6302B"></path><path d="M14.688 5.33l-1.89.196-.425 1.024-.683-1.142-2.185-.198 1.63-.59-.49-.907 1.527.6 1.438-.473-.388.937 1.466.552m-2.428 4.96L8.73 8.82l5.06-.78-1.53 2.25M7.37 5.898c1.494 0 2.704.472 2.704 1.053 0 .59-1.21 1.06-2.703 1.06-1.49 0-2.7-.47-2.7-1.05 0-.58 1.21-1.05 2.71-1.05" fill="#FFFFFF"></path><path d="M16.924 5.61l2.994 1.188-2.992 1.188-.002-2.377" fill="#621B1C"></path><path d="M13.612 6.926l3.312-1.317.002 2.37-.324.12-2.99-1.19" fill="#9A2928"></path></svg>