<svg xmlns:xlink="http://www.w3.org/1999/xlink" xmlns="http://www.w3.org/2000/svg" width="500" height="500" fill="none">
  <path d="M477.03 212.45c-1.98-3.42-5.21-3.42-7.2 0-1.97 3.42-.35 6.22 3.6 6.22 3.96 0 5.57-2.8 3.6-6.22zm-17.78 98.8a1.9 1.9 0 0 0 3.6 0c.98-1.71.17-3.11-1.8-3.11-1.98 0-2.79 1.4-1.8 3.11zM71.1 329.93a1.9 1.9 0 0 0-3.6 0c-.99 1.7-.18 3.1 1.8 3.1s2.79-1.4 1.8-3.1zM211.26 473.1a1.9 1.9 0 0 0-3.6 0c-.98 1.71-.17 3.11 1.8 3.11 1.98 0 2.8-1.4 1.8-3.11z" fill="#DADCE0"/>
  <path d="M295.72 49.8c7.9-13.7 20.85-13.7 28.75 0 7.91 13.7 1.44 24.9-14.37 24.9-15.81 0-22.28-11.2-14.38-24.9z" fill="#FBBC04"/>
  <path d="M47.74 180.53c7.9-13.7 20.84-13.7 28.75 0 7.9 13.69 1.44 24.9-14.38 24.9-15.81 0-22.28-11.21-14.37-24.9z" fill="#4285F4"/>
  <path d="M428.7 311.25c-15.81 27.39-41.69 27.39-57.5 0-15.82-27.39-2.88-49.8 28.75-49.8s44.56 22.41 28.75 49.8z" fill="#EA4335"/>
  <path d="M280.71 440.46c-3.95-6.85-10.42-6.85-14.37 0-3.96 6.85-.72 12.45 7.19 12.45 7.9 0 11.14-5.6 7.18-12.45z" fill="#34A853"/>
  <path d="M438.78 155.63a1.02 1.02 0 0 1 1.72-.72.99.99 0 0 1 .29.72.98.98 0 0 1-.6.92.99.99 0 0 1-.38.08h-.02a1.03 1.03 0 0 1-1-1zm-7.75-5.04a1.01 1.01 0 0 1 .32-1.4 1.03 1.03 0 0 1 1.39.33 1.02 1.02 0 0 1-.87 1.54 1 1 0 0 1-.84-.47zm16.13.28a1 1 0 0 1-.33-1.39 1 1 0 0 1 1.82.28c.07.26.03.54-.1.77a1.05 1.05 0 0 1-.87.48.98.98 0 0 1-.52-.14zm-19.86-10.02a.99.99 0 0 1 .76-1.19 1.01 1.01 0 0 1 1.2.76 1 1 0 0 1-.76 1.19.96.96 0 0 1-.22.04 1 1 0 0 1-.98-.8zm23.75.72a1.01 1.01 0 0 1-.33-1.84 1 1 0 0 1 .75-.13 1.01 1.01 0 0 1 .79 1.18 1.02 1.02 0 0 1-.99.8l-.22-.01zm-24.84-10.99a.98.98 0 0 1 .3-.7.99.99 0 0 1 .7-.3 1 1 0 0 1 .94.62 1 1 0 0 1 .07.38 1 1 0 0 1-1.71.71 1 1 0 0 1-.3-.7zm25.1-.06v-.12a.98.98 0 0 1 .3-.7.98.98 0 0 1 .7-.3 1 1 0 0 1 1.01 1v.12a1 1 0 0 1-1.39.94 1 1 0 0 1-.62-.94zm-23.27-9.01a1 1 0 0 1-.77-.8.99.99 0 0 1 0-.39 1 1 0 0 1 .43-.64.98.98 0 0 1 .76-.14 1 1 0 0 1-.42 1.97zm22.23-.95a1.01 1.01 0 0 1 1.15-1.2 1 1 0 0 1 .66 1.52 1.01 1.01 0 0 1-.85.47.98.98 0 0 1-.96-.79zm-18.98-8.61a1 1 0 0 1-.46-.61.98.98 0 0 1 .12-.76 1.01 1.01 0 0 1 1.84.28c.07.26.02.54-.11.77a1.05 1.05 0 0 1-.87.48 1 1 0 0 1-.52-.16zm15.48-.48h-.02a1.02 1.02 0 0 1 .35-1.39 1 1 0 0 1 1.04 1.7 1 1 0 0 1-.52.17 1 1 0 0 1-.85-.48zm-8.1-6.03a1 1 0 0 1 .6-.94 1 1 0 1 1 .4 1.93 1.02 1.02 0 0 1-1-.99zM98.84 461.35a.88.88 0 0 1-.4-.08 1 1 0 0 1-.6-.92c0-.26.1-.51.27-.7a1.03 1.03 0 0 1 1.43 0c.1.09.17.2.22.32.05.12.07.25.08.38a1 1 0 0 1-.3.7.94.94 0 0 1-.7.3zm-4.14 6.15a.99.99 0 0 1-.36-1.37 1 1 0 0 1 .6-.47 1 1 0 0 1 1.23.7c.07.26.04.54-.08.78a1.06 1.06 0 0 1-1.39.36zm-3.11 6.4a.81.81 0 0 1-.38-.08.93.93 0 0 1-.35-.22.87.87 0 0 1-.2-.32.95.95 0 0 1 0-.76.89.89 0 0 1 .2-.32 1.03 1.03 0 0 1 1.43 0c.1.09.17.2.22.32.06.12.09.25.08.38a1.03 1.03 0 0 1-1 1zm14.48-25.1a.98.98 0 0 1-.7-.3 1.02 1.02 0 0 1 0-1.4c.08-.1.2-.18.31-.22a1 1 0 0 1 1.24.35 1 1 0 0 1-.13 1.27c-.09.1-.2.18-.32.22a.9.9 0 0 1-.4.08zm-4.48-6.79a.99.99 0 0 1-.1-.75 1 1 0 0 1 1.83-.23.98.98 0 0 1-.07 1.1.83.83 0 0 1-.3.26 1.1 1.1 0 0 1-.5.13 1 1 0 0 1-.86-.5zm-2.75-5.76a.9.9 0 0 1-.4-.08 1 1 0 0 1-.52-1.3.88.88 0 0 1 .2-.32 1.03 1.03 0 0 1 1.42 0 1 1 0 0 1 .3.7.94.94 0 0 1-.3.7 1 1 0 0 1-.7.3zm-7.25 12.55a1.01 1.01 0 0 1-.72-.3 1.02 1.02 0 0 1 0-1.4.9.9 0 0 1 .34-.22 1 1 0 0 1 1.08.22.97.97 0 0 1 0 1.4 1 1 0 0 1-.7.3zm6.24-1a.99.99 0 0 1 1-1 1 1 0 0 1 1.01 1 1.01 1.01 0 0 1-1.72.71.98.98 0 0 1-.29-.71zm4.12 7.15a1 1 0 0 1-.49-1 .99.99 0 0 1 .13-.37.99.99 0 0 1 1-.5 1 1 0 0 1 .72 1.49 1 1 0 0 1-.86.5c-.17 0-.34-.05-.5-.12zM77.09 423.7a.81.81 0 0 1-.38-.08.85.85 0 0 1-.32-.22.96.96 0 0 1-.23-1.08 1.03 1.03 0 0 1 1.65-.32 1.02 1.02 0 0 1 0 1.4c-.1.1-.21.17-.34.22a.81.81 0 0 1-.38.08zm6.24-1a.99.99 0 0 1 1-1 .98.98 0 0 1 .94.61 1 1 0 0 1 .07.39.99.99 0 0 1-.62.93 1 1 0 0 1-.38.07 1 1 0 0 1-.93-.62.99.99 0 0 1-.08-.38zm8.26 1a.9.9 0 0 1-.7-.3.93.93 0 0 1-.3-.7.83.83 0 0 1 .07-.38.72.72 0 0 1 .23-.32.7.7 0 0 1 .32-.23 1 1 0 0 1 .76 0 .7.7 0 0 1 .32.23.94.94 0 0 1 .3.7c0 .13-.02.26-.08.38a.7.7 0 0 1-.22.32.94.94 0 0 1-.7.3zm-4.14 6.15a1.03 1.03 0 0 1-.36-1.39 1.02 1.02 0 0 1 1.66-.1 1 1 0 0 1 .09 1.1 1.03 1.03 0 0 1-.89.5c-.17 0-.34-.04-.5-.11zm-3.11 6.4a1.04 1.04 0 0 1-1-1 .73.73 0 0 1 .08-.38.72.72 0 0 1 .22-.32.7.7 0 0 1 .32-.23 1 1 0 0 1 1.08.23.98.98 0 0 1 0 1.4c-.08.1-.2.18-.32.22a.81.81 0 0 1-.38.08zm10-6.79a1 1 0 0 1 .36-1.36 1 1 0 0 1 1.47 1.13 1 1 0 0 1-.47.62 1.1 1.1 0 0 1-.5.12 1 1 0 0 1-.86-.5zm-31.73-5.76a.95.95 0 0 1-.72-.3 1 1 0 0 1-.28-.7c0-.13.02-.26.06-.38a1.02 1.02 0 0 1 1.33-.54c.12.04.23.12.31.21.2.2.3.44.3.7 0 .14-.03.27-.07.39a.9.9 0 0 1-.23.32.96.96 0 0 1-.7.3zm6.23-1a1 1 0 0 1 1.93-.39c.05.12.08.25.07.39a.99.99 0 0 1-.61.93 1 1 0 0 1-1.39-.93zm1 13.55a.94.94 0 0 1-.7-.3 1 1 0 0 1-.3-.7 1 1 0 0 1 .08-.38.93.93 0 0 1 .22-.32.9.9 0 0 1 .32-.23c.25-.1.53-.1.78 0 .13.05.24.13.32.22a.89.89 0 0 1 .28.71 1 1 0 0 1-.28.7c-.09.1-.2.18-.34.22a.81.81 0 0 1-.38.08zm-4.48-6.79a1 1 0 0 1 .07-1.1 1 1 0 0 1 1.05-.36 1.01 1.01 0 0 1 .25 1.85c-.16.07-.33.12-.5.12a1 1 0 0 1-.87-.5zm14.86 12.94a1.04 1.04 0 0 1-.38-1.39 1.03 1.03 0 0 1 1.39-.36 1.04 1.04 0 0 1 .36 1.39 1.04 1.04 0 0 1-1.37.36zm-3.13 6.4a.81.81 0 0 1-.38-.08.85.85 0 0 1-.32-.22.93.93 0 0 1-.3-.7 1.02 1.02 0 0 1 1.72-.7 1.01 1.01 0 0 1 0 1.4c-.1.1-.21.17-.34.22a.8.8 0 0 1-.38.08zm6.24-1a.99.99 0 0 1 .62-.93 1 1 0 0 1 .39-.08 1 1 0 0 1 .71 1.72.99.99 0 0 1-.71.3.98.98 0 0 1-.93-.63.99.99 0 0 1-.08-.38zm-10.73-5.76a1.04 1.04 0 0 1 .37-1.39 1 1 0 0 1 1 1.75 1.07 1.07 0 0 1-1.39-.36zm11.74 19.31a.8.8 0 0 1-.38-.08.73.73 0 0 1-.32-.22.71.71 0 0 1-.22-.32.8.8 0 0 1-.09-.38c0-.13.03-.26.09-.38a.72.72 0 0 1 .22-.32 1 1 0 0 1 1.4 0c.1.08.18.2.22.32.06.12.08.25.08.38a.94.94 0 0 1-.3.7c-.08.1-.2.18-.32.22a.8.8 0 0 1-.38.08zm-4.5-6.76a1.04 1.04 0 0 1 .38-1.39 1 1 0 0 1 1.37.38 1.01 1.01 0 0 1-.36 1.37c-.16.07-.33.12-.5.12a1 1 0 0 1-.89-.48zm7.25 12.55a1.02 1.02 0 0 1 .36-1.39 1.02 1.02 0 0 1 1.39.38 1 1 0 0 1-.38 1.37 1.03 1.03 0 0 1-1-.01c-.15-.09-.28-.2-.37-.35zM98.4 48.7a.88.88 0 0 1-.39-.08.71.71 0 0 1-.32-.23.94.94 0 0 1-.3-.7.8.8 0 0 1 .08-.38 1 1 0 0 1 1.63-.32c.1.08.18.2.22.32.06.12.08.25.08.38a1.03 1.03 0 0 1-1 1zm2.75 5.78a1.04 1.04 0 0 1 .36-1.39 1.03 1.03 0 0 1 1.38.36 1.03 1.03 0 0 1-.36 1.4c-.16.08-.34.12-.52.13a1 1 0 0 1-.86-.5zm4.49 6.77a.82.82 0 0 1-.38-.08.9.9 0 0 1-.34-.23 1.1 1.1 0 0 1-.28-.7c0-.13.02-.26.08-.38a.89.89 0 0 1 .54-.54.99.99 0 0 1 1.09.22c.1.09.17.2.22.32a.95.95 0 0 1 0 .76.91.91 0 0 1-.22.32.9.9 0 0 1-.32.23.88.88 0 0 1-.39.08zm-14.49 0a.94.94 0 0 1-.7-.3.9.9 0 0 1-.23-.33 1.3 1.3 0 0 1-.08-.38 1 1 0 0 1 .08-.38.92.92 0 0 1 .22-.32.98.98 0 0 1 1.09-.22c.24.1.43.3.54.54a.8.8 0 0 1 .08.38c0 .13-.02.26-.08.38a.7.7 0 0 1-.22.32.94.94 0 0 1-.7.3zm3.13-6.41a1.02 1.02 0 0 1-.38-1.39 1.03 1.03 0 0 1 1.38-.36 1 1 0 0 1 .36 1.37.97.97 0 0 1-1.36.38zm3.12 5.4a1 1 0 0 1 1-1 1 1 0 0 1 1 1 1 1 0 0 1-1 1 1 1 0 0 1-1-1zM93.9 67a1.02 1.02 0 0 1 .38-1.36 1 1 0 0 1 1.46 1.14.99.99 0 0 1-.46.6.98.98 0 0 1-.5.15 1.05 1.05 0 0 1-.88-.52zm4.5 6.8a1.03 1.03 0 0 1-1-1 .85.85 0 0 1 .07-.39.72.72 0 0 1 .22-.32 1 1 0 0 1 1.4 0c.11.08.19.2.23.32.05.12.08.25.08.38s-.02.26-.08.38a.7.7 0 0 1-.22.32.93.93 0 0 1-.7.3zm3.13-6.4a.98.98 0 0 1-.39-1.37 1.02 1.02 0 0 1 .6-.48 1 1 0 0 1 1.07.35 1 1 0 0 1-.3 1.49.97.97 0 0 1-.5.14.9.9 0 0 1-.48-.14zM249 385.95a40.7 40.7 0 0 1-40.56-40.56A40.7 40.7 0 0 1 249 304.82a40.7 40.7 0 0 1 40.56 40.57A40.7 40.7 0 0 1 249 385.95zm0-77.11a36.68 36.68 0 0 0-36.55 36.55A36.68 36.68 0 0 0 249 381.93a36.68 36.68 0 0 0 36.55-36.54A36.68 36.68 0 0 0 249 308.84zm77.1 38.56a21.43 21.43 0 0 1-21.28-21.29 21.43 21.43 0 0 1 21.29-21.29 21.43 21.43 0 0 1 21.28 21.29 21.43 21.43 0 0 1-21.28 21.28zm0-38.56a17.4 17.4 0 0 0-17.26 17.27 17.4 17.4 0 0 0 17.27 17.27 17.4 17.4 0 0 0 17.27-17.27 17.4 17.4 0 0 0-17.27-17.27zM171.9 347.4a21.43 21.43 0 0 1-21.28-21.29 21.43 21.43 0 0 1 21.28-21.29 21.43 21.43 0 0 1 21.29 21.29 21.43 21.43 0 0 1-21.29 21.28zm0-38.56a17.4 17.4 0 0 0-17.27 17.27 17.4 17.4 0 0 0 17.27 17.27 17.4 17.4 0 0 0 17.27-17.27 17.4 17.4 0 0 0-17.27-17.27zm173.5-19.28A40.7 40.7 0 0 1 304.82 249a40.7 40.7 0 0 1 40.57-40.56A40.7 40.7 0 0 1 385.95 249a40.7 40.7 0 0 1-40.56 40.56zm0-77.1A36.68 36.68 0 0 0 308.84 249a36.68 36.68 0 0 0 36.55 36.55A36.68 36.68 0 0 0 381.93 249a36.68 36.68 0 0 0-36.54-36.55zm-192.78 77.1A40.7 40.7 0 0 1 112.05 249a40.7 40.7 0 0 1 40.56-40.56A40.7 40.7 0 0 1 193.18 249a40.7 40.7 0 0 1-40.57 40.56zm0-77.1A36.68 36.68 0 0 0 116.07 249a36.68 36.68 0 0 0 36.54 36.55A36.68 36.68 0 0 0 189.16 249a36.68 36.68 0 0 0-36.55-36.55zM249 279.91A30.94 30.94 0 0 1 218.08 249 30.94 30.94 0 0 1 249 218.08 30.94 30.94 0 0 1 279.92 249 30.94 30.94 0 0 1 249 279.92zm0-57.83a26.9 26.9 0 1 0 0 53.82 26.9 26.9 0 0 0 0-53.82zm77.1-28.91a21.43 21.43 0 0 1-21.28-21.29 21.43 21.43 0 0 1 21.29-21.28 21.43 21.43 0 0 1 21.28 21.28 21.43 21.43 0 0 1-21.28 21.29zm0-38.56a17.4 17.4 0 0 0-17.26 17.27 17.4 17.4 0 0 0 17.27 17.27 17.4 17.4 0 0 0 17.27-17.27 17.4 17.4 0 0 0-17.27-17.27zM249 193.18a40.7 40.7 0 0 1-40.56-40.57A40.7 40.7 0 0 1 249 112.05a40.7 40.7 0 0 1 40.56 40.56A40.7 40.7 0 0 1 249 193.18zm0-77.11a36.68 36.68 0 0 0-36.55 36.54A36.68 36.68 0 0 0 249 189.16a36.68 36.68 0 0 0 36.55-36.55A36.68 36.68 0 0 0 249 116.07zm-77.11 77.1a21.43 21.43 0 0 1-21.28-21.28 21.43 21.43 0 0 1 21.28-21.28 21.43 21.43 0 0 1 21.29 21.28 21.43 21.43 0 0 1-21.29 21.29zm0-38.55a17.4 17.4 0 0 0-17.27 17.27 17.4 17.4 0 0 0 17.27 17.27 17.4 17.4 0 0 0 17.27-17.27 17.4 17.4 0 0 0-17.27-17.27z" fill="#202124"/>
</svg>