<svg xmlns:xlink="http://www.w3.org/1999/xlink" xmlns="http://www.w3.org/2000/svg" data-name="Artwork" viewBox="0 0 32 32" fit="" height="500" width="500" preserveAspectRatio="xMidYMid meet" focusable="false"><path fill="#80868B" d="M6.995 12.908v8.05l2 1.001v-8.033l-2-1.018z"></path><path fill="#9AA0A6" d="M7.033 10.687l2.727 1.384 6.224-3.079 6.225 3.079 2.727-1.384-8.941-4.426-8.962 4.426z"></path><path fill="#9AA0A6" d="M20.988 15.547v-2.024l-4.993-2.494-5.007 2.51v1.985l5.007 2.505 4.993-2.482z"></path><path fill="#80868B" d="M24.995 12.908v8.05l-2 1.001v-8.033l2-1.018zm-4 4.834l-5.011 2.489-4.989-2.489v2.236l5 2.5 5-2.493v-2.243z"></path><path fill="#5F6368" d="M5.212 9.762L16 4.368l10.772 5.386 2.216-1.128L16 2.132l-13 6.5v.003l2.212 1.127zM27 11.894v10.238l-11 5.5-11-5.5V11.909L3 10.89v12.478l13 6.5 13-6.5V10.874l-2 1.02z"></path></svg>