<svg xmlns:xlink="http://www.w3.org/1999/xlink" xmlns="http://www.w3.org/2000/svg" fill="currentColor" fill-rule="evenodd" height="500" viewBox="0 0 24 24" width="500" fit="" preserveAspectRatio="xMidYMid meet" focusable="false"><path d="M1 19.31l5 2.887V19.74l-3-1.73-2-1.154zM6 4.26V1.804L1 4.69v2.468l2-1.16zm9 .99L12 3.5 9 5.25 12 7z" fill-opacity="0.99" fill="#000000"></path><path d="M9 5.25v3.5l3 1.75V7z" opacity=".8" fill-opacity="0.99" fill="#000000"></path><path d="M12 7v3.5l3-1.75v-3.5z" opacity=".6" fill-opacity="0.99" fill="#000000"></path><path d="M11 12.75L8 11l-3 1.75 3 1.75z" fill-opacity="0.99" fill="#000000"></path><path d="M5 12.75v3.5L8 18v-3.5z" opacity=".8" fill-opacity="0.99" fill="#000000"></path><path d="M8 14.5V18l3-1.75v-3.5z" opacity=".6" fill-opacity="0.99" fill="#000000"></path><path d="M19 12.75L16 11l-3 1.75 3 1.75z" fill-opacity="0.99" fill="#000000"></path><path d="M13 12.75v3.5L16 18v-3.5z" opacity=".8" fill-opacity="0.99" fill="#000000"></path><path d="M16 14.5V18l3-1.75v-3.5z" opacity=".6" fill-opacity="0.99" fill="#000000"></path><path d="M3 6.707v10.73l-2-.58V7.16z" opacity=".8" fill-opacity="0.99" fill="#000000"></path><path d="M3 6v.706l-2 .452zm0 11.438v.572l-2-1.154z" opacity=".6" fill-opacity="0.99" fill="#000000"></path><path d="M23 19.31l-5 2.887V19.74l3-1.73 2-1.154zM18 4.26V1.804l5 2.887v2.47L21 6z" fill-opacity="0.99" fill="#000000"></path><path d="M21 6.707v10.73l2-.58V7.16z" opacity=".8" fill-opacity="0.99" fill="#000000"></path><path d="M21 6v.706l2 .452zm0 11.438v.572l2-1.154z" opacity=".6" fill-opacity="0.99" fill="#000000"></path></svg>