<svg xmlns:xlink="http://www.w3.org/1999/xlink" xmlns="http://www.w3.org/2000/svg" fill="currentColor" fill-rule="evenodd" height="500" viewBox="0 0 24 24" width="500" fit="" preserveAspectRatio="xMidYMid meet" focusable="false"><path d="M3.417 12.047L2.1 14.31l1.486 2.644H6.19l-2.768-4.918zm17.24-.042l1.317-2.264-1.49-2.64h-2.602l2.768 4.92zm-11.493.135c0-1.56 1.316-2.826 2.938-2.826a3 3 0 0 1 1.294.3l1.957-3.597-.01-.017h-6.48l-3.66 6 3.645 5.978 1.835-3.375c-.902-.483-1.52-1.398-1.52-2.462z" fill-opacity="0.99" fill="#000000"></path><path d="M15.342 18l3.66-6-3.65-5.983-1.956 3.598c.97.46 1.644 1.414 1.644 2.526 0 1.57-1.315 2.83-2.938 2.83a2.98 2.98 0 0 1-1.418-.36l-1.836 3.37.014.02h6.48z" opacity=".8" fill-opacity="0.99" fill="#000000"></path><path d="M20.656 12.005l-2.774 4.95h2.603l2.775-4.95-1.276-2.283zm-17.24.042l2.775-4.95h-2.6l-2.77 4.95 1.27 2.283z" fill-opacity="0.99" fill="#000000"></path></svg>