<svg xmlns:xlink="http://www.w3.org/1999/xlink" xmlns="http://www.w3.org/2000/svg" viewBox="0 0 24 24" fit="" height="500" width="500" preserveAspectRatio="xMidYMid meet" focusable="false"><path d="M22 12.066h-2a8.035 8.035 0 00-8-8.052V2a10.045 10.045 0 0110 10.066z" fill="#000000" opacity=".8" fill-opacity="0.99"></path><path d="M20 12.066a8.036 8.036 0 01-7.432 8.024l.97 1.91A10.052 10.052 0 0022 12.066z" fill="#000000" fill-opacity="0.99"></path><path d="M12 4.014V2a10.06 10.06 0 00-4.45 19.053l-.67 1.252 4.34-.51-1.985-3.889-.741 1.384A8.052 8.052 0 0112 4.014z" fill="#000000" opacity=".6" fill-opacity="0.99"></path><path d="M7 13v3h10v-3zm5 2H9v-1h3zm2.5 0a.5.5 0 11.5-.5.5.5 0 01-.5.5zM7 8v3h10V8zm5 2H9V9h3zm2.5 0a.5.5 0 11.5-.5.5.5 0 01-.5.5z" fill="#000000" fill-opacity="0.99"></path></svg>