<svg xmlns:xlink="http://www.w3.org/1999/xlink" xmlns="http://www.w3.org/2000/svg" fill="currentColor" fill-rule="evenodd" height="500" viewBox="0 0 24 24" width="500" fit="" preserveAspectRatio="xMidYMid meet" focusable="false"><path d="M18 6h4V2h-4zm0 8h4v-4h-4zm0 8h4v-4h-4zM2 22h4v-4H2zm0-8h4v-4H2zm0-8h4V2H2z" opacity=".8" fill-opacity="0.99" fill="#000000"></path><path d="M6 13h2v-2H6zm9.116-5H16v.884L18.884 6H18v-.884zM16 13h2v-2h-2zM8 8h.884L6 5.116V6h-.884L8 8.884zm.991 8h-.99v-.777L5.222 18H6v.991zM16 16h-.884L18 18.884V18h.884L16 15.116z" opacity=".6" fill-opacity="0.99" fill="#000000"></path><path d="M8 16h8V8H8z" fill-opacity="0.99" fill="#000000"></path></svg>