<svg xmlns:xlink="http://www.w3.org/1999/xlink" xmlns="http://www.w3.org/2000/svg" fill="currentColor" fill-rule="evenodd" height="500" viewBox="0 0 24 24" width="500" fit="" preserveAspectRatio="xMidYMid meet" focusable="false"><path d="M7 2L2 7v10l5 5h5l-2.5-3H8.25L5 15.75v-7.5L8.25 5H9.5L12 2zm7.5 0L12 5h3.75L19 8.25v7.5L15.75 19H12l2.5 3H17l5-5V7l-5-5z" fill-opacity="0.99" fill="#000000"></path><path d="M12 17l-2.5-2.5 2.503-2.503-2.5-2.5L12 7H9.5L7 9.5v5L9.5 17z" opacity=".8" fill-opacity="0.99" fill="#000000"></path><path d="M14.5 7L12 9.5l2.503 2.503-2.5 2.5L14.5 17l2.5-2.5v-5z" opacity=".8" fill-opacity="0.99" fill="#000000"></path></svg>