<svg xmlns:xlink="http://www.w3.org/1999/xlink" xmlns="http://www.w3.org/2000/svg" fill="currentColor" fill-rule="evenodd" height="500" viewBox="0 0 24 24" width="500" fit="" preserveAspectRatio="xMidYMid meet" focusable="false"><path d="M20.182 3.75l-2.66 2.652 3.32.93 1.46-1.46z" fill-opacity="0.8" fill="#000000"></path><path d="M11.75 24C6.365 24 2 19.635 2 14.25S6.365 4.5 11.75 4.5s9.75 4.365 9.75 9.75S17.135 24 11.75 24zm0-3a6.75 6.75 0 1 0 0-13.5 6.75 6.75 0 0 0 0 13.5z" fill-opacity="0.6" fill="#000000"></path><path d="M7.25 0h9v3h-9z" fill-opacity="0.8" fill="#000000"></path><path d="M11.75 14.25v-4.5a4.5 4.5 0 0 0-3.66 7.12l3.66-2.62z" fill-opacity="0.6" fill="#000000"></path><path d="M17.537 6.405l3.314.913-1.2 1.214a9.762 9.762 0 0 0-2.1-2.127z" fill-opacity="0.99" fill="#000000"></path><path d="M11.74 18.75a4.5 4.5 0 0 0 0-9v4.5l-3.665 2.61a4.494 4.494 0 0 0 3.666 1.89z" fill-opacity="0.8" fill="#000000"></path></svg>