<svg xmlns:xlink="http://www.w3.org/1999/xlink" xmlns="http://www.w3.org/2000/svg" fill="currentColor" fill-rule="evenodd" height="500" viewBox="0 0 24 24" width="500" fit="" preserveAspectRatio="xMidYMid meet" focusable="false"><path d="M7 15H5v-4h2zm12 0h-2v-4h2zm-4 4h-4v-2h4zm0-12h-4V5h4z" fill-opacity="0.8" fill="#000000"></path><path d="M7 11H5V9h2zm12 0h-2V9h2zm-8 8H9v-2h2zm0-12H9V5h2z" fill-opacity="0.6" fill="#000000"></path><path d="M15 22h4v-7h-4zM2 22h4v-7H2zM2 9h4V2H2zm13 0h4V2h-4z" fill-opacity="0.99" fill="#000000"></path><path d="M19 22h3v-7h-3zM6 22h3v-7H6zM6 9h3V2H6zm13 0h3V2h-3z" fill-opacity="0.8" fill="#000000"></path></svg>