<svg xmlns:xlink="http://www.w3.org/1999/xlink" xmlns="http://www.w3.org/2000/svg" viewBox="0 0 18 18" fit="" height="500" width="500" preserveAspectRatio="xMidYMid meet" focusable="false"><path d="M4.81 9.78a2.94 2.94 0 000 5.87 2.94 2.94 0 000-5.87zm-.32 3L4 14.4l-.62.31.46-1.89-.46-1.89.62.31.46 1.58zm0 1.89l.63-1.89-.63-1.89L7 12.82z" fill="#000000" fill-opacity="0.54"></path><path d="M9.56 2.35l-4 7a3.44 3.44 0 011 .38l3-5.3 3.24 5.69-3.24-3.33-2.91 3a4.07 4.07 0 01.77.67l2.14-2.22L13 11.72l-3.44-1.55L7.8 11a3.13 3.13 0 01.37.95l1.39-.63 3.27 1.48H8.27a3.89 3.89 0 01-.17 1h8z" fill="#000000" fill-opacity="0.54"></path></svg>