<svg xmlns:xlink="http://www.w3.org/1999/xlink" xmlns="http://www.w3.org/2000/svg" viewBox="0 0 18 18" fit="" height="500" width="500" preserveAspectRatio="xMidYMid meet" focusable="false"><path d="M15.228 7.513c.75 0 1.352-.6 1.352-1.35s-.6-1.353-1.352-1.353-1.35.6-1.35 1.352.6 1.35 1.35 1.35zM11.85 1.506c-.75 0-1.352.6-1.352 1.352s.6 1.35 1.352 1.35 1.35-.6 1.35-1.35c-.074-.75-.675-1.352-1.35-1.352zm-9.01 3.38c-.75 0-1.352.6-1.352 1.35s.6 1.352 1.352 1.352c.75 0 1.35-.6 1.35-1.35s-.675-1.353-1.35-1.353zm0 5.63c-.75 0-1.352.6-1.352 1.352s.6 1.35 1.352 1.35 1.35-.6 1.35-1.35c-.074-.75-.675-1.352-1.35-1.352zm3.378 3.38c-.75 0-1.35.6-1.35 1.35s.6 1.352 1.35 1.352 1.352-.6 1.352-1.35c-.075-.752-.676-1.353-1.352-1.353zm9.01-3.38c-.75 0-1.35.6-1.35 1.352s.6 1.35 1.35 1.35c.75 0 1.352-.6 1.352-1.35 0-.75-.676-1.352-1.352-1.352zm-9.01-9.01c-.75 0-1.35.6-1.35 1.352s.6 1.35 1.35 1.35c.75 0 1.352-.6 1.352-1.35s-.676-1.352-1.352-1.352zm5.632 12.39c-.75 0-1.352.6-1.352 1.35s.6 1.352 1.352 1.352c.75 0 1.35-.6 1.35-1.35s-.675-1.353-1.35-1.353z" opacity=".8" fill-opacity="0.54" fill="#000000"></path><path d="M14.955 10.544l-4.382-4.382-1.05 1.05 4.38 4.383c.108-.53.522-.944 1.052-1.05zM3.045 7.568l4.825 4.826 1.05-1.052L4.165 6.51a1.34 1.34 0 0 1-1.12 1.058zm8.545 6.352l-1.017-1-1.05 1.05.994 1.086a1.34 1.34 0 0 1 1.072-1.135zM6.423 4.19L7.87 5.635l1.09-1.09L7.543 3.13a1.34 1.34 0 0 1-1.12 1.06z" fill-opacity="0.54" fill="#000000"></path><path d="M4.04 9.54l-1.066.99c.524.063.98.476 1.152 1.028l.966-.967-1.05-1.05zm6.758 0L8.92 11.342l-1.05 1.052-1.51 1.517c.52.07.975.48 1.144 1.03l4.346-4.34-1.052-1.05zm3.1-3.176L12.3 7.89l1.05 1.05 1.49-1.49a1.336 1.336 0 0 1-.943-1.086zM6.653 9.04l4.865-4.875a1.338 1.338 0 0 1-1-1.09c-.006-.023-.02-.044-.023-.067l-4.93 4.928 1.09 1.104z" opacity=".59" fill-opacity="0.54" fill="#000000"></path></svg>