<svg xmlns:xlink="http://www.w3.org/1999/xlink" xmlns="http://www.w3.org/2000/svg" viewBox="0 0 18 18" fit="" height="500" width="500" preserveAspectRatio="xMidYMid meet" focusable="false"><path d="M8.86.05L1.53 3.31V8.2c0 3.28 1.66 6.39 4.17 8.25.95.7 2.01 1.24 3.16 1.53V.05zm0 0v17.92c4.2-1.03 7.33-5.25 7.33-9.78V3.31L8.86.05z" fill-opacity="0.54" fill="#000000"></path><path fill="#FFFFFF" d="M12.27 8.08a.85.85 0 00-.59-.65c-.08-.02-.15-.05-.24-.05h-.43v-.86c0-.42-.13-.81-.34-1.15a2.147 2.147 0 00-3.96 1.15v.86h-.43c-.47 0-.86.39-.86.86v4.3c0 .42.31.75.7.83.05.01.1.03.16.03h5.16c.47 0 .86-.39.86-.86v-4.3c0-.06-.02-.11-.03-.16M7.53 6.52c0-.05.01-.1.02-.16.06-.61.54-1.09 1.15-1.16.05-.01.1-.02.16-.02.54 0 1 .32 1.21.79.08.17.12.35.12.55v.86H7.53v-.86z"></path><path d="M9.25 8.36v1.7h.93l-1.66 2.31v-1.72h-.98z" fill-opacity="0.54" fill="#000000"></path></svg>