<svg xmlns:xlink="http://www.w3.org/1999/xlink" xmlns="http://www.w3.org/2000/svg" fill-rule="evenodd" height="500" viewBox="0 0 24 24" width="500" fit="" preserveAspectRatio="xMidYMid meet" focusable="false"><path d="M5.467 6.878v3.733l-2.8-1.86zm0 2.634V7.717c3.25.986 5.6 3.744 5.6 6.99v2.885H9.205v-2.885c0-2.308-1.537-4.296-3.738-5.195z" fill="#5F6368"></path><path d="M9.2 5.467h-.933l1.866-2.8L12 5.467h-.933V17.6H9.2zm5.6 13.066h.933l-1.866 2.8-1.867-2.8h.933V6.4H14.8z" fill="#80868B"></path><path d="M18.533 16.283c-3.25-.986-5.6-3.744-5.6-6.99V6.408h1.862v2.885c0 2.308 1.538 4.296 3.738 5.195v-1.1l2.8 1.868-2.8 1.866z" fill="#9AA0A6"></path></svg>