<svg xmlns:xlink="http://www.w3.org/1999/xlink" xmlns="http://www.w3.org/2000/svg" fill="currentColor" fill-rule="evenodd" height="500" viewBox="0 0 24 24" width="500" fit="" preserveAspectRatio="xMidYMid meet" focusable="false"><path d="M12 5.5a7.5 7.5 0 1 0 0 15 7.5 7.5 0 0 0 0-15m0 12.832a5.332 5.332 0 1 1 0-10.664 5.332 5.332 0 0 1 0 10.664" fill-opacity="0.99" fill="#000000"></path><path d="M21 11.163c.11.592.167 1.205.167 1.835 0 .44 0 .69-.067 1.002h2.51a.587.587 0 0 0 .39-.558v-.813c0-.26-.156-.43-.39-.51L21 11.16zM11.963 3.84c.617 0 1.218.056 1.798.16l-1.1-2.61c-.08-.234-.25-.39-.5-.39h-.46c-.25 0-.43.156-.5.39l-.95 2.597a10.164 10.164 0 0 1 1.73-.147M3 11.163l-2.61.964c-.234.075-.39.25-.39.503v.78c0 .253.23.51.462.59h2.44a6.13 6.13 0 0 1-.07-1.002c0-.63.06-1.243.168-1.835z" opacity=".8" fill-opacity="0.99" fill="#000000"></path><path d="M14.762 9.94l-.804.804A2.98 2.98 0 0 1 15 13a3 3 0 0 1-3 3 2.98 2.98 0 0 1-2.256-1.042l-.8.8A4.11 4.11 0 0 0 12 17.123 4.125 4.125 0 0 0 16.125 13a4.11 4.11 0 0 0-1.363-3.06z" opacity=".6" fill-opacity="0.99" fill="#000000"></path><path d="M12 10a3 3 0 1 0 0 6 3 3 0 0 0 0-6zm0 4.5a1.5 1.5 0 1 1 0-3 1.5 1.5 0 0 1 0 3z" fill-opacity="0.99" fill="#000000"></path></svg>