<svg xmlns:xlink="http://www.w3.org/1999/xlink" xmlns="http://www.w3.org/2000/svg" viewBox="0 0 24 24" fit="" height="500" width="500" preserveAspectRatio="xMidYMid meet" focusable="false"><path fill="#000000" opacity=".6" d="M4.69 7.7l4.69-2.71V2.27L2.25 6.38l.39.48 1.62.88.43-.04z" fill-opacity="0.99"></path><path d="M9.38 17.36l-7.13-4.11v-2.59l7.13 4.12zm0 1.77L2.25 15v2.6l7.13 4.12zm0-8.71L4.69 7.7 2.25 6.38v2.5L9.38 13" fill="#000000" fill-rule="evenodd" fill-opacity="0.99"></path><path d="M9.38 21.73l7-4V15.1l-7 4m0-4.35l7-4h2.08v2.33h-1.68l-7.4 4.29zm0-1.77l7.41-4.28h2.44v1.36l2.51-2.51-2.51-2.5v1.32h-2.87l-1.23.72-1.06.61-2.72 1.57-2 1.15zm0-7.99l3.16 1.83 2.36-1.36-5.52-3.19v2.72z" fill="#000000" fill-rule="evenodd" opacity=".8" fill-opacity="0.99"></path></svg>