<svg xmlns:xlink="http://www.w3.org/1999/xlink" xmlns="http://www.w3.org/2000/svg" fill="currentColor" fill-rule="evenodd" height="500" viewBox="0 0 24 24" width="500" fit="" preserveAspectRatio="xMidYMid meet" focusable="false"><path d="M7 10V7l1-1H3v5l1-1z" fill-opacity="0.99" fill="#000000"></path><path d="M7 10V7l1-1v5z" opacity=".6" fill-opacity="0.99" fill="#000000"></path><path d="M8 11H3l1-1h3z" opacity=".8" fill-opacity="0.99" fill="#000000"></path><path d="M13 10h-3l-1 1h5V6l-1 1z" fill-opacity="0.99" fill="#000000"></path><path d="M10 7v3l-1 1V6z" opacity=".6" fill-opacity="0.99" fill="#000000"></path><path d="M9 6h5l-1 1h-3z" opacity=".8" fill-opacity="0.99" fill="#000000"></path><path d="M7 16H4l-1 1h5v-5l-1 1z" fill-opacity="0.99" fill="#000000"></path><path d="M4 13v3l-1 1v-5z" opacity=".6" fill-opacity="0.99" fill="#000000"></path><path d="M3 12h5l-1 1H4z" opacity=".8" fill-opacity="0.99" fill="#000000"></path><path d="M19 10h-3l-1 1h5V6l-1 1z" fill-opacity="0.99" fill="#000000"></path><path d="M16 7v3l-1 1V6z" opacity=".6" fill-opacity="0.99" fill="#000000"></path><path d="M15 6h5l-1 1h-3z" opacity=".8" fill-opacity="0.99" fill="#000000"></path><path d="M13 16v-3l1-1H9v5l1-1z" fill-opacity="0.99" fill="#000000"></path><path d="M13 16v-3l1-1v5z" opacity=".6" fill-opacity="0.99" fill="#000000"></path><path d="M14 17H9l1-1h3z" opacity=".8" fill-opacity="0.99" fill="#000000"></path><path d="M19 16v-3l1-1h-5v5l1-1z" fill-opacity="0.99" fill="#000000"></path><path d="M19 16v-3l1-1v5z" opacity=".6" fill-opacity="0.99" fill="#000000"></path><path d="M20 17h-5l1-1h3z" opacity=".8" fill-opacity="0.99" fill="#000000"></path></svg>