<svg xmlns:xlink="http://www.w3.org/1999/xlink" xmlns="http://www.w3.org/2000/svg" fill="currentColor" fill-rule="evenodd" height="500" viewBox="0 0 24 24" width="500" fit="" preserveAspectRatio="xMidYMid meet" focusable="false"><path d="M21 7h-1l-2-2h3zm0 4h-1l-2-2h3zm0 4h-1l-2-2h3zm0 4h-1l-2-2h3zM3 5h3v2H3zm0 4h3v2H3zm0 4h3v2H3zm0 4h3v2H3zM13 3v8h3l-5 7v3h7V3z" opacity=".8" fill-opacity="0.99" fill="#000000"></path><path d="M20 7h-2V5zm0 4h-2V9zm0 4h-2v-2zm0 4h-2v-2z" opacity=".6" fill-opacity="0.99" fill="#000000"></path><path d="M11 13H8l5-7V3H6v18h5v-3z" fill-opacity="0.99" fill="#000000"></path></svg>