<svg xmlns:xlink="http://www.w3.org/1999/xlink" xmlns="http://www.w3.org/2000/svg" fill="currentColor" fill-rule="evenodd" height="500" viewBox="0 0 24 24" width="500" fit="" preserveAspectRatio="xMidYMid meet" focusable="false"><path d="M10 8.568V13l-3.84 2.216 1.87 1.23 3.97-2.28V9.573z" opacity=".8" fill-opacity="0.99" fill="#000000"></path><path d="M15.97 16.446l1.87-1.23L14 13V8.568l-2 1.004v4.595l-3.97 2.28.13 2.233L12 16.464l3.84 2.216z" opacity=".6" fill-opacity="0.99" fill="#000000"></path><path d="M11 2L8 3.457v4.106l4 2.01V6.15l-1-.468z" fill-opacity="0.99" fill="#000000"></path><path d="M13 2.043V5.67l-1 .48v3.422l4-2.01V3.458z" opacity=".8" fill-opacity="0.99" fill="#000000"></path><path d="M23 15.894l-3.292-1.908-3.74 2.46 2.964 1.71 1.278-.842 2.79 1.61z" fill-opacity="0.99" fill="#000000"></path><path d="M21.804 21.396l-2.963-1.71.1-1.53-2.96-1.71-.26 4.468 3.56 2.054zm-19.608 0l2.54 1.572 3.556-2.054-.26-4.468-2.964 1.71.09 1.53z" opacity=".8" fill-opacity="0.99" fill="#000000"></path><path d="M1 18.925l2.79-1.61 1.278.842 2.963-1.71-3.73-2.46-3.3 1.95z" fill-opacity="0.99" fill="#000000"></path></svg>