<svg xmlns:xlink="http://www.w3.org/1999/xlink" xmlns="http://www.w3.org/2000/svg" fill="currentColor" height="500" viewBox="0 0 24 24" width="500" fit="" preserveAspectRatio="xMidYMid meet" focusable="false"><g transform="translate(2 1)" fill-opacity="0.99" fill="#000000"><path d="M19.505 8.068C18.515 3.734 14.635.5 10 .5a9.704 9.704 0 0 0-5.3 1.564l1.882 3.264c2.16-1.513 4.53-1.158 5.867-.556 1.14.513 2.86 1.78 3.39 4.153l3.66-.857zM4.893 20.06a9.732 9.732 0 0 1-4.396-6.115l3.66-.84c.107.46.27.89.494 1.346.48.94 1.18 1.73 2.13 2.36L4.9 20.06z" fill-opacity="0.99"></path><circle cx="3.25" cy="6.5" r="1.5" fill-opacity="0.99"></circle><path d="M.285 12.5h3.76c.03.23.066.432.107.602l-3.655.84A9.068 9.068 0 0 1 .285 12.5zm19.432-2.982h-3.76a5.82 5.82 0 0 0-.107-.603l3.655-.84c.107.463.178.943.212 1.443z" fill-opacity="0.8"></path><circle cx="13.75" cy="18.5" fill-opacity="0.8" r="1.5"></circle><circle cx="8.875" cy="19.25" r="1.5" fill-opacity="0.99"></circle><circle cx="17.5" cy="15.5" fill-opacity="0.6" r="1.5"></circle><path d="M.25 9.5h19.468c.05.728.06 1.728.032 3.002H.278C.243 11.882.234 10.88.25 9.5z" fill-opacity="0.99"></path></g></svg>