<svg xmlns:xlink="http://www.w3.org/1999/xlink" xmlns="http://www.w3.org/2000/svg" width="500" height="500" viewBox="0 0 18 18" fit="" preserveAspectRatio="xMidYMid meet" focusable="false"><path d="M4.107 6.196v6.092c0 1.252.968 2.266 2.16 2.266 1.142 0 2.077-.928 2.156-2.104l.006-.162-.01-1.01a1.78 1.78 0 0 0 1.14.073v.94c0 1.91-1.48 3.46-3.31 3.46-1.766 0-3.207-1.44-3.3-3.27l-.006-.19V6.2a1.78 1.78 0 0 0 1.142 0zm10.357 6.862c.71 0 1.286.603 1.286 1.346 0 .743-.576 1.346-1.286 1.346-.71 0-1.285-.603-1.285-1.346 0-.743.57-1.346 1.28-1.346zM11.732 3.056c1.825 0 3.304 1.55 3.304 3.46v6.038a1.78 1.78 0 0 0-1.143 0V6.517c0-1.25-.968-2.265-2.16-2.265-1.194 0-2.162 1.014-2.162 2.265l.01 1.068a1.782 1.782 0 0 0-1.14.073v-1.14c0-1.912 1.48-3.462 3.31-3.462zM9.107 8.122c.71 0 1.286.603 1.286 1.346 0 .744-.576 1.347-1.286 1.347-.71 0-1.286-.603-1.286-1.347 0-.743.58-1.346 1.29-1.346zM3.537 3c.71 0 1.284.603 1.284 1.346 0 .743-.57 1.346-1.28 1.346S2.25 5.09 2.25 4.346C2.25 3.603 2.827 3 3.537 3z" fill="#202124"></path></svg>