<svg xmlns:xlink="http://www.w3.org/1999/xlink" xmlns="http://www.w3.org/2000/svg" viewBox="0 0 18 18" fit="" height="500" width="500" preserveAspectRatio="xMidYMid meet" focusable="false"><path d="M9 7.999a1 1 0 101 1c0-.086-.029-.164-.049-.244l1.476-1.476c.35.489.573 1.074.573 1.72 0 1.654-1.346 3-3 3s-3-1.346-3-3a3.001 3.001 0 012.97-2.997v-1A4.003 4.003 0 005 8.999c0 2.206 1.794 4 4 4s4-1.795 4-4c0-.923-.323-1.765-.854-2.439l1.426-1.426A5.96 5.96 0 0115 8.999c0 .345-.036.681-.092 1.01.031-.002.061-.009.092-.009.32 0 .618.082.887.216.07-.396.113-.801.113-1.217 0-2.11-.942-4-2.423-5.285l-.707.707h.001L11.44 5.852h-.001l-.707.707h.001l-1.489 1.49c-.08-.021-.157-.05-.244-.05z" fill-opacity="0.54" fill="#000000"></path><circle cx="15" cy="12" r="1" fill-opacity="0.54" fill="#000000"></circle><path d="M13.346 13.124A5.978 5.978 0 019 15c-3.309 0-6-2.692-6-6.001A6.005 6.005 0 018.97 3V2A7.007 7.007 0 002 8.999 7.008 7.008 0 009 16a6.976 6.976 0 005.102-2.222 2.009 2.009 0 01-.756-.654z" fill-opacity="0.54" fill="#000000"></path></svg>