<svg xmlns:xlink="http://www.w3.org/1999/xlink" xmlns="http://www.w3.org/2000/svg" width="500" height="500" viewBox="0 0 18 18" fit="" preserveAspectRatio="xMidYMid meet" focusable="false"><path d="M14.893 11.2a1.582 1.582 0 0 1 .417.056l.116.037A1.648 1.648 0 0 1 16.5 12.85c0 .91-.72 1.65-1.607 1.65-.888 0-1.607-.74-1.607-1.65 0-.64.353-1.193.87-1.467h.002l.043-.023a.71.71 0 0 1 .07-.028l-.1.05a1.578 1.578 0 0 1 .74-.182zm-11.786 0a1.58 1.58 0 0 1 .695.162c.54.267.912.833.912 1.488 0 .91-.72 1.65-1.607 1.65S1.5 13.76 1.5 12.85c0-.748.484-1.38 1.15-1.582l.033-.01.066-.017-.1.03a1.562 1.562 0 0 1 .45-.07zm8.488-2.75a.453.453 0 0 1 .408.65l-.014.026a.454.454 0 0 1-.02.02L9.64 12.89a.91.91 0 0 1-.81.508.906.906 0 0 1-.905-.908.9.9 0 0 1 .29-.666l-.04.037H8.17l3.13-3.3a.464.464 0 0 1 .293-.1zm-.264-3.3c2.18.89 3.76 2.994 3.96 5.498a2.128 2.128 0 0 0-1.14.098c-.16-2.003-1.39-3.693-3.11-4.452.16-.28.27-.597.3-.937l.01-.207v-.005zm-4.36-.134v.134c0 .372.09.723.25 1.032-1.86.693-3.22 2.448-3.39 4.55a2.085 2.085 0 0 0-1.15-.078c.21-2.636 1.95-4.83 4.3-5.638zM9.15 3.5c.886 0 1.606.74 1.606 1.65 0 .055-.003.11-.008.163l.008-.163a1.71 1.71 0 0 1-.137.667 1.66 1.66 0 0 1-.15.27 1.6 1.6 0 0 1-1.33.713 1.61 1.61 0 0 1-1.51-1.103l-.02-.047a1.502 1.502 0 0 1-.07-.332 1.712 1.712 0 0 1 0-.315l-.01.147c0-.072 0-.144.01-.214.1-.81.77-1.436 1.59-1.436z" fill-opacity="0.54" fill="#000000"></path></svg>