<svg xmlns:xlink="http://www.w3.org/1999/xlink" xmlns="http://www.w3.org/2000/svg" width="500" height="500" viewBox="0 0 18 18" fit="" preserveAspectRatio="xMidYMid meet" focusable="false"><path d="M2 2.99A1 1 0 0 1 3.007 2h11.986C15.55 2 16 2.45 16 2.99v4.02a1 1 0 0 1-1.007.99H3.007C2.45 8 2 7.55 2 7.01V2.99zM5.5 6.5a1.5 1.5 0 1 0 0-3 1.5 1.5 0 0 0 0 3zM4 8h3v2H4V8zm-2 2.99A1 1 0 0 1 3.007 10h11.986c.556 0 1.007.45 1.007.99v4.02a1 1 0 0 1-1.007.99H3.007C2.45 16 2 15.55 2 15.01v-4.02zm3.5 3.51a1.5 1.5 0 1 0 0-3 1.5 1.5 0 0 0 0 3z" fill-rule="evenodd" fill-opacity="0.54" fill="#000000"></path></svg>