<svg xmlns:xlink="http://www.w3.org/1999/xlink" xmlns="http://www.w3.org/2000/svg" height="500" viewBox="0 0 18 18" width="500" fit="" preserveAspectRatio="xMidYMid meet" focusable="false"><path d="M7.5 7.5h-6V9h6V7.5zm3-3h-9V6h9V4.5zm-9 7.5h6v-1.5h-6V12zm12.975-.082c.33-.525.525-1.133.525-1.793a3.37 3.37 0 0 0-3.375-3.375 3.37 3.37 0 0 0-3.375 3.375 3.37 3.37 0 0 0 3.367 3.375 3.33 3.33 0 0 0 1.793-.525l2.34 2.34 1.065-1.065-2.34-2.332zm-2.85.082a1.876 1.876 0 1 1 0-3.75 1.876 1.876 0 0 1 0 3.75z" fill-rule="evenodd" fill-opacity="0.54" fill="#000000"></path></svg>