<svg xmlns:xlink="http://www.w3.org/1999/xlink" xmlns="http://www.w3.org/2000/svg" fill="currentColor" fill-rule="evenodd" height="500" viewBox="0 0 24 24" width="500" fit="" preserveAspectRatio="xMidYMid meet" focusable="false"><path d="M4 6c-1.125 0-2 .88-2 2v10h2v-5h2v5h2V8c0-1.12-.875-2-2-2H4zm0 5V8h2v3l-2 2v-2zm7-5c-1.125 0-2 .88-2 2v10h2v-5h2c1.125 0 2-.88 2-2V8c0-1.12-.875-2-2-2h-2zm0 5V8h2v3l-2 2v-2zm7-3h2l-2 2v6h-2v2h6v-2h-2V8h2V6h-6v2z" fill-opacity="0.99" fill="#000000"></path><path d="M4 13v-2h2zm7 0v-2h2zm7-3V8h2z" opacity=".6" fill-opacity="0.99" fill="#000000"></path></svg>