<svg xmlns:xlink="http://www.w3.org/1999/xlink" xmlns="http://www.w3.org/2000/svg" width="500" height="500" viewBox="0 0 18 18" fit="" preserveAspectRatio="xMidYMid meet" focusable="false"><path d="M14.852 3.6a.9.9 0 0 0-1.8 0v5.398h1.8v-5.4zM18 7.184a.892.892 0 0 0-.9-.886c-.498 0-.9.396-.9.886v1.814H18V7.184zM8.996 12.6a2.7 2.7 0 1 0 0 5.4 2.7 2.7 0 0 0 0-5.4m0 1.8a.9.9 0 0 1 0 1.797.9.9 0 0 1 0-1.797m0-14.4a2.7 2.7 0 1 0 0 5.4 2.7 2.7 0 0 0 0-5.4m0 1.8a.9.9 0 0 1 0 1.797.9.9 0 0 1 0-1.797M11.7 6.734a.892.892 0 0 0-.9-.886c-.498 0-.9.396-.9.886v2.264h1.8V6.734zm-3.6 0a.892.892 0 0 0-.9-.886c-.498 0-.9.396-.9.886v2.264h1.8V6.734zM4.952 3.6a.9.9 0 0 0-1.8 0v5.398h1.8v-5.4zM1.8 7.184a.892.892 0 0 0-.9-.886c-.498 0-.9.396-.9.886v1.814h1.8V7.184z" fill-opacity="0.54" fill="#000000"></path><path d="M14.852 14.397a.9.9 0 0 1-1.8 0v-5.4h1.8v5.4zM18 10.812c0 .49-.402.886-.9.886a.892.892 0 0 1-.9-.886V8.998H18v1.814zm-6.3.45c0 .49-.402.886-.9.886a.892.892 0 0 1-.9-.886V8.998h1.8v2.264zm-3.6 0c0 .49-.402.886-.9.886a.892.892 0 0 1-.9-.886V8.998h1.8v2.264zm-3.148 3.135a.9.9 0 0 1-1.8 0v-5.4h1.8v5.4zM1.8 10.812c0 .49-.402.886-.9.886a.892.892 0 0 1-.9-.886V8.998h1.8v1.814z" fill-opacity="0.54" fill="#000000"></path></svg>