<svg xmlns:xlink="http://www.w3.org/1999/xlink" xmlns="http://www.w3.org/2000/svg" width="500" height="500" viewBox="0 0 18 18" fit="" preserveAspectRatio="xMidYMid meet" focusable="false"><path d="M13.9 9.9a.9.9 0 1 1 0-1.8.9.9 0 0 1 0 1.8M9 14.8A.9.9 0 1 1 9 13a.9.9 0 0 1 0 1.8M9 5a.9.9 0 1 1 0-1.8A.9.9 0 0 1 9 5M3.2 9A.9.9 0 1 1 5 9a.9.9 0 0 1-1.8 0m10.7-2.1c-.426 0-.822.13-1.153.347l-1.994-1.994A2.1 2.1 0 1 0 6.9 4.1c0 .34.09.66.233.943L5.02 7.12a2.077 2.077 0 0 0-.92-.22 2.1 2.1 0 0 0 0 4.2c.453 0 .87-.146 1.212-.39l.927.926.8-.817-.99-1.07A2.08 2.08 0 0 0 6.2 9c0-.386-.112-.743-.294-1.054l2.04-2.04c.31.182.668.294 1.054.294.3 0 .586-.066.845-.18l2.122 2.158a2.103 2.103 0 0 0 0 1.64l-2.122 2.136.005.03A2.08 2.08 0 0 0 9 11.8a2.1 2.1 0 1 0 1.753.947l1.994-1.994A2.1 2.1 0 1 0 13.9 6.9" fill-rule="evenodd" fill-opacity="0.54" fill="#000000"></path></svg>