<svg xmlns:xlink="http://www.w3.org/1999/xlink" xmlns="http://www.w3.org/2000/svg" fill-rule="evenodd" height="500" viewBox="0 0 18 18" width="500" fit="" preserveAspectRatio="xMidYMid meet" focusable="false"><path d="M14.156 9.063l2.063-1.376L17.25 7l-1.03-.688L9 1.5 1.78 6.313.75 7l1.03.688 2.064 1.375-2.063 1.374-1.03.688 1.03.688 2.07 1.374L9 16.625l5.156-3.438 2.063-1.374 1.03-.688-1.03-.688-2.07-1.374zm-1.03-.688l-3.438-2.29v-2.75L15.188 7l-2.063 1.375zM2.812 7l5.5-3.664v2.75l-3.438 2.29L2.812 7zM9 15.25l-6.188-4.125L4.876 9.75 9 7l4.125 2.75 2.063 1.375L9 15.25zm0-9.6L3.84 9.068 9 5.65z" fill-rule="nonzero" fill-opacity="0.54" fill="#000000"></path><path d="M6.75 12h1.5v3.72h1.5V12h1.5L9 9z" fill-opacity="0.54" fill="#000000"></path></svg>