<svg xmlns:xlink="http://www.w3.org/1999/xlink" xmlns="http://www.w3.org/2000/svg" viewBox="0 0 24 24" fit="" height="500" width="500" preserveAspectRatio="xMidYMid meet" focusable="false"><path fill="#000000" d="M21.63 6.57H9.26a.32.32 0 00-.32.32v2.17c0 .177.143.32.32.32h12.37a.32.32 0 00.37-.32V6.9a.32.32 0 00-.31-.33h-.06zM10.49 8.71a.7.7 0 11.7-.7v.001a.7.7 0 01-.7.699zm11.14 1.9H9.26a.32.32 0 00-.32.32v2.15c0 .177.143.32.32.32h12.37a.32.32 0 00.32-.32v-2.15a.32.32 0 00-.32-.32zm-11.14 2.14a.7.7 0 11.7-.7.7.7 0 01-.7.7zm11.19 1.87H9.32a.32.32 0 00-.32.32v2.16a.32.32 0 00.31.33h12.37a.32.32 0 00.32-.32v-2.17a.32.32 0 00-.32-.32zm-11.14 2.13a.71.71 0 01-.7-.71.71.71 0 011.41 0 .71.71 0 01-.71.71z" fill-opacity="0.99"></path><path opacity=".8" fill="#000000" d="M6.74 9.86H4.61a.811.811 0 11-.21-1.61h2.34A.815.815 0 117 9.86h-.26z" fill-opacity="0.99"></path><path opacity=".6" fill="#000000" d="M6.74 12.81H2.92a.82.82 0 01-.21-1.62h4A.823.823 0 017 12.81h-.26z" fill-opacity="0.99"></path><path opacity=".8" fill="#000000" d="M6.74 15.75H4.61a.811.811 0 11-.21-1.61h2.34A.815.815 0 117 15.75h-.26z" fill-opacity="0.99"></path></svg>