<svg xmlns:xlink="http://www.w3.org/1999/xlink" xmlns="http://www.w3.org/2000/svg" width="500" height="500" viewBox="0 0 18 18" fit="" preserveAspectRatio="xMidYMid meet" focusable="false"><path d="M4 11a2 2 0 1 0 0-4 2 2 0 0 0 0 4zm10 0a2 2 0 1 0 0-4 2 2 0 0 0 0 4zM9 6a2 2 0 1 0 0-4 2 2 0 0 0 0 4zm0 10a2 2 0 1 0 0-4 2 2 0 0 0 0 4zm0-5.5a1.5 1.5 0 1 0 0-3 1.5 1.5 0 0 0 0 3zM5 6a1 1 0 1 0 0-2 1 1 0 0 0 0 2zm0 8a1 1 0 1 0 0-2 1 1 0 0 0 0 2zm8-8a1 1 0 1 0 0-2 1 1 0 0 0 0 2zm0 8a1 1 0 1 0 0-2 1 1 0 0 0 0 2z" fill-rule="evenodd" fill="#3367D6"></path></svg>