<svg xmlns:xlink="http://www.w3.org/1999/xlink" xmlns="http://www.w3.org/2000/svg" fill="currentColor" fill-rule="evenodd" height="500" viewBox="0 0 24 24" width="500" fit="" preserveAspectRatio="xMidYMid meet" focusable="false"><path d="M21 13v2h-2v-2h-6v2h-2v-2H5v2H3v-4h18v2z" fill-opacity="0.8" fill="#000000"></path><path d="M13 11h-2V9h2z" fill-opacity="0.601" fill="#000000"></path><path d="M5 9h7V3H5z" fill-opacity="0.99" fill="#000000"></path><path d="M12 9h7V3h-7z" fill-opacity="0.8" fill="#000000"></path><path d="M1 21h3v-6H1zm8 0h3v-6H9zm8 0h3v-6h-3z" fill-opacity="0.99" fill="#000000"></path><path d="M4 21h3v-6H4zm8 0h3v-6h-3zm8 0h3v-6h-3z" fill-opacity="0.8" fill="#000000"></path></svg>