<svg xmlns:xlink="http://www.w3.org/1999/xlink" xmlns="http://www.w3.org/2000/svg" viewBox="0 0 18 18" fit="" height="500" width="500" preserveAspectRatio="xMidYMid meet" focusable="false"><path d="M9 6.05A3 3 0 1012 9a2.95 2.95 0 00-3-2.95zm1.59 4.29H7.43v-.56h3.18zm0-1H7.43v-.59h3.18zm0-1H7.43v-.61h3.18zM9 6.05A3 3 0 1012 9a2.95 2.95 0 00-3-2.95zm1.59 4.29H7.43v-.56h3.18zm0-1H7.43v-.59h3.18zm0-1H7.43v-.61h3.18zM9 6.05A3 3 0 1012 9a2.95 2.95 0 00-3-2.95zm1.59 4.29H7.43v-.56h3.18zm0-1H7.43v-.59h3.18zm0-1H7.43v-.61h3.18zM9 6.05A3 3 0 1012 9a2.95 2.95 0 00-3-2.95zm1.59 4.29H7.43v-.56h3.18zm0-1H7.43v-.59h3.18zm0-1H7.43v-.61h3.18zM9 6.05A3 3 0 1012 9a2.95 2.95 0 00-3-2.95zm1.59 4.29H7.43v-.56h3.18zm0-1H7.43v-.59h3.18zm0-1H7.43v-.61h3.18zM9 6.05A3 3 0 1012 9a2.95 2.95 0 00-3-2.95zm1.59 4.29H7.43v-.56h3.18zm0-1H7.43v-.59h3.18zm0-1H7.43v-.61h3.18zM15.27 8a1 1 0 00-1 .74h-.83a4.44 4.44 0 00-1.12-2.65l.58-.58a1.08 1.08 0 00.53.14 1 1 0 10-1-1 1 1 0 00.13.49l-.6.6A4.39 4.39 0 009.3 4.57v-.84a1 1 0 00.74-1 1 1 0 10-1.3 1v.84a4.39 4.39 0 00-2.65 1.1l-.61-.61a1 1 0 00.13-.49 1 1 0 10-1 1 1 1 0 00.52-.14l.6.6A4.43 4.43 0 004.59 8.7h-.86a1 1 0 00-1-.74 1 1 0 101 1.3h.85a4.46 4.46 0 001.08 2.65l-.59.59a1.17 1.17 0 00-.49-.11 1.1 1.1 0 00-1.09 1 1 1 0 00.29.74 1.06 1.06 0 00.76.32 1.1 1.1 0 001.09-1 1 1 0 00-.16-.56l.59-.57a4.41 4.41 0 002.67 1.11v.84a1 1 0 10.56 0v-.85a4.32 4.32 0 002.64-1.11l.59.6a1 1 0 00-.14.52 1 1 0 101-1 .92.92 0 00-.49.13l-.6-.6a4.34 4.34 0 001.1-2.66h.82a.86.86 0 00.27.47 1 1 0 00.74.31 1 1 0 000-2.08zm-1.84-3.91a.48.48 0 010 1 .48.48 0 010-1zm-8.86 1a.48.48 0 01-.48-.48.47.47 0 01.48-.48.48.48 0 01.48.48.49.49 0 01-.48.44zM2.73 9.48A.48.48 0 113.22 9a.49.49 0 01-.49.48zm1.82 4.43a.48.48 0 01-.36-.15.46.46 0 01-.13-.32.52.52 0 01.53-.44.48.48 0 01.35.14.52.52 0 01.14.33.53.53 0 01-.53.44zm8.88-1a.48.48 0 01.48.48.47.47 0 01-.48.48.48.48 0 01-.48-.48.49.49 0 01.48-.39zM8.52 2.73a.48.48 0 11.48.49.49.49 0 01-.48-.49zm1 12.54a.48.48 0 11-.52-.49.49.49 0 01.48.49zM9 12.87A3.87 3.87 0 1112.87 9 3.87 3.87 0 019 12.87zm6.27-3.39a.46.46 0 01-.34-.14.48.48 0 11.34.14zM9 6.05A3 3 0 1012 9a2.95 2.95 0 00-3-2.95zm1.59 4.29H7.43v-.56h3.18zm0-1H7.43v-.59h3.18zm0-1H7.43v-.61h3.18zM9 6.05A3 3 0 1012 9a2.95 2.95 0 00-3-2.95zm1.59 4.29H7.43v-.56h3.18zm0-1H7.43v-.59h3.18zm0-1H7.43v-.61h3.18zM9 6.05A3 3 0 1012 9a2.95 2.95 0 00-3-2.95zm1.59 4.29H7.43v-.56h3.18zm0-1H7.43v-.59h3.18zm0-1H7.43v-.61h3.18zM9 6.05A3 3 0 1012 9a2.95 2.95 0 00-3-2.95zm1.59 4.29H7.43v-.56h3.18zm0-1H7.43v-.59h3.18zm0-1H7.43v-.61h3.18zM9 6.05A3 3 0 1012 9a2.95 2.95 0 00-3-2.95zm1.59 4.29H7.43v-.56h3.18zm0-1H7.43v-.59h3.18zm0-1H7.43v-.61h3.18zM9 6.05A3 3 0 1012 9a2.95 2.95 0 00-3-2.95zm1.59 4.29H7.43v-.56h3.18zm0-1H7.43v-.59h3.18zm0-1H7.43v-.61h3.18zM9 6.05A3 3 0 1012 9a2.95 2.95 0 00-3-2.95zm1.59 4.29H7.43v-.56h3.18zm0-1H7.43v-.59h3.18zm0-1H7.43v-.61h3.18z" fill-opacity="0.54" fill="#000000"></path></svg>