<svg xmlns:xlink="http://www.w3.org/1999/xlink" xmlns="http://www.w3.org/2000/svg" fill="currentColor" fill-rule="evenodd" height="500" viewBox="0 0 24 24" width="500" fit="" preserveAspectRatio="xMidYMid meet" focusable="false"><path d="M6.242 3L4.496 6H6l.5-1H9v1H8l-.5 1H3.915L1 12l1.163 2H7l.537 1H9v1H5.878l-.59-1H2.754l3.488 6H11v-2H7.608L7 18h4v-6H6.5L6 11H3.504L4 10h3.5l.5 1h3V9H8.465l.517-1H11V3z" fill-opacity="0.8" fill="#000000"></path><path d="M13 3v5h2.018l.517 1H13v2h3l.5-1H20l.497 1H18l-.5 1H13v6h4l-.608 1H13v2h4.758l3.49-6h-2.535l-.59 1H15v-1h1.463L17 14h4.837L23 12l-2.914-5H16.5L16 6h-1V5h2.5l.5 1h1.504l-1.746-3z" fill-opacity="0.99" fill="#000000"></path></svg>