<svg xmlns:xlink="http://www.w3.org/1999/xlink" xmlns="http://www.w3.org/2000/svg" data-name="Artwork" viewBox="0 0 24 24" fit="" height="500" width="500" preserveAspectRatio="xMidYMid meet" focusable="false"><path d="M22 20.009H8v-12l7-4.015 7 4.037zm-12-2h10V9.184L15 6.3l-5 2.884z" fill="#000000" opacity=".6" fill-opacity="0.99"></path><path fill="#000000" d="M8.991 4.002L2.005 8.006h4.023l3.496-2.004h1.988l3.467-2H8.991z" fill-opacity="0.99"></path><path fill="#000000" opacity=".8" d="M7.999 20.009v-2H4v-8.003h3.999v-2H2v12.003h5.999zm9.829-10.044a4.011 4.011 0 10-.785 6.251l1.793 1.793H20v-1.664l-1.554-1.554a4 4 0 00-.618-4.826zm-1.414 4.242a2.049 2.049 0 01-2.828 0 2 2 0 112.828 0z" fill-opacity="0.99"></path></svg>