<svg xmlns:xlink="http://www.w3.org/1999/xlink" xmlns="http://www.w3.org/2000/svg" viewBox="0 0 24 24" fit="" height="500" width="500" preserveAspectRatio="xMidYMid meet" focusable="false"><circle cx="12.002" cy="12" r="2" fill="#000000" opacity=".6" fill-opacity="0.99"></circle><path d="M10.286 13.014l-.006.006-.98.98-2.28 2.28a2.1 2.1 0 01.71.71L11 13.721a2 2 0 01-.714-.707z" fill="#000000" fill-opacity="0.99"></path><path d="M17.05 6.95a1.612 1.612 0 01-.3-.4L14 9.3l-.98.98v.005a1.988 1.988 0 01.708.712l.007-.007.99-.99 2.73-2.74a1.954 1.954 0 01-.405-.31zm-6.045 3.325L11 10.27l-1-1-2.74-2.73a1.7 1.7 0 01-.31.41 1.846 1.846 0 01-.39.3l3.73 3.73a2 2 0 01.715-.705z" fill="#000000" opacity=".8" style="isolation:isolate" fill-opacity="0.99"></path><path d="M14.71 14l-.991-.991a1.984 1.984 0 01-.7.706v.005l3.26 3.26a1.984 1.984 0 01.71-.7z" fill="#000000" fill-opacity="0.99"></path><path d="M7.73 16.99A2.032 2.032 0 018 18a2 2 0 11-2-2 1.925 1.925 0 011.02.28L9.3 14H6a4 4 0 00-4 4v4h4a4 4 0 004-4v-3.28z" fill="#000000" opacity=".8" style="isolation:isolate" fill-opacity="0.99"></path><path d="M18 2a4 4 0 00-4 4v3.3l2.75-2.75a1.984 1.984 0 11.7.71L14.72 10H18a4 4 0 004-4V2zM6.56 7.25a2 2 0 11.7-.71L10 9.27V6a4 4 0 00-4-4H2v4a4 4 0 004 4h3.31z" fill="#000000" fill-opacity="0.99"></path><path d="M18 14h-3.29l2.28 2.28A1.941 1.941 0 0118 16a2 2 0 11-2 2 1.977 1.977 0 01.28-1.02L14 14.7V18a4 4 0 004 4h4v-4a4 4 0 00-4-4z" fill="#000000" opacity=".8" style="isolation:isolate" fill-opacity="0.99"></path></svg>