<svg xmlns:xlink="http://www.w3.org/1999/xlink" xmlns="http://www.w3.org/2000/svg" fill="currentColor" fill-rule="evenodd" height="500" viewBox="0 0 24 24" width="500" fit="" preserveAspectRatio="xMidYMid meet" focusable="false"><path d="M19.856 19.173h2.867l-2.87-1.112-.032-12.71h-2.41l.01-2.84h5.31l-.03 4.01.05 15.58-5.32.01.01-2.91h2.44zm-.02-12.597L22.7 5.353h-2.864v1.223z" fill-opacity="0.99" fill="#000000"></path><path d="M19.836 6.576L22.7 5.353h-2.864zm.004 12.594h2.883l-2.873-1.11z" fill-opacity="0.6" fill="#000000"></path><path d="M4.144 19.173H1.277l2.87-1.112.032-12.71h2.41l-.01-2.84H1.27l.034 4.01-.044 15.57 5.32.01-.007-2.91h-2.43zm.02-12.597L1.3 5.353h2.864v1.223z" fill-opacity="0.99" fill="#000000"></path><path d="M4.164 6.576L1.3 5.353h2.864zM4.16 19.17H1.277l2.873-1.11z" fill-opacity="0.6" fill="#000000"></path><path d="M6.867 6.4h10.267v2.567H6.867zm0 4.4h10.267v2.567H6.867zm0 4.4h10.267v2.567H6.867z" fill-opacity="0.99" fill="#000000"></path></svg>