<svg xmlns:xlink="http://www.w3.org/1999/xlink" xmlns="http://www.w3.org/2000/svg" fill="currentColor" height="500" viewBox="0 0 24 24" width="500" fit="" preserveAspectRatio="xMidYMid meet" focusable="false"><path d="M12 1.5h10.5L21 3v7.5h-7.5L12 12V1.5zm4.345 8.002l4.487-4.487-1.26-1.265-3.227 3.227-1.527-1.522-1.26 1.26 2.787 2.787zM2.25 13.5v8.25l1.5-1.5 5.25.002V15l1.5-1.5H2.25zM9 20.25H3.75V15H9v5.25z" fill-opacity="0.99" fill="#000000"></path><path d="M2.25 21.75h8.25L9 20.25H3.75z" fill-opacity="0.8" fill="#000000"></path><path d="M9 15v5.25l1.5 1.5V13.5z" fill-opacity="0.6" fill="#000000"></path><path d="M12 13.5v8.25l1.5-1.5 5.25.002V15l1.5-1.5H12zm6.75 6.75H13.5V15h5.25v5.25z" fill-opacity="0.99" fill="#000000"></path><path d="M12 21.75h8.25l-1.5-1.5H13.5z" fill-opacity="0.8" fill="#000000"></path><path d="M18.75 15v5.25l1.5 1.5V13.5zM12 12h10.5L21 10.5h-7.5z" fill-opacity="0.6" fill="#000000"></path><path d="M21 3v7.5l1.5 1.5V1.5z" fill-opacity="0.8" fill="#000000"></path><path d="M2.25 3.75V12l1.5-1.5 5.25.002V5.25l1.5-1.5H2.25zM9 10.5H3.75V5.25H9v5.25z" fill-opacity="0.99" fill="#000000"></path><path d="M2.25 12h8.25L9 10.5H3.75z" fill-opacity="0.8" fill="#000000"></path><path d="M9 5.25v5.25l1.5 1.5V3.75z" fill-opacity="0.6" fill="#000000"></path></svg>