<svg xmlns:xlink="http://www.w3.org/1999/xlink" xmlns="http://www.w3.org/2000/svg" fill="currentColor" fill-rule="evenodd" height="500" viewBox="0 0 24 24" width="500" fit="" preserveAspectRatio="xMidYMid meet" focusable="false"><path d="M5.345 8.24h2.897v14.484H5.345z" fill-opacity="0.99" fill="#000000"></path><path d="M5.345 5.345h2.897v2.897H5.345zM9.69 9.69h1.448v2.897H9.69z" fill-opacity="0.8" fill="#000000"></path><path d="M11.138 9.69h1.448v2.897h-1.448zm9.414 5.07H22v1.447c0 .8-.643 1.448-1.448 1.448V14.76z" fill-opacity="0.6" fill="#000000"></path><path d="M19.103 14.76h1.448v2.896h-1.44z" fill-opacity="0.8" fill="#000000"></path><path d="M5.345 5.345V8.24H1V6.794c0-.8.653-1.448 1.45-1.448h2.895zm2.896 0h7.97c.8 0 1.45.643 1.45 1.448V8.24H8.24V5.346zM5.35 2.448C5.348 1.648 6 1 6.798 1H20.55c.8 0 1.45.643 1.45 1.448v1.45H5.345v-1.45z" fill-opacity="0.99" fill="#000000"></path><path d="M9.69 14.76h1.448v2.896H9.69z" fill-opacity="0.8" fill="#000000"></path><path d="M11.138 14.76h1.448v2.896h-1.448z" fill-opacity="0.6" fill="#000000"></path><path d="M1 9.69h1.448v2.897H1z" fill-opacity="0.8" fill="#000000"></path><path d="M2.448 9.69h1.448v2.897H2.448z" fill-opacity="0.6" fill="#000000"></path><path d="M1 14.76h1.448v2.896H1z" fill-opacity="0.8" fill="#000000"></path><path d="M2.448 14.76h1.448v2.896H2.448z" fill-opacity="0.6" fill="#000000"></path><path d="M14.76 14.76h1.447v2.896H14.76z" fill-opacity="0.8" fill="#000000"></path><path d="M16.207 14.76h1.448v2.896h-1.448z" fill-opacity="0.6" fill="#000000"></path><path d="M14.76 9.69h1.447v2.897H14.76z" fill-opacity="0.8" fill="#000000"></path><path d="M16.207 9.69h1.448v2.897h-1.448z" fill-opacity="0.6" fill="#000000"></path><path d="M19.103 9.69h1.448v2.897h-1.44z" fill-opacity="0.8" fill="#000000"></path><path d="M20.552 9.69H22v2.897h-1.448z" fill-opacity="0.6" fill="#000000"></path><path d="M19.103 5.345h1.448v2.897h-1.44z" fill-opacity="0.8" fill="#000000"></path><path d="M20.552 5.345H22v2.897h-1.448zm-4.345 14.483h1.448v1.448c0 .8-.643 1.448-1.448 1.448v-2.896z" fill-opacity="0.6" fill="#000000"></path><path d="M2.448 19.828v2.896c-.8 0-1.448-.643-1.448-1.448v-1.448h1.448zm7.242 0h1.448v2.897H9.69z" fill-opacity="0.8" fill="#000000"></path><path d="M2.448 19.828h1.448v2.897H2.448z" fill-opacity="0.6" fill="#000000"></path><path d="M14.76 19.828h1.447v2.897H14.76z" fill-opacity="0.8" fill="#000000"></path><path d="M11.138 19.828h1.448v2.897h-1.448z" fill-opacity="0.6" fill="#000000"></path></svg>