<svg xmlns:xlink="http://www.w3.org/1999/xlink" xmlns="http://www.w3.org/2000/svg" fill="currentColor" fill-rule="evenodd" height="500" viewBox="0 0 24 24" width="500" fit="" preserveAspectRatio="xMidYMid meet" focusable="false"><path d="M5.336 19.49a3.556 3.556 0 1 1-.002-7.112 3.556 3.556 0 0 1 .002 7.112zm4.365-.486c.6-.86.95-1.9.95-3.022a5.32 5.32 0 0 0-5.32-5.315 5.32 5.32 0 0 0-4.68 7.85 5.34 5.34 0 0 0 2.38 2.257c.7.336 1.48.524 2.31.524a5.3 5.3 0 0 0 3.02-.938l3.51 3.523a.4.4 0 0 0 .57.002l.8-.79a.398.398 0 0 0 0-.564L9.7 19.01z" fill-opacity="0.8" fill-rule="nonzero" fill="#000000"></path><path d="M11.76 17.493c.17-.573.263-1.18.263-1.806 0-3.59-3.023-6.502-6.752-6.502a6.95 6.95 0 0 0-2.3.39V4.852a1 1 0 0 1 1-1h18.92a1 1 0 0 1 1 1v11.64a1 1 0 0 1-1 1H11.76z" fill-rule="nonzero" fill-opacity="0.99" fill="#000000"></path><path d="M16.296 3.852V2.074h-5.333V3.21l-1.778.642V1.296a1 1 0 0 1 1-1h6.89a1 1 0 0 1 1 1v2l-1.768.556h-.01z" fill-opacity="0.8" fill="#000000"></path><path d="M16.296 3.86l1.78-.57v.57zm-7.128-.005l1.786-.645v.645z" fill-opacity="0.6" fill="#000000"></path></svg>