<svg xmlns:xlink="http://www.w3.org/1999/xlink" xmlns="http://www.w3.org/2000/svg" fill="currentColor" height="500" viewBox="0 0 24 24" width="500" fit="" preserveAspectRatio="xMidYMid meet" focusable="false"><path d="M17.2 3.392h-6.632l1.768 2.8H14.8v1.6h-3.508L8.5 3.392H.008v5.2H2.4l1.512-2.8H7l1.024 1.6H4.94l-1.512 2.8H.008v3.1h3.42l1.512 2.9h3.084L7 17.792H3.912l-1.512-2.8H.008v5.2H8.5l2.792-4.4H14.8v1.6h-2.464l-1.768 2.8H17.2v-7.6H9.5l-.988 1.6H6.3l1.516-2.4-1.516-2.4h2.212l.956 1.6H17.2z" fill-opacity="0.99" fill="#000000"></path><path d="M23.996 4.72L19.2 8.204v7.324l4.796 3.536z" fill-opacity="0.8" fill="#000000"></path></svg>