<svg xmlns:xlink="http://www.w3.org/1999/xlink" xmlns="http://www.w3.org/2000/svg" viewBox="0 0 24 24" fit="" height="500" width="500" preserveAspectRatio="xMidYMid meet" focusable="false"><path d="M4.982 2.969V8h14V2.969zm7.005 3h-5v-1h5.005zm4.495 0a.5.5 0 11.5-.5.5.5 0 01-.5.5z" fill="#000000" fill-opacity="0.99"></path><path d="M9.5 19.969H6.982v-1h2.406a4.486 4.486 0 01.477-2H4.982V22h5.584A4.475 4.475 0 019.5 19.969zm9.582 2.015h-5.2a2.991 2.991 0 01-1.4-5.635 3.953 3.953 0 014.044-3.371 3.994 3.994 0 014.048 3.422 2.991 2.991 0 01-1.492 5.585zm-2.559-8.006a2.935 2.935 0 00-3.068 2.716l-.009.327-.3.122a1.991 1.991 0 00.739 3.841h5.2a1.991 1.991 0 00.808-3.812l-.291-.13-.006-.318a2.96 2.96 0 00-3.073-2.746z" fill="#000000" opacity=".6" fill-opacity="0.99"></path><path d="M16.523 11.478a5.715 5.715 0 012.459.566V9.969h-14V15h6.307a5.513 5.513 0 015.234-3.522zm-9.541.491h5.005v1h-5z" fill="#000000" opacity=".8" fill-opacity="0.99"></path></svg>