<svg xmlns:xlink="http://www.w3.org/1999/xlink" xmlns="http://www.w3.org/2000/svg" height="500" viewBox="0 0 24 24" width="500" fit="" preserveAspectRatio="xMidYMid meet" focusable="false"><path d="M6.344 13.507a4.28 4.28 0 0 1 4.282 4.278 4.28 4.28 0 0 1-4.282 4.277 4.28 4.28 0 0 1-4.282-4.277 4.28 4.28 0 0 1 4.282-4.278zm-.034 1.866l-.65.654 1.377 1.385H3.93v.927h3.11l-1.38 1.38.65.65 2.494-2.51zm15.752-13.31v12.523h-4.32V18.9h-6.276a5.243 5.243 0 0 0 .083-1.828h4.36v-4.315h4.32V3.892h-8.88v4.315H7.03v4.36a5.29 5.29 0 0 0-1.83.082V6.37h4.32V2.06zm-3.615 3.61v5.3h-4.32v4.316h-3.15a5.256 5.256 0 0 0-2.154-2.16V9.99l4.32-.002V5.675z" fill="#000000" fill-rule="evenodd" fill-opacity="0.99"></path></svg>