<svg xmlns:xlink="http://www.w3.org/1999/xlink" xmlns="http://www.w3.org/2000/svg" viewBox="0 0 24 24" fit="" height="500" width="500" preserveAspectRatio="xMidYMid meet" focusable="false"><circle cx="9" cy="11" r="2" fill="#000000" fill-opacity="0.99"></circle><circle cx="15" cy="13" r="2" fill="#000000" fill-opacity="0.99"></circle><path d="M12 3c-4.962 0-9 4.037-9 9v.092A1.496 1.496 0 003.5 15a1.495 1.495 0 00.5-2.908V12c0-4.411 3.589-8 8-8 3.431 0 6.356 2.176 7.49 5.216.302-.134.635-.211.985-.215C19.236 5.51 15.909 3 12 3z" fill="#000000" opacity=".6" fill-opacity="0.99"></path><path d="M22 11.5a1.5 1.5 0 00-3 0c0 .633.393 1.171.947 1.392C19.502 16.884 16.109 20 12 20c-3.118 0-5.819-1.798-7.138-4.407a2.488 2.488 0 01-.933.365C5.397 18.939 8.458 21 12 21c4.651 0 8.489-3.546 8.953-8.077A1.495 1.495 0 0022 11.5z" fill="#000000" opacity=".8" fill-opacity="0.99"></path><path d="M9 9c.366 0 .705.105 1 .277V7H8v2.277A1.977 1.977 0 019 9zm0 4c-.366 0-.705-.105-1-.277V17h2v-4.277A1.977 1.977 0 019 13zm6-2c.366 0 .705.106 1 .277V7h-2v4.277A1.977 1.977 0 0115 11zm0 4c-.366 0-.705-.106-1-.277V17h2v-2.277A1.977 1.977 0 0115 15z" opacity=".6" fill="#000000" fill-opacity="0.99"></path></svg>