<svg xmlns:xlink="http://www.w3.org/1999/xlink" xmlns="http://www.w3.org/2000/svg" viewBox="0 0 18 18" fit="" height="500" width="500" preserveAspectRatio="xMidYMid meet" focusable="false"><path d="M12.406 12.604l-1.414-1.414 2.188-2.188-2.188-2.189 1.414-1.414 3.602 3.603-3.602 3.602zM2 6h2v2H2zm0 4h2v2H2z" fill-opacity="0.54" fill="#000000"></path><path d="M4.638 16H2v-2h2.638a.986.986 0 00.877-.535l2.003-3.854a2.981 2.981 0 012.651-1.612h3.33v2h-3.33a.986.986 0 00-.877.535l-2.003 3.854A2.981 2.981 0 014.638 16z" fill-opacity="0.54" fill="#000000"></path><path d="M13.5 10h-3.33a2.98 2.98 0 01-2.651-1.612L5.516 4.534a.986.986 0 00-.877-.535H2V2h2.638a2.98 2.98 0 012.651 1.612l2.003 3.854c.171.33.508.535.877.535h3.33v2z" fill-opacity="0.54" fill="#000000"></path></svg>