<svg xmlns:xlink="http://www.w3.org/1999/xlink" xmlns="http://www.w3.org/2000/svg" fill="currentColor" fill-rule="evenodd" height="500" viewBox="0 0 24 24" width="500" fit="" preserveAspectRatio="xMidYMid meet" focusable="false"><path d="M3 7h9v2H3z" opacity=".4" fill-opacity="0.99" fill="#000000"></path><path d="M12 7h9v2h-9z" opacity=".3" fill-opacity="0.99" fill="#000000"></path><path d="M5 11h14v2H5z" opacity=".6" fill-opacity="0.99" fill="#000000"></path><path d="M4 5a1 1 0 0 0-1 1v1h9V5H4z" fill-opacity="0.99" fill="#000000"></path><path d="M20 5h-8v2h9V6a1 1 0 0 0-1-1z" opacity=".9" fill-opacity="0.99" fill="#000000"></path><path d="M12 11V9H3v9a1 1 0 0 0 1 1l8-.004V13H5v-2h7zm-4 4v2H5v-2h3z" fill-opacity="0.99" fill="#000000"></path><path d="M5 15h3v2H5z" opacity=".4" fill-opacity="0.99" fill="#000000"></path><path d="M12 9v2h7v2h-7v5.996l8-.004a1 1 0 0 0 1-1V9h-9zm3 7h-1v-1h1v1zm3 0h-1v-1h1v1z" opacity=".9" fill-opacity="0.99" fill="#000000"></path><path d="M14 15h1v1h-1zm3 0h1v1h-1z" opacity=".6" fill-opacity="0.99" fill="#000000"></path></svg>