<svg xmlns:xlink="http://www.w3.org/1999/xlink" xmlns="http://www.w3.org/2000/svg" fill="currentColor" width="500" height="501.5432098765432" viewBox="0 0 19.44 19.5" fit="" preserveAspectRatio="xMidYMid meet" focusable="false"><path d="M12.92 7.35v4.76l1.73-.8v-4zm-3.73 0v8.27h1.79V7.35zm-7.56 0v8.28h1.81V7.35zm3.75 0v8.27h1.86V7.35z" fill-rule="evenodd" opacity=".6" fill-opacity="0.99" fill="#000000"></path><path d="M14.93 15.31l-.44.44 1.26 1.29.59-.61v3.07a4.06 4.06 0 0 1-1-.44 4.7 4.7 0 0 1-2.07-3.5v-2.62l3.17-1.45v4l-.69.66z" fill-opacity="0.99" fill="#000000"></path><path d="M7.02 4.27a1.12 1.12 0 0 0 1.12 1.12v2H0V5.75L8.14.04v3.11a1.12 1.12 0 0 0-1.12 1.12z" fill-rule="evenodd" fill-opacity="0.99" fill="#000000"></path><path d="M16.28 5.75v1.6H8.14v-2a1.12 1.12 0 0 0 0-2.24V0zm-3.53 11.5H8.14v-1.63h4.17v.06a5.41 5.41 0 0 0 .44 1.57z" fill-rule="evenodd" opacity=".8" fill-opacity="0.99" fill="#000000"></path><path d="M8.14 15.61v1.64H0v-1.62z" fill-opacity="0.99" fill="#000000"></path><path d="M16.33 11.49v4l1.48-1.52.43.45-1.91 2v3.07h.05a4.06 4.06 0 0 0 1-.44 4.69 4.69 0 0 0 2.06-3.5v-2.61z" fill-rule="evenodd" opacity=".8" fill-opacity="0.99" fill="#000000"></path></svg>