<svg xmlns:xlink="http://www.w3.org/1999/xlink" xmlns="http://www.w3.org/2000/svg" fill="currentColor" fill-rule="evenodd" height="500" viewBox="0 0 24 24" width="500" fit="" preserveAspectRatio="xMidYMid meet" focusable="false"><path d="M7.787 16.485l.033-.132.99-1.793h8.195c.825 0 1.55-.45 1.925-1.133l4.246-7.71-1.914-1.057h-.01l-1.21 2.2-3.037 5.5H9.283l-.143-.297L6.676 6.86 5.63 4.66l-1.033-2.2H1v2.2h2.2l3.96 8.35-1.485 2.694c-.176.308-.275.67-.275 1.056 0 1.21.99 2.2 2.2 2.2h13.2v-2.2H8.062a.28.28 0 0 1-.275-.275z" fill-rule="nonzero" fill-opacity="0.99" fill="#000000"></path><path d="M9.052 19.875A2.06 2.06 0 0 0 7 21.938 2.06 2.06 0 0 0 9.052 24a2.07 2.07 0 0 0 2.063-2.063 2.07 2.07 0 0 0-2.063-2.062zm9 0A2.06 2.06 0 0 0 16 21.938 2.06 2.06 0 0 0 18.052 24a2.07 2.07 0 0 0 2.063-2.063 2.07 2.07 0 0 0-2.063-2.062z" fill-opacity="0.6" fill="#000000"></path><path d="M13.455 0l5.477 5.477h-5.477z" opacity=".8" fill-opacity="0.99" fill="#000000"></path><path d="M18.932 5.477l-5.477 5.478V5.477z" opacity=".6" fill-opacity="0.99" fill="#000000"></path><path d="M13.455 0v5.477H7.977z" fill-opacity="0.99" fill="#000000"></path><path d="M13.455 5.477v5.478L7.977 5.477z" opacity=".8" fill-opacity="0.99" fill="#000000"></path></svg>