<svg xmlns:xlink="http://www.w3.org/1999/xlink" xmlns="http://www.w3.org/2000/svg" viewBox="0 0 24 24" fit="" height="500" width="500" preserveAspectRatio="xMidYMid meet" focusable="false"><path d="M20 13.91a.74.74 0 00-1-.16l-6.4 4.72a1.46 1.46 0 01.89 1.22L19.86 15a.75.75 0 00.14-1.09z" fill="#000000" opacity=".8" fill-opacity="0.99"></path><path d="M11.43 18.47L5 13.75a.74.74 0 00-1 .16.75.75 0 00.14 1.09l6.4 4.72a1.48 1.48 0 01.89-1.25z" fill="#000000" fill-opacity="0.99"></path><path d="M12 18.35a1.47 1.47 0 101.47 1.47A1.47 1.47 0 0012 18.35zm0 2.19a.72.72 0 11.72-.72.72.72 0 01-.72.72z" fill="#000000" opacity=".6" fill-opacity="0.99"></path><path d="M6 6.11a.74.74 0 01-.75-.75V3.48a.75.75 0 011.5 0v1.88a.74.74 0 01-.75.75z" fill="#000000" fill-opacity="0.99"></path><circle cx="5.98" cy="12.01" r=".76" fill="#000000" fill-opacity="0.99"></circle><circle cx="5.98" cy="9.79" r=".76" fill="#000000" fill-opacity="0.99"></circle><circle cx="5.98" cy="7.58" r=".76" fill="#000000" fill-opacity="0.99"></circle><g opacity=".6" fill="#000000" fill-opacity="0.99"><path d="M18 8.31a.75.75 0 01-.75-.75V5.68a.75.75 0 111.5 0v1.88a.75.75 0 01-.75.75z" fill-opacity="0.99"></path><circle cx="18.02" cy="12.02" r=".76" fill-opacity="0.99"></circle><circle cx="18.02" cy="9.77" r=".76" fill-opacity="0.99"></circle><circle cx="18.02" cy="3.48" r=".76" fill-opacity="0.99"></circle></g><g opacity=".8" fill="#000000" fill-opacity="0.99"><path d="M12 15a.75.75 0 01-.75-.76v-1.89a.75.75 0 011.5 0v1.88A.75.75 0 0112 15z" fill-opacity="0.99"></path><circle cx="12" cy="16.45" r=".76" fill-opacity="0.99"></circle><circle cx="12" cy="10.14" r=".76" fill-opacity="0.99"></circle><circle cx="12" cy="7.93" r=".76" fill-opacity="0.99"></circle></g><g opacity=".6" fill="#000000" fill-opacity="0.99"><path d="M15 10.55a.76.76 0 01-.75-.76V7.91a.75.75 0 011.5 0v1.88a.75.75 0 01-.75.76z" fill-opacity="0.99"></path><circle cx="15.01" cy="5.7" r=".76" fill-opacity="0.99"></circle><circle cx="15.01" cy="14.2" r=".76" fill-opacity="0.99"></circle><circle cx="15.01" cy="11.98" r=".76" fill-opacity="0.99"></circle></g><circle cx="8.99" cy="14.2" r=".76" fill="#000000" fill-opacity="0.99"></circle><circle cx="8.99" cy="7.93" r=".76" fill="#000000" fill-opacity="0.99"></circle><circle cx="8.99" cy="5.7" r=".76" fill="#000000" fill-opacity="0.99"></circle><path d="M9 12.74a.75.75 0 01-.76-.74v-1.9a.75.75 0 011.5 0V12a.76.76 0 01-.74.74z" fill="#000000" fill-opacity="0.99"></path></svg>