<svg xmlns:xlink="http://www.w3.org/1999/xlink" xmlns="http://www.w3.org/2000/svg" width="500" height="500" viewBox="0 0 18 18" fit="" preserveAspectRatio="xMidYMid meet" focusable="false"><path d="M11 8v2H7V8H5l4-3 4 3h-2zm3.993-6C15.55 2 16 2.426 16 2.936v9.33c0 .514-.443.734-1 .734h-3.994L11 14.134h2.004c.55 0 .995.414.995.932V16H3.99v-.934c0-.516.456-.932.995-.932H6.99L7.007 13h-3.99c-.556 0-1.01-.22-1.016-.735v-9.33C2 2.42 2.45 2 3.01 2h11.986zM14 4H4v7h10V4z" fill-opacity="0.54" fill="#000000"></path></svg>