<svg xmlns:xlink="http://www.w3.org/1999/xlink" xmlns="http://www.w3.org/2000/svg" fill="currentColor" fill-rule="evenodd" height="500" viewBox="0 0 24 24" width="500" fit="" preserveAspectRatio="xMidYMid meet" focusable="false"><path d="M7 11v1.922c.25.87 1.176 1.48 2 1.85V11H7z" opacity=".6" fill-opacity="0.99" fill="#000000"></path><path d="M10 9v5.933c.34.04.688.067 1.045.067.326 0 .643-.023.955-.058V9h-2z" fill-opacity="0.99" fill="#000000"></path><path d="M13.007 12v2.7c.836-.373 1.618-.825 2-1.85V12h-2zm7.883 7.072l-3.19-3.188a.363.363 0 0 0-.304-.095 7.8 7.8 0 0 1-1.61 1.6.37.37 0 0 0 .097.3l3.187 3.18a.38.38 0 0 0 .537 0l1.28-1.28a.38.38 0 0 0 0-.54z" opacity=".6" fill-opacity="0.99" fill="#000000"></path><path d="M11 3a8 8 0 1 0 0 16 8 8 0 0 0 0-16m0 14a6 6 0 1 1 0-12 6 6 0 0 1 0 12" fill-opacity="0.99" fill="#000000"></path></svg>