<svg xmlns:xlink="http://www.w3.org/1999/xlink" xmlns="http://www.w3.org/2000/svg" width="500" height="500" viewBox="0 0 18 18" fit="" preserveAspectRatio="xMidYMid meet" focusable="false"><path d="M11.25.75h-4.5v1.5h4.5V.75zm-3 9.75h1.5V6h-1.5v4.5zm6.023-4.957l1.065-1.066A8.286 8.286 0 0 0 14.28 3.42l-1.065 1.065A6.72 6.72 0 0 0 9 3a6.75 6.75 0 1 0 6.75 6.75 6.72 6.72 0 0 0-1.477-4.207zM9 15a5.246 5.246 0 0 1-5.25-5.25A5.246 5.246 0 0 1 9 4.5a5.246 5.246 0 0 1 5.25 5.25A5.246 5.246 0 0 1 9 15z" fill-opacity="0.54" fill="#000000"></path></svg>