<svg xmlns:xlink="http://www.w3.org/1999/xlink" xmlns="http://www.w3.org/2000/svg" width="500" height="500" viewBox="0 0 18 18" fit="" preserveAspectRatio="xMidYMid meet" focusable="false"><path d="M10 4h6a1 1 0 0 1 1 1v11a1 1 0 0 1-1 1H5a1 1 0 0 1-1-1v-6 5h11V4h-5zM9 7.586V5H7v3.4l2.354 2.368 1.414-1.414L9 7.586zM2 3.002C2 2.45 2.456 2 3.002 2h9.996C13.55 2 14 2.456 14 3.002v9.996C14 13.55 13.544 14 12.998 14H3.002A1.007 1.007 0 0 1 2 12.998V3.002zM8 12.5a4.5 4.5 0 1 0 0-9 4.5 4.5 0 0 0 0 9z" fill-rule="evenodd" fill-opacity="0.54" fill="#000000"></path></svg>