<svg xmlns:xlink="http://www.w3.org/1999/xlink" xmlns="http://www.w3.org/2000/svg" fill="currentColor" fill-rule="evenodd" height="500" viewBox="0 0 24 24" width="500" fit="" preserveAspectRatio="xMidYMid meet" focusable="false"><path d="M11.095 10.187a4.06 4.06 0 0 1-1.67-.365l1.36.785c1.284.46 2.93.208 3.648-.328l-1.218-.71c-.62.38-1.34.61-2.12.61z" opacity=".4" fill-opacity="0.99" fill="#000000"></path><path d="M14.64 4.05A4.107 4.107 0 0 0 11.093 2C10 2 8.973 2.427 8.2 3.2A4.066 4.066 0 0 0 7 6.095l.003 7.088c.8.363 1.765 1.203 1.996 2.36v-5.94a4.09 4.09 0 0 0 2.09.583 4.098 4.098 0 0 0 3.55-6.136zm-3.545 4.03a1.985 1.985 0 0 1-1.407-3.39 1.975 1.975 0 0 1 1.406-.582 1.983 1.983 0 0 1 1.988 1.987 1.99 1.99 0 0 1-1.986 1.988z" fill-opacity="0.99" fill="#000000"></path><path d="M8.637 15.326c.153.266.36.82.363.826v-.61c-.232-1.157-1.2-1.998-2-2.36v.58a4.06 4.06 0 0 1 1.637 1.564z" opacity=".4" fill-opacity="0.99" fill="#000000"></path><path d="M13.276 17.373c-.104-.907.453-2.36 1.157-3.1L9 17.413v-1.26s-.21-.56-.363-.828A4.066 4.066 0 0 0 6.15 13.42a4.066 4.066 0 0 0-3.106.41 4.1 4.1 0 0 0-1.497 5.59v.002A4.098 4.098 0 0 0 7.14 20.92l6.137-3.548zm-7.19 1.722a1.99 1.99 0 0 1-2.714-.726v-.01a1.99 1.99 0 0 1 2.234-2.92 1.99 1.99 0 0 1 .48 3.64z" opacity=".95" fill-opacity="0.99" fill="#000000"></path><path d="M14.362 14.964a4.045 4.045 0 0 1 1.42-1.43l.002-.044-1.35.782c-.705.74-1.262 2.194-1.158 3.1l.544-.313a4.08 4.08 0 0 1 .542-2.1z" opacity=".4" fill-opacity="0.99" fill="#000000"></path><path d="M21.453 14.96a4.094 4.094 0 0 0-1.5-1.496l-5.52-3.185c-.718.53-2.364.78-3.647.32l5.032 2.9c-.594.35-1.1.84-1.456 1.45a4.09 4.09 0 0 0 1.5 5.59 4.09 4.09 0 0 0 3.107.41 4.067 4.067 0 0 0 2.48-1.91 4.108 4.108 0 0 0 0-4.1zm-1.823 3.043c-.265.46-.694.79-1.207.926a1.984 1.984 0 0 1-2.237-2.92A1.99 1.99 0 0 1 19.63 16a1.997 1.997 0 0 1 0 1.99z" opacity=".9" fill-opacity="0.99" fill="#000000"></path></svg>