<svg xmlns:xlink="http://www.w3.org/1999/xlink" xmlns="http://www.w3.org/2000/svg" width="500" height="500" viewBox="0 0 24 24" fit="" preserveAspectRatio="xMidYMid meet" focusable="false"><path d="M12.346 2c.71 0 1.31.393 1.8 1.057.4.54.745 1.287 1.03 2.203.563 1.8.88 4.205.88 6.764 0 2.558-.317 4.963-.88 6.763-.285.916-.63 1.662-1.03 2.203-.49.664-1.09 1.057-1.8 1.057-1.623 0-2.627-1.418-3.162-3.838a.7.7 0 0 1-.014-.22h1.63c.22.98.496 1.94.803 2.26.205.21.413.28.743.28.007 0 .014 0 .026-.01a.378.378 0 0 0 .087-.05c.1-.07.21-.18.34-.35.28-.39.56-1 .81-1.77.51-1.66.81-3.92.81-6.35s-.3-4.69-.82-6.35c-.25-.78-.53-1.38-.81-1.77a1.448 1.448 0 0 0-.34-.35.378.378 0 0 0-.09-.05.084.084 0 0 0-.03-.01c-.27 0-.5.12-.76.46-.33.43-.61 1.14-.83 2.13H9.1c.264-1.33.644-2.32 1.154-3 .548-.72 1.268-1.1 2.092-1.1zm.22 12.5v1.51H4.642a.755.755 0 0 1 0-1.51h7.924zm8.68-1.604a.755.755 0 0 1 0 1.51H17.5c.062-.49.106-.996.132-1.51h3.61zm-8.68-1.604v1.51h-9.81a.755.755 0 1 1 0-1.51h9.81zm4.985-1.604h3.7a.755.755 0 0 1 .11 1.503l-.1.01h-3.6a20.563 20.563 0 0 0-.1-1.51zm-4.98-1.603v1.51H4.65a.755.755 0 0 1-.11-1.505l.102-.007h7.924z" fill="#000000" fill-rule="evenodd" fill-opacity="0.99"></path></svg>