<svg xmlns:xlink="http://www.w3.org/1999/xlink" xmlns="http://www.w3.org/2000/svg" viewBox="0 0 24 24" fit="" height="500" width="500" preserveAspectRatio="xMidYMid meet" focusable="false"><path d="M4.551 9H2V7h2.551a3.007 3.007 0 001.92-.7l3.776-3.146A5.013 5.013 0 0113.448 2h2.512v2h-2.512a3 3 0 00-1.92.7L7.751 7.841A5.008 5.008 0 014.551 9zm11.576 13h-2.679a5.017 5.017 0 01-3.2-1.159L6.472 17.7a3.011 3.011 0 00-1.921-.7H2v-2h2.551a5.013 5.013 0 013.2 1.159l3.775 3.146a3.009 3.009 0 001.921.7h2.679z" fill="#000000" opacity=".6" fill-opacity="0.99"></path><circle cx="19.999" cy="12" r="2" fill="#000000" opacity=".8" fill-opacity="0.99"></circle><circle cx="14.999" cy="7" r="2" fill="#000000" fill-opacity="0.99"></circle><circle cx="9.999" cy="19" r="2" fill="#000000" fill-opacity="0.99"></circle><path d="M18 12a1.978 1.978 0 01.278-1h-7.517l-1.01.841c-.071.06-.153.1-.228.159.075.055.157.1.229.159l1.009.841h7.516A1.978 1.978 0 0118 12z" fill="#000000" fill-opacity="0.99"></path><path d="M20.039 8V6h-3.317a1.944 1.944 0 010 2zm-4.591 8a3.009 3.009 0 01-1.921-.7l-3.775-3.141c-.072-.06-.154-.1-.229-.159.075-.056.157-.1.228-.159L13.528 8.7c.068-.056.144-.1.216-.15a1.951 1.951 0 01-.707-1.917 5.007 5.007 0 00-.79.531l-3.776 3.141a3.007 3.007 0 01-1.92.7H2v2h4.551a3.011 3.011 0 011.921.7l3.774 3.146A5.017 5.017 0 0015.448 18h4.668v-2z" opacity=".8" fill="#000000" fill-opacity="0.99"></path></svg>