<svg xmlns:xlink="http://www.w3.org/1999/xlink" xmlns="http://www.w3.org/2000/svg" fill="currentColor" fill-rule="evenodd" height="500" viewBox="0 0 24 24" width="500" fit="" preserveAspectRatio="xMidYMid meet" focusable="false"><path d="M17.458 22.14l.764 1.34 1.948-1.125-1.112-1.918z" opacity=".8" fill-opacity="0.99" fill="#000000"></path><path d="M17.458 22.146l-.492-.845c.404-.26.705-.47.903-.62.19-.15.49-.4.89-.77l.3.53-1.61 1.71z" fill-opacity="0.99" fill="#000000"></path><path d="M6.553 22.25l-.71 1.23-1.946-1.125.972-1.7z" opacity=".8" fill-opacity="0.99" fill="#000000"></path><path d="M4.875 20.66l.308-.537c.382.322.68.562.896.72.21.158.52.36.93.607l-.46.795-1.68-1.586z" fill-opacity="0.99" fill="#000000"></path><path d="M4.996.724L1.24 4.48l1.61 1.608 3.756-3.755zm13.786 0l3.755 3.755-1.61 1.6-3.755-3.76z" fill-opacity="0.8" fill="#000000"></path><path d="M11.862 22.724C6.415 22.724 2 18.31 2 12.862S6.415 3 11.862 3s9.862 4.415 9.862 9.862-4.415 9.862-9.862 9.862zm0-2.655a7.207 7.207 0 1 0 0-14.42 7.207 7.207 0 0 0 0 14.41zm-.162-1.74a5.382 5.382 0 0 1-4.39-2.27l4.39-3.13V7.55a5.39 5.39 0 0 1 0 10.777z" fill-opacity="0.6" fill="#000000"></path></svg>