<svg xmlns:xlink="http://www.w3.org/1999/xlink" xmlns="http://www.w3.org/2000/svg" fill="currentColor" width="500" height="500" viewBox="0 0 22 22" fit="" preserveAspectRatio="xMidYMid meet" focusable="false"><path d="M3.522 11l1.453-1.453L3 7.573A3.233 3.233 0 0 1 7.574 3l1.974 1.975L11 3.522 9.026 1.55C8.026.55 6.7 0 5.288 0A5.293 5.293 0 0 0 0 5.288c0 1.41.55 2.74 1.55 3.74L3.52 11zm14.956 0l-1.453 1.453L19 14.427A3.234 3.234 0 0 1 14.427 19l-1.974-1.976L11 18.477l1.974 1.974c1 1 2.326 1.55 3.738 1.55 1.413 0 2.74-.55 3.74-1.55A5.25 5.25 0 0 0 22 16.72c0-1.413-.55-2.74-1.55-3.74L18.48 11z" opacity=".8" fill-opacity="0.99" fill="#000000"></path><path d="M7.574 19A3.233 3.233 0 0 1 3 14.425l1.975-1.973 4.572 4.572L7.574 19zm6.853-16A3.233 3.233 0 0 1 19 7.573L17.024 9.55 12.45 4.978 14.428 3zM11 14.505a3.504 3.504 0 0 1 0-7.007 3.504 3.504 0 0 1 0 7.007h-.002zM18.478 11l1.973-1.974c1-1 1.55-2.326 1.55-3.74A5.294 5.294 0 0 0 16.72 0c-1.412 0-2.74.55-3.74 1.55L11 3.522 3.522 11 1.55 12.974c-1 1-1.55 2.326-1.55 3.74 0 1.41.55 2.738 1.55 3.737.997 1 2.325 1.55 3.737 1.55s2.74-.55 3.74-1.55L11 18.48 18.478 11z" fill-opacity="0.99" fill="#000000"></path></svg>