<svg xmlns:xlink="http://www.w3.org/1999/xlink" xmlns="http://www.w3.org/2000/svg" fill="currentColor" height="500" viewBox="0 0 24 24" width="500" fit="" preserveAspectRatio="xMidYMid meet" focusable="false"><path fill="#000000" d="M18.067 19.534L3.283 1 5.5 11l5 6.5 7.567 2.034z" opacity=".8" fill-opacity="0.99"></path><path fill="#000000" d="M5.11 3.328c2.35.451 6.472 1.804 9.676 5.8 3.331 4.142 2.688 7.498 2.172 8.903a7.889 7.889 0 01-.77.042c-1.908 0-4.764-.734-7.558-4.216A15.848 15.848 0 015.11 3.328zM3.255 1s-1.708 7.383 3.72 14.158c3.384 4.215 6.979 5.012 9.213 5.012 1.36 0 2.214-.293 2.214-.293s3.447-5.307-1.972-12.06C11.013 1.063 3.255 1 3.255 1z" fill-opacity="0.99"></path><path fill="#000000" d="M20.869 22.766c-.455.357-1.143.304-1.513-.147l-3.057-3.761 1.862-1.093 2.845 3.54c.37.463.317 1.103-.137 1.46z" fill-opacity="0.99"></path></svg>