<svg xmlns:xlink="http://www.w3.org/1999/xlink" xmlns="http://www.w3.org/2000/svg" viewBox="0 0 24 24" fit="" height="500" width="500" preserveAspectRatio="xMidYMid meet" focusable="false"><path fill="#000000" d="M14.411 18.991l-1.414-1.414 2.589-2.589-2.589-2.59 1.414-1.414 4.003 4.004-4.003 4.003zm-4.822 0l-4.003-4.003 4.003-4.004 1.414 1.414-2.589 2.59 2.589 2.589-1.414 1.414z" opacity=".6" fill-opacity="0.99"></path><circle cx="17.964" cy="5.999" r="1" fill="#000000" opacity=".8" fill-opacity="0.99"></circle><path d="M19 22h-7v-2h7a1 1 0 001-1v-9h2v9a3 3 0 01-3 3z" fill="#000000" opacity=".6" fill-opacity="0.99"></path><path d="M12 22H5a3 3 0 01-3-3v-9h2v9a1 1 0 001 1h7z" fill="#000000" opacity=".8" fill-opacity="0.99"></path><path d="M19 2H5a3 3 0 00-3 3v5h20V5a3 3 0 00-3-3zM4 8V5a1 1 0 011-1h14a1 1 0 011 1v3z" fill="#000000" fill-opacity="0.99"></path></svg>