<svg xmlns:xlink="http://www.w3.org/1999/xlink" xmlns="http://www.w3.org/2000/svg" fill="currentColor" height="500" viewBox="0 0 24 24" width="500" fit="" preserveAspectRatio="xMidYMid meet" focusable="false"><path d="M10 17.8h4V20h-4z" opacity=".6" fill-opacity="0.99" fill="#000000"></path><path d="M8 20h8v2H8z" opacity=".8" fill-opacity="0.99" fill="#000000"></path><path d="M21 2H3c-1.1 0-2 .9-2 2v11.9c0 1.1.9 2 2 2h18c1.1 0 2-.9 2-2V4c0-1.1-.9-2-2-2zm-4 13h-4v-2h4v2zm.1-4.8l-9.9 4.1v-2.1l7.2-3.1-7.2-3v-2l9.9 4.1v2z" fill-opacity="0.99" fill="#000000"></path></svg>