<svg xmlns:xlink="http://www.w3.org/1999/xlink" xmlns="http://www.w3.org/2000/svg" fill="currentColor" fill-rule="evenodd" height="500" viewBox="0 0 24 24" width="500" fit="" preserveAspectRatio="xMidYMid meet" focusable="false"><path d="M10 18h4v2h-4z" opacity=".6" fill-opacity="0.99" fill="#000000"></path><path d="M21 4.782C21 4.35 20.676 4 20.277 4H3.723c-.4 0-.723.35-.723.782v12.436c0 .432.324.782.723.782h16.554c.4 0 .723-.35.723-.782V4.782zM5 16V6h14v10H5z" fill-opacity="0.99" fill="#000000"></path><path d="M14.344 9.82l1.064 1.154v-2.32zM16 21H8c0-.552.512-1 1.143-1h5.714c.63 0 1.143.448 1.143 1z" fill-opacity="0.99" fill="#000000"></path><path d="M15.408 8.668v2.302L18 13.824v-2.247z" opacity=".7" fill-opacity="0.99" fill="#000000"></path><path d="M10.546 10.308L9.53 9.202 6 13.076v2.216zm3.77-2.858l-3.173 3.527 1.057 1.157 3.208-3.48z" fill-opacity="0.99" fill="#000000"></path><path d="M10.54 10.316l-.142.16v2.008l.742.812 1.06-1.162z" fill-opacity="0.99" fill="#000000"></path><path d="M9.48 11.477l.918 1.007V10.47z" opacity=".5" fill-opacity="0.99" fill="#000000"></path></svg>