<svg xmlns:xlink="http://www.w3.org/1999/xlink" xmlns="http://www.w3.org/2000/svg" fill="currentColor" height="500" viewBox="0 0 24 24" width="500" fit="" preserveAspectRatio="xMidYMid meet" focusable="false"><path d="M12.15 3.717h-.008a4.45 4.45 0 0 0-4.45 4.45 4.452 4.452 0 0 0 4.458 4.45V14.1H6.208L2.5 17.067V6.26L12.15.75v2.967zm-.008 7.416a2.966 2.966 0 0 1 0-5.933v5.933z" fill-opacity="0.99" fill="#000000"></path><path d="M12.478 12.604a4.45 4.45 0 0 0-.33-8.887L12.15.75l9.633 5.51v10.807l-3.708-2.97h-5.933v-1.48c.113 0 .225-.005.336-.013zm2.63-4.45a2.962 2.962 0 0 1-2.968 2.956V5.2a2.96 2.96 0 0 1 2.967 2.955z" fill-opacity="0.8" opacity=".8" fill="#000000"></path><path d="M3.242 18.55l8.9 4.45v-7.417H6.95z" fill-opacity="0.99" fill="#000000"></path><path d="M12.142 22.998l8.9-4.448-3.71-2.967h-5.19z" fill-opacity="0.8" fill="#000000"></path></svg>