<svg xmlns:xlink="http://www.w3.org/1999/xlink" xmlns="http://www.w3.org/2000/svg" width="500" height="500" viewBox="0 0 24 24" fit="" preserveAspectRatio="xMidYMid meet" focusable="false"><path d="M10.19 2a.38.38 0 0 1 .372.304l.008.077v1.96h2.05V2.39c0-.184.13-.338.303-.374L13 2h.62a.38.38 0 0 1 .374.305l.008.076v1.96h2.05l-.002-1.95a.38.38 0 0 1 .304-.37L16.43 2h.623a.38.38 0 0 1 .372.305l.01.076-.002 1.96h1.82c.21 0 .382.15.418.35l.01.08v1.81h1.94a.38.38 0 0 1 .38.31l.01.08v.62c0 .19-.13.34-.3.38h-2.02v2.06h1.94a.38.38 0 0 1 .38.31v.7a.38.38 0 0 1-.3.37l-.07.01H19.7v2.06h1.94a.384.384 0 0 1 .37.31l.01.08v.63a.38.38 0 0 1-.306.37l-.077.01h-1.94v1.82c0 .21-.15.38-.35.42l-.07.01h-1.82v1.95a.384.384 0 0 1-.3.38l-.08.01h-.62a.382.382 0 0 1-.373-.31l-.01-.08V17.1H14v1.95a.38.38 0 0 1-.305.375l-.076.01H13a.382.382 0 0 1-.373-.303l-.008-.07-.01-1.95H11.6l.003.05c0 2.616-2.036 4.75-4.59 4.864l-.21.006C4.15 22 2 19.82 2 17.13s2.15-4.872 4.804-4.872c.046 0 .093 0 .14.002l-.002-.862h-1.94a.382.382 0 0 1-.373-.304l-.01-.077v-.623a.38.38 0 0 1 .3-.373h2.02V7.96H5a.382.382 0 0 1-.372-.304L4.62 7.58v-.624a.38.38 0 0 1 .303-.373L5 6.575h1.942V4.758c0-.21.15-.382.348-.418l.077-.008h1.82v-1.95c0-.184.13-.338.304-.374L9.57 2h.62zM6.73 14.49l-.73.74 1.543 1.564H4.07v1.044h3.475l-1.543 1.564.727.738 2.78-2.824-2.78-2.826zm11.517-8.73H8.374v6.765a4.852 4.852 0 0 1 3.008 3.126h6.864V5.76zm-2.942 2.523c.208 0 .38.15.417.35l.007.075v3.996a.43.43 0 0 1-.35.418l-.08.008h-3.99a.427.427 0 0 1-.42-.35l-.01-.076V8.708a.43.43 0 0 1 .35-.418l.07-.007h3.99z" fill="#000000" fill-rule="evenodd" fill-opacity="0.99"></path></svg>