<svg xmlns:xlink="http://www.w3.org/1999/xlink" xmlns="http://www.w3.org/2000/svg" fill="currentColor" height="500" viewBox="0 0 24 24" width="500" fit="" preserveAspectRatio="xMidYMid meet" focusable="false"><path d="M13.1 17.625a2.814 2.814 0 1 0 0-1.5H5.876v1.5H13.1zM22 21.75H2.5v-10.5h5.25l1.5 1.5h6l1.5-1.5H22v10.5zM8.125 17.625h-1.5v1.5h1.5v-1.5zm2.25 0h-1.5v1.5h1.5v-1.5zm4.03-.75a1.406 1.406 0 1 0 2.814 0 1.406 1.406 0 0 0-2.82 0z" fill-opacity="0.99" fill="#000000"></path><path d="M11.5 12H9.676l-1.284-1.5H4v-3h7.5z" fill-opacity="0.8" fill="#000000"></path><path d="M16 10.826L14.77 12h-2.52V6.75h-6v-1.5H16z" opacity=".6" fill-opacity="0.99" fill="#000000"></path><path d="M20.5 10.5h-3.75v-6H10V3h10.5z" opacity=".6" fill-opacity="0.99" fill="#000000"></path></svg>