<svg xmlns:xlink="http://www.w3.org/1999/xlink" xmlns="http://www.w3.org/2000/svg" height="500" viewBox="0 0 18 18" width="500" fit="" preserveAspectRatio="xMidYMid meet" focusable="false"><path d="M9.105 3.868v1.58H3.58v9.647h9.474v-5.7h1.579v5.526c0 .868-.71 1.579-1.58 1.579H3.58c-.87 0-1.58-.71-1.58-1.579V5.447c0-.868.71-1.579 1.579-1.579zm0 7.895v1.58H5.158v-1.58zm2.369-2.368v1.579H5.158v-1.58zm0-2.369v1.58H5.158v-1.58zm2.368-3.947l.74 1.628 1.629.74-1.629.74-.74 1.629-.74-1.628-1.628-.74 1.628-.74zM11.474 1.5l.493 1.086 1.086.493-1.086.493-.493 1.086-.494-1.086-1.085-.493 1.085-.493z" fill-opacity="0.54" fill="#000000"></path></svg>