<svg xmlns:xlink="http://www.w3.org/1999/xlink" xmlns="http://www.w3.org/2000/svg" height="500" viewBox="0 0 18 18" width="500" fit="" preserveAspectRatio="xMidYMid meet" focusable="false"><path d="M3 .75h12v1.5H3zm0 15h12v1.5H3zm12-12H3c-.825 0-1.5.675-1.5 1.5v7.5c0 .825.675 1.5 1.5 1.5h12c.825 0 1.5-.675 1.5-1.5v-7.5c0-.825-.675-1.5-1.5-1.5zm-8.842 9C6.683 12.398 8.003 12 9 12s2.317.398 2.842.75zm8.842 0h-1.5c0-1.492-3-2.25-4.5-2.25s-4.5.757-4.5 2.25H3v-7.5h12zm-6-2.625c1.245 0 2.25-1.005 2.25-2.25S10.245 5.625 9 5.625 6.75 6.63 6.75 7.875s1.005 2.25 2.25 2.25zm0-3c.412 0 .75.338.75.75s-.338.75-.75.75-.75-.338-.75-.75.338-.75.75-.75z" fill-opacity="0.54" fill="#000000"></path></svg>