<svg xmlns:xlink="http://www.w3.org/1999/xlink" xmlns="http://www.w3.org/2000/svg" width="500" height="500" viewBox="0 0 18 18" fit="" preserveAspectRatio="xMidYMid meet" focusable="false"><path d="M9 2C5.136 2 2 5.136 2 9s3.136 7 7 7 7-3.136 7-7-3.136-7-7-7zm0 2.1c1.162 0 2.1.938 2.1 2.1 0 1.162-.938 2.1-2.1 2.1-1.162 0-2.1-.938-2.1-2.1 0-1.162.938-2.1 2.1-2.1zm0 9.94a5.04 5.04 0 0 1-4.2-2.254C4.82 10.393 7.6 9.63 9 9.63c1.393 0 4.18.763 4.2 2.156A5.04 5.04 0 0 1 9 14.04z" fill-rule="evenodd" fill-opacity="0.54" fill="#000000"></path></svg>