<svg xmlns:xlink="http://www.w3.org/1999/xlink" xmlns="http://www.w3.org/2000/svg" width="500" height="500" viewBox="0 0 18 18" fit="" preserveAspectRatio="xMidYMid meet" focusable="false"><path d="M9 4v-.504C9 2.68 8.326 2 7.495 2h-4.99C1.668 2 1 2.67 1 3.496v11.008C1 15.32 1.674 16 2.505 16h12.99c.838 0 1.505-.67 1.505-1.496V5.496C17 4.68 16.326 4 15.495 4H9zm3.27 6.42a3.22 3.22 0 0 0 .032-.42 3.22 3.22 0 0 0-.03-.42l.927-.706a.213.213 0 0 0 .05-.274l-.88-1.48a.225.225 0 0 0-.27-.095l-1.1.428a3.237 3.237 0 0 0-.75-.42L10.09 5.9a.213.213 0 0 0-.216-.18H8.12a.213.213 0 0 0-.215.18l-.167 1.134a3.405 3.405 0 0 0-.744.42L5.9 7.024a.218.218 0 0 0-.27.094L4.75 8.6a.207.207 0 0 0 .053.274l.928.706a3.46 3.46 0 0 0-.03.42c0 .14.02.282.03.42l-.92.706a.212.212 0 0 0-.05.274l.88 1.48a.225.225 0 0 0 .27.095L7 12.547c.23.17.474.312.743.42L7.91 14.1a.21.21 0 0 0 .215.18h1.76c.11 0 .204-.077.217-.18l.166-1.134a3.38 3.38 0 0 0 .744-.42l1.095.43c.1.037.216 0 .27-.095l.88-1.48a.213.213 0 0 0-.054-.27l-.93-.7zM9 11.223c-.674 0-1.223-.55-1.223-1.223 0-.674.55-1.223 1.223-1.223.674 0 1.223.55 1.223 1.223 0 .674-.55 1.223-1.223 1.223z" fill-rule="evenodd" fill-opacity="0.54" fill="#000000"></path></svg>