<svg xmlns:xlink="http://www.w3.org/1999/xlink" xmlns="http://www.w3.org/2000/svg" width="500" height="500" viewBox="0 0 18 18" fit="" preserveAspectRatio="xMidYMid meet" focusable="false"><path d="M11.29 8.918l2.71 1.25v1.878a4.1 4.1 0 0 1-.578 2.08l-.873-.907a1.613 1.613 0 0 0-.2-1.97 1.466 1.466 0 0 0-2.13 0 1.61 1.61 0 0 0 0 2.21 1.46 1.46 0 0 0 1.89.2l.94.97c-.47.56-1.08.98-1.77 1.16-1.56-.4-2.71-2.02-2.71-3.76v-1.87l2.71-1.26zm.026-7.118l.12.007c.52.058.93.484.985 1.017l.01.124.01 5.993-1.11-.51V2.95h-7.2v9.186H8.2l.003.08c.01.364.07.723.17 1.07l-4.25-.006a1.13 1.13 0 0 1-1.116-1.024L3 12.134l.006-9.186c0-.59.436-1.08.998-1.14l.122-.008h7.19zM8.19 9.824v1.14H5.22v-1.14h2.97zm1.926-2.283v1.15H5.22V7.55h4.896zm-.62-2.28v1.11H5.22V5.26h4.276zm1.795 8.04c.5 0 .91-.42.91-.94s-.4-.94-.9-.94-.9.42-.9.94.41.94.91.94z" fill-rule="evenodd" fill-opacity="0.54" fill="#000000"></path></svg>