<svg xmlns:xlink="http://www.w3.org/1999/xlink" xmlns="http://www.w3.org/2000/svg" width="500" height="500" viewBox="0 0 18 18" fit="" preserveAspectRatio="xMidYMid meet" focusable="false"><path d="M14.348 9.686c.03-.224.05-.448.05-.686 0-.238-.02-.462-.05-.686l1.52-1.155a.35.35 0 0 0 .086-.45l-1.44-2.42a.367.367 0 0 0-.44-.16l-1.79.7a5.293 5.293 0 0 0-1.217-.69l-.274-1.86A.348.348 0 0 0 10.44 2H7.562a.348.348 0 0 0-.352.294L6.936 4.15a5.57 5.57 0 0 0-1.216.686l-1.792-.7a.356.356 0 0 0-.44.153L2.05 6.71a.34.34 0 0 0 .086.45l1.52 1.154A5.36 5.36 0 0 0 3.603 9c0 .23.02.462.05.686L2.137 10.84a.347.347 0 0 0-.086.45l1.44 2.42c.09.155.28.21.44.155l1.79-.7c.38.28.78.51 1.22.686l.28 1.86a.35.35 0 0 0 .36.3h2.88a.35.35 0 0 0 .36-.29l.28-1.85a5.57 5.57 0 0 0 1.22-.68l1.79.7a.36.36 0 0 0 .44-.15l1.44-2.42a.35.35 0 0 0-.09-.45l-1.52-1.16zM9 11c-1.103 0-2-.897-2-2s.897-2 2-2 2 .897 2 2-.897 2-2 2z" fill-rule="evenodd" fill-opacity="0.54" fill="#000000"></path></svg>